<?xml version="1.0" encoding="UTF-8" standalone="no"?>
<!-- Created with Inkscape (http://www.inkscape.org/) -->

<svg
   xmlns:dc="http://purl.org/dc/elements/1.1/"
   xmlns:cc="http://creativecommons.org/ns#"
   xmlns:rdf="http://www.w3.org/1999/02/22-rdf-syntax-ns#"
   xmlns:svg="http://www.w3.org/2000/svg"
   xmlns="http://www.w3.org/2000/svg"
   xmlns:sodipodi="http://sodipodi.sourceforge.net/DTD/sodipodi-0.dtd"
   xmlns:inkscape="http://www.inkscape.org/namespaces/inkscape"
   id="svg2"
   version="1.1"
   inkscape:version="0.48.5 r10040"
   width="990"
   height="765"
   xml:space="preserve"
   sodipodi:docname="fig_Adaptation_allTrials.svg"><metadata
     id="metadata8"><rdf:RDF><cc:Work
         rdf:about=""><dc:format>image/svg+xml</dc:format><dc:type
           rdf:resource="http://purl.org/dc/dcmitype/StillImage" /><dc:title /></cc:Work></rdf:RDF></metadata><defs
     id="defs6"><clipPath
       clipPathUnits="userSpaceOnUse"
       id="clipPath18"><path
         d="m 18,54 756,0 0,504 -756,0 0,-504 z"
         id="path20" /></clipPath><clipPath
       clipPathUnits="userSpaceOnUse"
       id="clipPath26"><path
         d="m 18,54 756,0 0,504 -756,0 0,-504 z"
         id="path28" /></clipPath><clipPath
       clipPathUnits="userSpaceOnUse"
       id="clipPath34"><path
         d="m 18,54 756,0 0,504 -756,0 0,-504 z"
         id="path36" /></clipPath><clipPath
       clipPathUnits="userSpaceOnUse"
       id="clipPath44"><path
         d="m 18,54 756,0 0,504 -756,0 0,-504 z"
         id="path46" /></clipPath><clipPath
       clipPathUnits="userSpaceOnUse"
       id="clipPath52"><path
         d="m 62.42,101.33 346.79,0 0,407.76 -346.79,0 0,-407.76 z"
         id="path54" /></clipPath><clipPath
       clipPathUnits="userSpaceOnUse"
       id="clipPath136"><path
         d="m 18,54 756,0 0,504 -756,0 0,-504 z"
         id="path138" /></clipPath><clipPath
       clipPathUnits="userSpaceOnUse"
       id="clipPath144"><path
         d="m 412.81,101.33 346.79,0 0,407.76 -346.79,0 0,-407.76 z"
         id="path146" /></clipPath><clipPath
       clipPathUnits="userSpaceOnUse"
       id="clipPath232"><path
         d="m 18,54 756,0 0,504 -756,0 0,-504 z"
         id="path234" /></clipPath><clipPath
       clipPathUnits="userSpaceOnUse"
       id="clipPath240"><path
         d="m 18,54 756,0 0,504 -756,0 0,-504 z"
         id="path242" /></clipPath><clipPath
       clipPathUnits="userSpaceOnUse"
       id="clipPath254"><path
         d="m 18,54 756,0 0,504 -756,0 0,-504 z"
         id="path256" /></clipPath><clipPath
       clipPathUnits="userSpaceOnUse"
       id="clipPath262"><path
         d="m 18,54 756,0 0,504 -756,0 0,-504 z"
         id="path264" /></clipPath><clipPath
       clipPathUnits="userSpaceOnUse"
       id="clipPath276"><path
         d="m 18,54 756,0 0,504 -756,0 0,-504 z"
         id="path278" /></clipPath><clipPath
       clipPathUnits="userSpaceOnUse"
       id="clipPath284"><path
         d="m 18,54 756,0 0,504 -756,0 0,-504 z"
         id="path286" /></clipPath><clipPath
       clipPathUnits="userSpaceOnUse"
       id="clipPath292"><path
         d="m 18,54 756,0 0,504 -756,0 0,-504 z"
         id="path294" /></clipPath><clipPath
       clipPathUnits="userSpaceOnUse"
       id="clipPath316"><path
         d="m 18,54 756,0 0,504 -756,0 0,-504 z"
         id="path318" /></clipPath><clipPath
       clipPathUnits="userSpaceOnUse"
       id="clipPath324"><path
         d="m 18,54 756,0 0,504 -756,0 0,-504 z"
         id="path326" /></clipPath><clipPath
       clipPathUnits="userSpaceOnUse"
       id="clipPath340"><path
         d="m 18,54 756,0 0,504 -756,0 0,-504 z"
         id="path342" /></clipPath><clipPath
       clipPathUnits="userSpaceOnUse"
       id="clipPath348"><path
         d="m 18,54 756,0 0,504 -756,0 0,-504 z"
         id="path350" /></clipPath><clipPath
       clipPathUnits="userSpaceOnUse"
       id="clipPath356"><path
         d="m 18,54 756,0 0,504 -756,0 0,-504 z"
         id="path358" /></clipPath><clipPath
       clipPathUnits="userSpaceOnUse"
       id="clipPath364"><path
         d="m 18,54 756,0 0,504 -756,0 0,-504 z"
         id="path366" /></clipPath><clipPath
       clipPathUnits="userSpaceOnUse"
       id="clipPath372"><path
         d="m 18,54 756,0 0,504 -756,0 0,-504 z"
         id="path374" /></clipPath><clipPath
       clipPathUnits="userSpaceOnUse"
       id="clipPath380"><path
         d="m 18,54 756,0 0,504 -756,0 0,-504 z"
         id="path382" /></clipPath><clipPath
       clipPathUnits="userSpaceOnUse"
       id="clipPath388"><path
         d="m 18,54 756,0 0,504 -756,0 0,-504 z"
         id="path390" /></clipPath><clipPath
       clipPathUnits="userSpaceOnUse"
       id="clipPath396"><path
         d="m 18,54 756,0 0,504 -756,0 0,-504 z"
         id="path398" /></clipPath><clipPath
       clipPathUnits="userSpaceOnUse"
       id="clipPath412"><path
         d="m 18,54 756,0 0,504 -756,0 0,-504 z"
         id="path414" /></clipPath><clipPath
       clipPathUnits="userSpaceOnUse"
       id="clipPath420"><path
         d="m 18,54 756,0 0,504 -756,0 0,-504 z"
         id="path422" /></clipPath><clipPath
       clipPathUnits="userSpaceOnUse"
       id="clipPath444"><path
         d="m 18,54 756,0 0,504 -756,0 0,-504 z"
         id="path446" /></clipPath><clipPath
       clipPathUnits="userSpaceOnUse"
       id="clipPath452"><path
         d="m 18,54 756,0 0,504 -756,0 0,-504 z"
         id="path454" /></clipPath><clipPath
       clipPathUnits="userSpaceOnUse"
       id="clipPath460"><path
         d="m 18,54 756,0 0,504 -756,0 0,-504 z"
         id="path462" /></clipPath><clipPath
       clipPathUnits="userSpaceOnUse"
       id="clipPath468"><path
         d="m 18,54 756,0 0,504 -756,0 0,-504 z"
         id="path470" /></clipPath><clipPath
       clipPathUnits="userSpaceOnUse"
       id="clipPath476"><path
         d="m 18,54 756,0 0,504 -756,0 0,-504 z"
         id="path478" /></clipPath><clipPath
       clipPathUnits="userSpaceOnUse"
       id="clipPath484"><path
         d="m 18,54 756,0 0,504 -756,0 0,-504 z"
         id="path486" /></clipPath><clipPath
       clipPathUnits="userSpaceOnUse"
       id="clipPath500"><path
         d="m 18,54 756,0 0,504 -756,0 0,-504 z"
         id="path502" /></clipPath><clipPath
       clipPathUnits="userSpaceOnUse"
       id="clipPath508"><path
         d="m 18,54 756,0 0,504 -756,0 0,-504 z"
         id="path510" /></clipPath><clipPath
       clipPathUnits="userSpaceOnUse"
       id="clipPath532"><path
         d="m 18,54 756,0 0,504 -756,0 0,-504 z"
         id="path534" /></clipPath><clipPath
       clipPathUnits="userSpaceOnUse"
       id="clipPath540"><path
         d="m 18,54 756,0 0,504 -756,0 0,-504 z"
         id="path542" /></clipPath><clipPath
       clipPathUnits="userSpaceOnUse"
       id="clipPath548"><path
         d="m 18,54 756,0 0,504 -756,0 0,-504 z"
         id="path550" /></clipPath><clipPath
       clipPathUnits="userSpaceOnUse"
       id="clipPath556"><path
         d="m 18,54 756,0 0,504 -756,0 0,-504 z"
         id="path558" /></clipPath><clipPath
       clipPathUnits="userSpaceOnUse"
       id="clipPath564"><path
         d="m 18,54 756,0 0,504 -756,0 0,-504 z"
         id="path566" /></clipPath><clipPath
       clipPathUnits="userSpaceOnUse"
       id="clipPath576"><path
         d="m 18,54 756,0 0,504 -756,0 0,-504 z"
         id="path578" /></clipPath><clipPath
       clipPathUnits="userSpaceOnUse"
       id="clipPath584"><path
         d="m 18,54 756,0 0,504 -756,0 0,-504 z"
         id="path586" /></clipPath><clipPath
       clipPathUnits="userSpaceOnUse"
       id="clipPath596"><path
         d="m 18,54 756,0 0,504 -756,0 0,-504 z"
         id="path598" /></clipPath><clipPath
       clipPathUnits="userSpaceOnUse"
       id="clipPath604"><path
         d="m 18,54 756,0 0,504 -756,0 0,-504 z"
         id="path606" /></clipPath><clipPath
       clipPathUnits="userSpaceOnUse"
       id="clipPath616"><path
         d="m 18,54 756,0 0,504 -756,0 0,-504 z"
         id="path618" /></clipPath><clipPath
       clipPathUnits="userSpaceOnUse"
       id="clipPath624"><path
         d="m 18,54 756,0 0,504 -756,0 0,-504 z"
         id="path626" /></clipPath></defs><sodipodi:namedview
     pagecolor="#ffffff"
     bordercolor="#666666"
     borderopacity="1"
     objecttolerance="10"
     gridtolerance="10"
     guidetolerance="10"
     inkscape:pageopacity="0"
     inkscape:pageshadow="2"
     inkscape:window-width="1440"
     inkscape:window-height="846"
     id="namedview4"
     showgrid="false"
     inkscape:zoom="0.87256051"
     inkscape:cx="656.83615"
     inkscape:cy="359.29409"
     inkscape:window-x="0"
     inkscape:window-y="27"
     inkscape:window-maximized="1"
     inkscape:current-layer="g10" /><g
     id="g10"
     inkscape:groupmode="layer"
     inkscape:label="fig_Adaptation"
     transform="matrix(1.25,0,0,-1.25,0,765)"><g
       id="g12"
       transform="translate(-29.33894,1.8336837)" /><g
       id="g14"
       transform="translate(-29.33894,1.8336837)"><g
         id="g16"
         clip-path="url(#clipPath18)" /></g><g
       id="g22"
       transform="translate(-29.33894,1.8336837)"><g
         id="g24"
         clip-path="url(#clipPath26)" /></g><g
       id="g30"
       transform="translate(-29.33894,1.8336837)"><g
         id="g32"
         clip-path="url(#clipPath34)"><path
           d="m 18,54 756,0 0,504 -756,0 0,-504 z"
           style="fill:#ffffff;fill-opacity:1;fill-rule:nonzero;stroke:#ffffff;stroke-width:1.05999994;stroke-linecap:round;stroke-linejoin:round;stroke-miterlimit:10;stroke-opacity:1;stroke-dasharray:none"
           id="path38"
           inkscape:connector-curvature="0" /></g></g><g
       id="g40"
       transform="translate(-29.33894,1.8336837)"><g
         id="g42"
         clip-path="url(#clipPath44)" /></g><g
       id="g132"
       transform="translate(-29.33894,1.8336837)"><g
         id="g134"
         clip-path="url(#clipPath136)" /></g><g
       id="g140"
       transform="matrix(2.0149747,0,0,1,-800.31373,1.8336837)"><path
         inkscape:connector-curvature="0"
         id="path148"
         style="fill:#e5e5e5;fill-opacity:1;fill-rule:nonzero;stroke:none"
         d="m 412.81,101.33 346.79,0 0,407.76 -346.79,0 0,-407.76 z" /><path
         inkscape:connector-curvature="0"
         id="path150"
         style="fill:none;stroke:#f2f2f2;stroke-width:0.52999997;stroke-linecap:butt;stroke-linejoin:round;stroke-miterlimit:10;stroke-opacity:1;stroke-dasharray:none"
         d="m 412.81,411.13 346.79,0" /><path
         inkscape:connector-curvature="0"
         id="path152"
         style="fill:none;stroke:#f2f2f2;stroke-width:0.52999997;stroke-linecap:butt;stroke-linejoin:round;stroke-miterlimit:10;stroke-opacity:1;stroke-dasharray:none"
         d="m 412.81,305.22 346.79,0" /><path
         inkscape:connector-curvature="0"
         id="path154"
         style="fill:none;stroke:#f2f2f2;stroke-width:0.52999997;stroke-linecap:butt;stroke-linejoin:round;stroke-miterlimit:10;stroke-opacity:1;stroke-dasharray:none"
         d="m 412.81,199.3 346.79,0" /><path
         inkscape:connector-curvature="0"
         id="path156"
         style="fill:none;stroke:#f2f2f2;stroke-width:0.52999997;stroke-linecap:butt;stroke-linejoin:round;stroke-miterlimit:10;stroke-opacity:1;stroke-dasharray:none"
         d="m 469.98,101.33 0,407.77" /><path
         inkscape:connector-curvature="0"
         id="path158"
         style="fill:none;stroke:#f2f2f2;stroke-width:0.52999997;stroke-linecap:butt;stroke-linejoin:round;stroke-miterlimit:10;stroke-opacity:1;stroke-dasharray:none"
         d="m 579.52,101.33 0,407.77" /><path
         inkscape:connector-curvature="0"
         id="path160"
         style="fill:none;stroke:#f2f2f2;stroke-width:0.52999997;stroke-linecap:butt;stroke-linejoin:round;stroke-miterlimit:10;stroke-opacity:1;stroke-dasharray:none"
         d="m 689.06,101.33 0,407.77" /><path
         inkscape:connector-curvature="0"
         id="path162"
         style="fill:none;stroke:#ffffff;stroke-width:1.05999994;stroke-linecap:butt;stroke-linejoin:round;stroke-miterlimit:10;stroke-opacity:1;stroke-dasharray:none"
         d="m 412.81,464.08 346.79,0" /><path
         inkscape:connector-curvature="0"
         id="path164"
         style="fill:none;stroke:#ffffff;stroke-width:1.05999994;stroke-linecap:butt;stroke-linejoin:round;stroke-miterlimit:10;stroke-opacity:1;stroke-dasharray:none"
         d="m 412.81,358.17 346.79,0" /><path
         inkscape:connector-curvature="0"
         id="path166"
         style="fill:none;stroke:#ffffff;stroke-width:1.05999994;stroke-linecap:butt;stroke-linejoin:round;stroke-miterlimit:10;stroke-opacity:1;stroke-dasharray:none"
         d="m 412.81,252.26 346.79,0" /><path
         inkscape:connector-curvature="0"
         id="path168"
         style="fill:none;stroke:#ffffff;stroke-width:1.05999994;stroke-linecap:butt;stroke-linejoin:round;stroke-miterlimit:10;stroke-opacity:1;stroke-dasharray:none"
         d="m 412.81,146.35 346.79,0" /><path
         inkscape:connector-curvature="0"
         id="path170"
         style="fill:none;stroke:#ffffff;stroke-width:1.05999994;stroke-linecap:butt;stroke-linejoin:round;stroke-miterlimit:10;stroke-opacity:1;stroke-dasharray:none"
         d="m 415.2,101.33 0,407.77" /><path
         inkscape:connector-curvature="0"
         id="path172"
         style="fill:none;stroke:#ffffff;stroke-width:1.05999994;stroke-linecap:butt;stroke-linejoin:round;stroke-miterlimit:10;stroke-opacity:1;stroke-dasharray:none"
         d="m 524.75,101.33 0,407.77" /><path
         inkscape:connector-curvature="0"
         id="path174"
         style="fill:none;stroke:#ffffff;stroke-width:1.05999994;stroke-linecap:butt;stroke-linejoin:round;stroke-miterlimit:10;stroke-opacity:1;stroke-dasharray:none"
         d="m 634.29,101.33 0,407.77" /><path
         inkscape:connector-curvature="0"
         id="path176"
         style="fill:none;stroke:#ffffff;stroke-width:1.05999994;stroke-linecap:butt;stroke-linejoin:round;stroke-miterlimit:10;stroke-opacity:1;stroke-dasharray:none"
         d="m 743.84,101.33 0,407.77" /><path
         inkscape:connector-curvature="0"
         id="path178"
         style="fill:#333333;fill-opacity:1;fill-rule:nonzero;stroke:none"
         d="m 491.89,119.87 251.95,0 0,52.96 -251.95,0 0,-52.96 z" /><path
         inkscape:connector-curvature="0"
         id="path180"
         style="fill:#333333;fill-opacity:1;fill-rule:nonzero;stroke:none"
         d="m 535.7,225.78 208.13,0 0,52.96 -208.13,0 0,-52.96 z" /><path
         inkscape:connector-curvature="0"
         id="path182"
         style="fill:#333333;fill-opacity:1;fill-rule:nonzero;stroke:none"
         d="m 524.75,331.69 219.09,0 0,52.96 -219.09,0 0,-52.96 z" /><path
         inkscape:connector-curvature="0"
         id="path184"
         style="fill:#333333;fill-opacity:1;fill-rule:nonzero;stroke:none"
         d="m 612.38,437.61 131.45,0 0,52.96 -131.45,0 0,-52.96 z" /><path
         inkscape:connector-curvature="0"
         id="path186"
         style="fill:none;stroke:#000000;stroke-width:1.05999994;stroke-linecap:butt;stroke-linejoin:round;stroke-miterlimit:1;stroke-opacity:1;stroke-dasharray:none"
         d="m 639.4,453.49 0,21.18" /><path
         inkscape:connector-curvature="0"
         id="path188"
         style="fill:none;stroke:#000000;stroke-width:1.05999994;stroke-linecap:butt;stroke-linejoin:round;stroke-miterlimit:1;stroke-opacity:1;stroke-dasharray:none"
         d="m 639.4,464.08 -54.03,0" /><path
         inkscape:connector-curvature="0"
         id="path190"
         style="fill:none;stroke:#000000;stroke-width:1.05999994;stroke-linecap:butt;stroke-linejoin:round;stroke-miterlimit:1;stroke-opacity:1;stroke-dasharray:none"
         d="m 585.37,453.49 0,21.18" /><path
         inkscape:connector-curvature="0"
         id="path192"
         style="fill:none;stroke:#000000;stroke-width:1.05999994;stroke-linecap:butt;stroke-linejoin:round;stroke-miterlimit:1;stroke-opacity:1;stroke-dasharray:none"
         d="m 559.44,347.58 0,21.18" /><path
         inkscape:connector-curvature="0"
         id="path194"
         style="fill:none;stroke:#000000;stroke-width:1.05999994;stroke-linecap:butt;stroke-linejoin:round;stroke-miterlimit:1;stroke-opacity:1;stroke-dasharray:none"
         d="m 559.44,358.17 -69.38,0" /><path
         inkscape:connector-curvature="0"
         id="path196"
         style="fill:none;stroke:#000000;stroke-width:1.05999994;stroke-linecap:butt;stroke-linejoin:round;stroke-miterlimit:1;stroke-opacity:1;stroke-dasharray:none"
         d="m 490.06,347.58 0,21.18" /><path
         inkscape:connector-curvature="0"
         id="path198"
         style="fill:none;stroke:#000000;stroke-width:1.05999994;stroke-linecap:butt;stroke-linejoin:round;stroke-miterlimit:1;stroke-opacity:1;stroke-dasharray:none"
         d="m 565.33,241.67 0,21.18" /><path
         inkscape:connector-curvature="0"
         id="path200"
         style="fill:none;stroke:#000000;stroke-width:1.05999994;stroke-linecap:butt;stroke-linejoin:round;stroke-miterlimit:1;stroke-opacity:1;stroke-dasharray:none"
         d="m 565.33,252.26 -59.25,0" /><path
         inkscape:connector-curvature="0"
         id="path202"
         style="fill:none;stroke:#000000;stroke-width:1.05999994;stroke-linecap:butt;stroke-linejoin:round;stroke-miterlimit:1;stroke-opacity:1;stroke-dasharray:none"
         d="m 506.08,241.67 0,21.18" /><path
         inkscape:connector-curvature="0"
         id="path204"
         style="fill:none;stroke:#000000;stroke-width:1.05999994;stroke-linecap:butt;stroke-linejoin:round;stroke-miterlimit:1;stroke-opacity:1;stroke-dasharray:none"
         d="m 533.29,135.76 0,21.18" /><path
         inkscape:connector-curvature="0"
         id="path206"
         style="fill:none;stroke:#000000;stroke-width:1.05999994;stroke-linecap:butt;stroke-linejoin:round;stroke-miterlimit:1;stroke-opacity:1;stroke-dasharray:none"
         d="m 533.29,146.35 -82.81,0" /><path
         inkscape:connector-curvature="0"
         id="path208"
         style="fill:none;stroke:#000000;stroke-width:1.05999994;stroke-linecap:butt;stroke-linejoin:round;stroke-miterlimit:1;stroke-opacity:1;stroke-dasharray:none"
         d="m 450.48,135.76 0,21.18" /><text
         id="text210"
         transform="scale(1,-1)"
         x="558.02002"
         y="-456.14999"><tspan
           id="tspan212"
           y="-456.14999"
           x="558.02002"
           style="font-size:28px;font-variant:normal;font-weight:normal;writing-mode:lr-tb;fill:#000000;fill-opacity:0.70200004;fill-rule:nonzero;stroke:none;font-family:Helvetica;-inkscape-font-specification:Helvetica">*</tspan></text>
<text
         id="text214"
         transform="scale(1,-1)"
         x="462.70001"
         y="-350.23999"><tspan
           id="tspan216"
           y="-350.23999"
           x="462.70001"
           style="font-size:28px;font-variant:normal;font-weight:normal;writing-mode:lr-tb;fill:#000000;fill-opacity:0.70200004;fill-rule:nonzero;stroke:none;font-family:Helvetica;-inkscape-font-specification:Helvetica">*</tspan></text>
<text
         id="text218"
         transform="scale(1,-1)"
         x="478.72"
         y="-244.33"><tspan
           id="tspan220"
           y="-244.33"
           x="478.72"
           style="font-size:28px;font-variant:normal;font-weight:normal;writing-mode:lr-tb;fill:#000000;fill-opacity:0.70200004;fill-rule:nonzero;stroke:none;font-family:Helvetica;-inkscape-font-specification:Helvetica">*</tspan></text>
<text
         id="text222"
         transform="scale(1,-1)"
         x="423.13"
         y="-138.41"><tspan
           id="tspan224"
           y="-138.41"
           x="423.13"
           style="font-size:28px;font-variant:normal;font-weight:normal;writing-mode:lr-tb;fill:#000000;fill-opacity:0.70200004;fill-rule:nonzero;stroke:none;font-family:Helvetica;-inkscape-font-specification:Helvetica">*</tspan></text>
<path
         inkscape:connector-curvature="0"
         id="path226"
         style="fill:none;stroke:#000000;stroke-width:1.05999994;stroke-linecap:butt;stroke-linejoin:round;stroke-miterlimit:10;stroke-opacity:1;stroke-dasharray:none"
         d="m 743.84,101.33 0,407.77" /><text
         xml:space="preserve"
         style="font-size:9.017272px;font-style:normal;font-variant:normal;font-weight:normal;font-stretch:normal;text-align:start;line-height:125%;letter-spacing:0px;word-spacing:0px;writing-mode:lr-tb;text-anchor:start;fill:#000000;fill-opacity:1;stroke:none;font-family:Sans;-inkscape-font-specification:Sans"
         x="1086.7009"
         y="-323.06671"
         id="text3208"
         sodipodi:linespacing="125%"
         transform="scale(0.70447439,-1.419498)"><tspan
           sodipodi:role="line"
           id="tspan3210"
           x="1086.7009"
           y="-323.06671">1</tspan></text>
<text
         xml:space="preserve"
         style="font-size:9.017272px;font-style:normal;font-variant:normal;font-weight:normal;font-stretch:normal;text-align:start;line-height:125%;letter-spacing:0px;word-spacing:0px;writing-mode:lr-tb;text-anchor:start;fill:#000000;fill-opacity:1;stroke:none;font-family:Sans;-inkscape-font-specification:Sans"
         x="1086.9014"
         y="-249.46078"
         id="text3212"
         sodipodi:linespacing="125%"
         transform="scale(0.70447439,-1.419498)"><tspan
           sodipodi:role="line"
           id="tspan3214"
           x="1086.9014"
           y="-249.46078">2</tspan></text>
<text
         xml:space="preserve"
         style="font-size:9.017272px;font-style:normal;font-variant:normal;font-weight:normal;font-stretch:normal;text-align:start;line-height:125%;letter-spacing:0px;word-spacing:0px;writing-mode:lr-tb;text-anchor:start;fill:#000000;fill-opacity:1;stroke:none;font-family:Sans;-inkscape-font-specification:Sans"
         x="1086.7979"
         y="-174.39075"
         id="text3216"
         sodipodi:linespacing="125%"
         transform="scale(0.70447439,-1.419498)"><tspan
           sodipodi:role="line"
           id="tspan3218"
           x="1086.7979"
           y="-174.39075">3</tspan></text>
<text
         xml:space="preserve"
         style="font-size:9.017272px;font-style:normal;font-variant:normal;font-weight:normal;font-stretch:normal;text-align:start;line-height:125%;letter-spacing:0px;word-spacing:0px;writing-mode:lr-tb;text-anchor:start;fill:#000000;fill-opacity:1;stroke:none;font-family:Sans;-inkscape-font-specification:Sans"
         x="1086.8132"
         y="-99.088951"
         id="text3220"
         sodipodi:linespacing="125%"
         transform="scale(0.70447439,-1.419498)"><tspan
           sodipodi:role="line"
           id="tspan3222"
           x="1086.8132"
           y="-99.088951">4</tspan></text>
</g><g
       id="g228"
       transform="translate(-29.33894,1.8336837)"><g
         id="g230"
         clip-path="url(#clipPath232)" /></g><g
       id="g250"
       transform="translate(-29.33894,1.8336837)"><g
         id="g252"
         clip-path="url(#clipPath254)" /></g><g
       id="g258"
       transform="matrix(2.0149747,0,0,1,-800.31373,1.8336837)"><g
         id="g260"
         clip-path="url(#clipPath262)"><path
           d="m 412.81,509.1 346.79,0 0,14.38 -346.79,0 0,-14.38 z"
           style="fill:#cccccc;fill-opacity:1;fill-rule:nonzero;stroke:none"
           id="path266"
           inkscape:connector-curvature="0" /></g></g><g
       id="g272"
       transform="translate(-29.33894,1.8336837)"><g
         id="g274"
         clip-path="url(#clipPath276)" /></g><g
       id="g280"
       transform="translate(-29.33894,1.8336837)"><g
         id="g282"
         clip-path="url(#clipPath284)" /></g><g
       id="g312"
       transform="translate(-29.33894,1.8336837)"><g
         id="g314"
         clip-path="url(#clipPath316)" /></g><g
       id="g336"
       transform="translate(-29.33894,1.8336837)"><g
         id="g338"
         clip-path="url(#clipPath340)" /></g><g
       id="g344"
       transform="translate(-29.33894,1.8336837)"><g
         id="g346"
         clip-path="url(#clipPath348)" /></g><g
       id="g352"
       transform="translate(-29.33894,1.8336837)"><g
         id="g354"
         clip-path="url(#clipPath356)" /></g><g
       id="g360"
       transform="translate(-29.33894,1.8336837)"><g
         id="g362"
         clip-path="url(#clipPath364)" /></g><g
       id="g368"
       transform="translate(-29.33894,1.8336837)"><g
         id="g370"
         clip-path="url(#clipPath372)" /></g><g
       id="g376"
       transform="translate(-29.33894,1.8336837)"><g
         id="g378"
         clip-path="url(#clipPath380)" /></g><g
       id="g384"
       transform="translate(-29.33894,1.8336837)"><g
         id="g386"
         clip-path="url(#clipPath388)" /></g><g
       id="g408"
       transform="translate(-29.33894,1.8336837)"><g
         id="g410"
         clip-path="url(#clipPath412)" /></g><g
       id="g440"
       transform="translate(-29.33894,1.8336837)"><g
         id="g442"
         clip-path="url(#clipPath444)" /></g><g
       id="g448"
       transform="translate(-29.33894,1.8336837)"><g
         id="g450"
         clip-path="url(#clipPath452)" /></g><g
       id="g456"
       transform="translate(-29.33894,1.8336837)"><g
         id="g458"
         clip-path="url(#clipPath460)" /></g><g
       id="g464"
       transform="translate(-29.33894,1.8336837)"><g
         id="g466"
         clip-path="url(#clipPath468)" /></g><g
       id="g472"
       transform="translate(-29.33894,1.8336837)"><g
         id="g474"
         clip-path="url(#clipPath476)" /></g><g
       id="g480"
       transform="matrix(2.0149747,0,0,1,-800.31373,1.8336837)"><g
         id="g482"
         clip-path="url(#clipPath484)"><path
           d="m 415.2,97.08 0,4.25"
           style="fill:none;stroke:#7f7f7f;stroke-width:1.05999994;stroke-linecap:butt;stroke-linejoin:round;stroke-miterlimit:10;stroke-opacity:1;stroke-dasharray:none"
           id="path488"
           inkscape:connector-curvature="0" /><path
           d="m 524.75,97.08 0,4.25"
           style="fill:none;stroke:#7f7f7f;stroke-width:1.05999994;stroke-linecap:butt;stroke-linejoin:round;stroke-miterlimit:10;stroke-opacity:1;stroke-dasharray:none"
           id="path490"
           inkscape:connector-curvature="0" /><path
           d="m 634.29,97.08 0,4.25"
           style="fill:none;stroke:#7f7f7f;stroke-width:1.05999994;stroke-linecap:butt;stroke-linejoin:round;stroke-miterlimit:10;stroke-opacity:1;stroke-dasharray:none"
           id="path492"
           inkscape:connector-curvature="0" /><path
           d="m 743.84,97.08 0,4.25"
           style="fill:none;stroke:#7f7f7f;stroke-width:1.05999994;stroke-linecap:butt;stroke-linejoin:round;stroke-miterlimit:10;stroke-opacity:1;stroke-dasharray:none"
           id="path494"
           inkscape:connector-curvature="0" /></g></g><g
       id="g496"
       transform="translate(-29.33894,1.8336837)"><g
         id="g498"
         clip-path="url(#clipPath500)" /></g><g
       id="g528"
       transform="translate(-29.33894,1.8336837)"><g
         id="g530"
         clip-path="url(#clipPath532)" /></g><g
       id="g536"
       transform="translate(-29.33894,1.8336837)"><g
         id="g538"
         clip-path="url(#clipPath540)" /></g><g
       id="g544"
       transform="translate(-29.33894,1.8336837)"><g
         id="g546"
         clip-path="url(#clipPath548)" /></g><g
       id="g552"
       transform="translate(-29.33894,1.8336837)"><g
         id="g554"
         clip-path="url(#clipPath556)" /></g><g
       id="g560"
       transform="translate(87.35598,-37.712926)"><g
         id="g562"
         clip-path="url(#clipPath564)"><text
           transform="matrix(1,0,0,-1,186.17,64.8)"
           id="text568"><tspan
             style="font-size:18px;font-variant:normal;font-weight:normal;writing-mode:lr-tb;fill:#000000;fill-opacity:1;fill-rule:nonzero;stroke:none;font-family:Helvetica;-inkscape-font-specification:Helvetica"
             x="0 12.006 22.014 31.014 40.014 50.021999 60.029999 64.026001 73.026001 78.029999 92.033997 102.042 106.038 116.046 121.05 127.044 140.03999 150.048 160.056 170.064 180.07201 190.08 195.084 200.088 206.082 216.09 231.084 236.088 248.09399 258.10199 267.10199 277.10999 281.10599 285.10199 295.10999 305.11801 310.12201 320.634 325.638 337.64401 342.64801 352.65601 362.664 372.672 382.67999 388.67401 398.68201 403.686 415.69199 421.686 427.67999 437.68799 443.68201"
             y="0"
             sodipodi:role="line"
             id="tspan570">Saccadic Gain (Change from Baseline + Standard Error)</tspan></text>
</g></g><g
       id="g572"
       transform="translate(-29.33894,1.8336837)"><g
         id="g574"
         clip-path="url(#clipPath576)" /></g><g
       id="g580"
       transform="matrix(0,-1,1,0,460.8595,339.29308)"><g
         id="g582"
         clip-path="url(#clipPath584)"><text
           transform="matrix(0,1,1,0,41.72,283.21)"
           id="text588"><tspan
             style="font-size:18px;font-variant:normal;font-weight:normal;writing-mode:lr-tb;fill:#000000;fill-opacity:1;fill-rule:nonzero;stroke:none;font-family:Helvetica;-inkscape-font-specification:Helvetica"
             x="0 12.006 16.002001 26.01 35.009998"
             y="0"
             sodipodi:role="line"
             id="tspan590">Block</tspan></text>
</g></g><g
       id="g592"
       transform="translate(-29.33894,1.8336837)"><g
         id="g594"
         clip-path="url(#clipPath596)" /></g><g
       id="g600"
       transform="translate(-27.394024,32.952328)"><g
         id="g602"
         clip-path="url(#clipPath604)"><text
           transform="matrix(1,0,0,-1,293.71,527.08)"
           id="text608"><tspan
             style="font-size:18px;font-variant:normal;font-weight:normal;writing-mode:lr-tb;fill:#000000;fill-opacity:1;fill-rule:nonzero;stroke:none;font-family:Helvetica;-inkscape-font-specification:Helvetica"
             x="0 12.006 17.01 21.474001 31.482 40.481998 45.486 50.490002 60.498001 65.501999 70.505997 82.512001 92.519997 101.52 110.52 120.528 130.536 134.532 143.532 148.536 160.54201 170.55 180.558 190.56599 195.57001 205.578 210.582 214.578 224.586"
             y="0"
             sodipodi:role="line"
             id="tspan610">Effect of Saccadic Adaptation</tspan></text>
</g></g><g
       id="g612"
       transform="translate(-29.33894,1.8336837)"><g
         id="g614"
         clip-path="url(#clipPath616)" /></g><g
       id="g620"
       transform="translate(-29.33894,1.8336837)"><g
         id="g622"
         clip-path="url(#clipPath624)" /></g><text
       xml:space="preserve"
       style="font-size:16px;font-style:normal;font-weight:normal;line-height:125%;letter-spacing:0px;word-spacing:0px;fill:#000000;fill-opacity:1;stroke:none;font-family:Sans"
       x="19.283939"
       y="-82.223518"
       id="text3641"
       sodipodi:linespacing="125%"
       transform="scale(1,-1)"><tspan
         sodipodi:role="line"
         id="tspan3643"
         x="19.283939"
         y="-82.223518">-0.3</tspan></text>
<text
       xml:space="preserve"
       style="font-size:16px;font-style:normal;font-weight:normal;line-height:125%;letter-spacing:0px;word-spacing:0px;fill:#000000;fill-opacity:1;stroke:none;font-family:Sans"
       x="240.35597"
       y="-81.575218"
       id="text3645"
       sodipodi:linespacing="125%"
       transform="scale(1,-1)"><tspan
         sodipodi:role="line"
         id="tspan3647"
         x="240.35597"
         y="-81.575218">-0.2</tspan></text>
<text
       xml:space="preserve"
       style="font-size:16px;font-style:normal;font-weight:normal;line-height:125%;letter-spacing:0px;word-spacing:0px;fill:#000000;fill-opacity:1;stroke:none;font-family:Sans"
       x="461.42801"
       y="-80.926926"
       id="text3649"
       sodipodi:linespacing="125%"
       transform="scale(1,-1)"><tspan
         sodipodi:role="line"
         id="tspan3651"
         x="461.42801"
         y="-80.926926">-0.1</tspan></text>
<text
       xml:space="preserve"
       style="font-size:16px;font-style:normal;font-weight:normal;line-height:125%;letter-spacing:0px;word-spacing:0px;fill:#000000;fill-opacity:1;stroke:none;font-family:Sans"
       x="692.22461"
       y="-78.333672"
       id="text3653"
       sodipodi:linespacing="125%"
       transform="scale(1,-1)"><tspan
         sodipodi:role="line"
         id="tspan3655"
         x="692.22461"
         y="-78.333672">0</tspan></text>
</g></svg>