<?xml version="1.0" encoding="UTF-8" standalone="no"?>
<!-- Created with Inkscape (http://www.inkscape.org/) -->

<svg
   xmlns:dc="http://purl.org/dc/elements/1.1/"
   xmlns:cc="http://creativecommons.org/ns#"
   xmlns:rdf="http://www.w3.org/1999/02/22-rdf-syntax-ns#"
   xmlns:svg="http://www.w3.org/2000/svg"
   xmlns="http://www.w3.org/2000/svg"
   xmlns:sodipodi="http://sodipodi.sourceforge.net/DTD/sodipodi-0.dtd"
   xmlns:inkscape="http://www.inkscape.org/namespaces/inkscape"
   id="svg2"
   version="1.1"
   inkscape:version="0.48.5 r10040"
   width="990"
   height="765"
   xml:space="preserve"
   sodipodi:docname="fig_Adaptation.svg"><metadata
     id="metadata8"><rdf:RDF><cc:Work
         rdf:about=""><dc:format>image/svg+xml</dc:format><dc:type
           rdf:resource="http://purl.org/dc/dcmitype/StillImage" /><dc:title></dc:title></cc:Work></rdf:RDF></metadata><defs
     id="defs6"><clipPath
       clipPathUnits="userSpaceOnUse"
       id="clipPath18"><path
         d="m 18,54 756,0 0,504 -756,0 0,-504 z"
         id="path20" /></clipPath><clipPath
       clipPathUnits="userSpaceOnUse"
       id="clipPath26"><path
         d="m 18,54 756,0 0,504 -756,0 0,-504 z"
         id="path28" /></clipPath><clipPath
       clipPathUnits="userSpaceOnUse"
       id="clipPath34"><path
         d="m 18,54 756,0 0,504 -756,0 0,-504 z"
         id="path36" /></clipPath><clipPath
       clipPathUnits="userSpaceOnUse"
       id="clipPath44"><path
         d="m 18,54 756,0 0,504 -756,0 0,-504 z"
         id="path46" /></clipPath><clipPath
       clipPathUnits="userSpaceOnUse"
       id="clipPath52"><path
         d="m 62.42,101.33 346.79,0 0,407.76 -346.79,0 0,-407.76 z"
         id="path54" /></clipPath><clipPath
       clipPathUnits="userSpaceOnUse"
       id="clipPath136"><path
         d="m 18,54 756,0 0,504 -756,0 0,-504 z"
         id="path138" /></clipPath><clipPath
       clipPathUnits="userSpaceOnUse"
       id="clipPath144"><path
         d="m 412.81,101.33 346.79,0 0,407.76 -346.79,0 0,-407.76 z"
         id="path146" /></clipPath><clipPath
       clipPathUnits="userSpaceOnUse"
       id="clipPath232"><path
         d="m 18,54 756,0 0,504 -756,0 0,-504 z"
         id="path234" /></clipPath><clipPath
       clipPathUnits="userSpaceOnUse"
       id="clipPath240"><path
         d="m 18,54 756,0 0,504 -756,0 0,-504 z"
         id="path242" /></clipPath><clipPath
       clipPathUnits="userSpaceOnUse"
       id="clipPath254"><path
         d="m 18,54 756,0 0,504 -756,0 0,-504 z"
         id="path256" /></clipPath><clipPath
       clipPathUnits="userSpaceOnUse"
       id="clipPath262"><path
         d="m 18,54 756,0 0,504 -756,0 0,-504 z"
         id="path264" /></clipPath><clipPath
       clipPathUnits="userSpaceOnUse"
       id="clipPath276"><path
         d="m 18,54 756,0 0,504 -756,0 0,-504 z"
         id="path278" /></clipPath><clipPath
       clipPathUnits="userSpaceOnUse"
       id="clipPath284"><path
         d="m 18,54 756,0 0,504 -756,0 0,-504 z"
         id="path286" /></clipPath><clipPath
       clipPathUnits="userSpaceOnUse"
       id="clipPath292"><path
         d="m 18,54 756,0 0,504 -756,0 0,-504 z"
         id="path294" /></clipPath><clipPath
       clipPathUnits="userSpaceOnUse"
       id="clipPath316"><path
         d="m 18,54 756,0 0,504 -756,0 0,-504 z"
         id="path318" /></clipPath><clipPath
       clipPathUnits="userSpaceOnUse"
       id="clipPath324"><path
         d="m 18,54 756,0 0,504 -756,0 0,-504 z"
         id="path326" /></clipPath><clipPath
       clipPathUnits="userSpaceOnUse"
       id="clipPath340"><path
         d="m 18,54 756,0 0,504 -756,0 0,-504 z"
         id="path342" /></clipPath><clipPath
       clipPathUnits="userSpaceOnUse"
       id="clipPath348"><path
         d="m 18,54 756,0 0,504 -756,0 0,-504 z"
         id="path350" /></clipPath><clipPath
       clipPathUnits="userSpaceOnUse"
       id="clipPath356"><path
         d="m 18,54 756,0 0,504 -756,0 0,-504 z"
         id="path358" /></clipPath><clipPath
       clipPathUnits="userSpaceOnUse"
       id="clipPath364"><path
         d="m 18,54 756,0 0,504 -756,0 0,-504 z"
         id="path366" /></clipPath><clipPath
       clipPathUnits="userSpaceOnUse"
       id="clipPath372"><path
         d="m 18,54 756,0 0,504 -756,0 0,-504 z"
         id="path374" /></clipPath><clipPath
       clipPathUnits="userSpaceOnUse"
       id="clipPath380"><path
         d="m 18,54 756,0 0,504 -756,0 0,-504 z"
         id="path382" /></clipPath><clipPath
       clipPathUnits="userSpaceOnUse"
       id="clipPath388"><path
         d="m 18,54 756,0 0,504 -756,0 0,-504 z"
         id="path390" /></clipPath><clipPath
       clipPathUnits="userSpaceOnUse"
       id="clipPath396"><path
         d="m 18,54 756,0 0,504 -756,0 0,-504 z"
         id="path398" /></clipPath><clipPath
       clipPathUnits="userSpaceOnUse"
       id="clipPath412"><path
         d="m 18,54 756,0 0,504 -756,0 0,-504 z"
         id="path414" /></clipPath><clipPath
       clipPathUnits="userSpaceOnUse"
       id="clipPath420"><path
         d="m 18,54 756,0 0,504 -756,0 0,-504 z"
         id="path422" /></clipPath><clipPath
       clipPathUnits="userSpaceOnUse"
       id="clipPath444"><path
         d="m 18,54 756,0 0,504 -756,0 0,-504 z"
         id="path446" /></clipPath><clipPath
       clipPathUnits="userSpaceOnUse"
       id="clipPath452"><path
         d="m 18,54 756,0 0,504 -756,0 0,-504 z"
         id="path454" /></clipPath><clipPath
       clipPathUnits="userSpaceOnUse"
       id="clipPath460"><path
         d="m 18,54 756,0 0,504 -756,0 0,-504 z"
         id="path462" /></clipPath><clipPath
       clipPathUnits="userSpaceOnUse"
       id="clipPath468"><path
         d="m 18,54 756,0 0,504 -756,0 0,-504 z"
         id="path470" /></clipPath><clipPath
       clipPathUnits="userSpaceOnUse"
       id="clipPath476"><path
         d="m 18,54 756,0 0,504 -756,0 0,-504 z"
         id="path478" /></clipPath><clipPath
       clipPathUnits="userSpaceOnUse"
       id="clipPath484"><path
         d="m 18,54 756,0 0,504 -756,0 0,-504 z"
         id="path486" /></clipPath><clipPath
       clipPathUnits="userSpaceOnUse"
       id="clipPath500"><path
         d="m 18,54 756,0 0,504 -756,0 0,-504 z"
         id="path502" /></clipPath><clipPath
       clipPathUnits="userSpaceOnUse"
       id="clipPath508"><path
         d="m 18,54 756,0 0,504 -756,0 0,-504 z"
         id="path510" /></clipPath><clipPath
       clipPathUnits="userSpaceOnUse"
       id="clipPath532"><path
         d="m 18,54 756,0 0,504 -756,0 0,-504 z"
         id="path534" /></clipPath><clipPath
       clipPathUnits="userSpaceOnUse"
       id="clipPath540"><path
         d="m 18,54 756,0 0,504 -756,0 0,-504 z"
         id="path542" /></clipPath><clipPath
       clipPathUnits="userSpaceOnUse"
       id="clipPath548"><path
         d="m 18,54 756,0 0,504 -756,0 0,-504 z"
         id="path550" /></clipPath><clipPath
       clipPathUnits="userSpaceOnUse"
       id="clipPath556"><path
         d="m 18,54 756,0 0,504 -756,0 0,-504 z"
         id="path558" /></clipPath><clipPath
       clipPathUnits="userSpaceOnUse"
       id="clipPath564"><path
         d="m 18,54 756,0 0,504 -756,0 0,-504 z"
         id="path566" /></clipPath><clipPath
       clipPathUnits="userSpaceOnUse"
       id="clipPath576"><path
         d="m 18,54 756,0 0,504 -756,0 0,-504 z"
         id="path578" /></clipPath><clipPath
       clipPathUnits="userSpaceOnUse"
       id="clipPath584"><path
         d="m 18,54 756,0 0,504 -756,0 0,-504 z"
         id="path586" /></clipPath><clipPath
       clipPathUnits="userSpaceOnUse"
       id="clipPath596"><path
         d="m 18,54 756,0 0,504 -756,0 0,-504 z"
         id="path598" /></clipPath><clipPath
       clipPathUnits="userSpaceOnUse"
       id="clipPath604"><path
         d="m 18,54 756,0 0,504 -756,0 0,-504 z"
         id="path606" /></clipPath><clipPath
       clipPathUnits="userSpaceOnUse"
       id="clipPath616"><path
         d="m 18,54 756,0 0,504 -756,0 0,-504 z"
         id="path618" /></clipPath><clipPath
       clipPathUnits="userSpaceOnUse"
       id="clipPath624"><path
         d="m 18,54 756,0 0,504 -756,0 0,-504 z"
         id="path626" /></clipPath></defs><sodipodi:namedview
     pagecolor="#ffffff"
     bordercolor="#666666"
     borderopacity="1"
     objecttolerance="10"
     gridtolerance="10"
     guidetolerance="10"
     inkscape:pageopacity="0"
     inkscape:pageshadow="2"
     inkscape:window-width="1920"
     inkscape:window-height="1031"
     id="namedview4"
     showgrid="false"
     inkscape:zoom="1.2339869"
     inkscape:cx="522.15902"
     inkscape:cy="483.97173"
     inkscape:window-x="0"
     inkscape:window-y="29"
     inkscape:window-maximized="1"
     inkscape:current-layer="g10" /><g
     id="g10"
     inkscape:groupmode="layer"
     inkscape:label="fig_Adaptation"
     transform="matrix(1.25,0,0,-1.25,0,765)"><g
       id="g12" /><g
       id="g14"><g
         id="g16"
         clip-path="url(#clipPath18)" /></g><g
       id="g22"><g
         id="g24"
         clip-path="url(#clipPath26)" /></g><g
       id="g30"><g
         id="g32"
         clip-path="url(#clipPath34)"><path
           d="m 18,54 756,0 0,504 -756,0 0,-504 z"
           style="fill:#ffffff;fill-opacity:1;fill-rule:nonzero;stroke:#ffffff;stroke-opacity:1;stroke-width:1.06;stroke-linecap:round;stroke-linejoin:round;stroke-miterlimit:10;stroke-dasharray:none"
           id="path38" /></g></g><g
       id="g40"><g
         id="g42"
         clip-path="url(#clipPath44)" /></g><g
       id="g48"><g
         id="g50"
         clip-path="url(#clipPath52)"><path
           d="m 62.42,101.33 346.79,0 0,407.76 -346.79,0 0,-407.76 z"
           style="fill:#e5e5e5;fill-opacity:1;fill-rule:nonzero;stroke:none"
           id="path56" /><path
           d="m 62.42,411.13 346.79,0"
           style="fill:none;stroke:#f2f2f2;stroke-opacity:1;stroke-width:0.53;stroke-linecap:butt;stroke-linejoin:round;stroke-miterlimit:10;stroke-dasharray:none"
           id="path58" /><path
           d="m 62.42,305.22 346.79,0"
           style="fill:none;stroke:#f2f2f2;stroke-opacity:1;stroke-width:0.53;stroke-linecap:butt;stroke-linejoin:round;stroke-miterlimit:10;stroke-dasharray:none"
           id="path60" /><path
           d="m 62.42,199.3 346.79,0"
           style="fill:none;stroke:#f2f2f2;stroke-opacity:1;stroke-width:0.53;stroke-linecap:butt;stroke-linejoin:round;stroke-miterlimit:10;stroke-dasharray:none"
           id="path62" /><path
           d="m 119.59,101.33 0,407.77"
           style="fill:none;stroke:#f2f2f2;stroke-opacity:1;stroke-width:0.53;stroke-linecap:butt;stroke-linejoin:round;stroke-miterlimit:10;stroke-dasharray:none"
           id="path64" /><path
           d="m 229.13,101.33 0,407.77"
           style="fill:none;stroke:#f2f2f2;stroke-opacity:1;stroke-width:0.53;stroke-linecap:butt;stroke-linejoin:round;stroke-miterlimit:10;stroke-dasharray:none"
           id="path66" /><path
           d="m 338.67,101.33 0,407.77"
           style="fill:none;stroke:#f2f2f2;stroke-opacity:1;stroke-width:0.53;stroke-linecap:butt;stroke-linejoin:round;stroke-miterlimit:10;stroke-dasharray:none"
           id="path68" /><path
           d="m 62.42,464.08 346.79,0"
           style="fill:none;stroke:#ffffff;stroke-opacity:1;stroke-width:1.06;stroke-linecap:butt;stroke-linejoin:round;stroke-miterlimit:10;stroke-dasharray:none"
           id="path70" /><path
           d="m 62.42,358.17 346.79,0"
           style="fill:none;stroke:#ffffff;stroke-opacity:1;stroke-width:1.06;stroke-linecap:butt;stroke-linejoin:round;stroke-miterlimit:10;stroke-dasharray:none"
           id="path72" /><path
           d="m 62.42,252.26 346.79,0"
           style="fill:none;stroke:#ffffff;stroke-opacity:1;stroke-width:1.06;stroke-linecap:butt;stroke-linejoin:round;stroke-miterlimit:10;stroke-dasharray:none"
           id="path74" /><path
           d="m 62.42,146.35 346.79,0"
           style="fill:none;stroke:#ffffff;stroke-opacity:1;stroke-width:1.06;stroke-linecap:butt;stroke-linejoin:round;stroke-miterlimit:10;stroke-dasharray:none"
           id="path76" /><path
           d="m 64.81,101.33 0,407.77"
           style="fill:none;stroke:#ffffff;stroke-opacity:1;stroke-width:1.06;stroke-linecap:butt;stroke-linejoin:round;stroke-miterlimit:10;stroke-dasharray:none"
           id="path78" /><path
           d="m 174.36,101.33 0,407.77"
           style="fill:none;stroke:#ffffff;stroke-opacity:1;stroke-width:1.06;stroke-linecap:butt;stroke-linejoin:round;stroke-miterlimit:10;stroke-dasharray:none"
           id="path80" /><path
           d="m 283.9,101.33 0,407.77"
           style="fill:none;stroke:#ffffff;stroke-opacity:1;stroke-width:1.06;stroke-linecap:butt;stroke-linejoin:round;stroke-miterlimit:10;stroke-dasharray:none"
           id="path82" /><path
           d="m 393.45,101.33 0,407.77"
           style="fill:none;stroke:#ffffff;stroke-opacity:1;stroke-width:1.06;stroke-linecap:butt;stroke-linejoin:round;stroke-miterlimit:10;stroke-dasharray:none"
           id="path84" /><path
           d="m 185.31,119.87 208.13,0 0,52.96 -208.13,0 0,-52.96 z"
           style="fill:#333333;fill-opacity:1;fill-rule:nonzero;stroke:none"
           id="path86" /><path
           d="m 218.18,225.78 175.27,0 0,52.96 -175.27,0 0,-52.96 z"
           style="fill:#333333;fill-opacity:1;fill-rule:nonzero;stroke:none"
           id="path88" /><path
           d="m 283.9,331.69 109.54,0 0,52.96 -109.54,0 0,-52.96 z"
           style="fill:#333333;fill-opacity:1;fill-rule:nonzero;stroke:none"
           id="path90" /><path
           d="m 251.04,437.61 142.41,0 0,52.96 -142.41,0 0,-52.96 z"
           style="fill:#333333;fill-opacity:1;fill-rule:nonzero;stroke:none"
           id="path92" /><path
           d="m 306.13,453.49 0,21.18"
           style="fill:none;stroke:#000000;stroke-opacity:1;stroke-width:1.06;stroke-linecap:butt;stroke-linejoin:round;stroke-miterlimit:1;stroke-dasharray:none"
           id="path94" /><path
           d="m 306.13,464.08 -110.18,0"
           style="fill:none;stroke:#000000;stroke-opacity:1;stroke-width:1.06;stroke-linecap:butt;stroke-linejoin:round;stroke-miterlimit:1;stroke-dasharray:none"
           id="path96" /><path
           d="m 195.95,453.49 0,21.18"
           style="fill:none;stroke:#000000;stroke-opacity:1;stroke-width:1.06;stroke-linecap:butt;stroke-linejoin:round;stroke-miterlimit:1;stroke-dasharray:none"
           id="path98" /><path
           d="m 343.06,347.58 0,21.18"
           style="fill:none;stroke:#000000;stroke-opacity:1;stroke-width:1.06;stroke-linecap:butt;stroke-linejoin:round;stroke-miterlimit:1;stroke-dasharray:none"
           id="path100" /><path
           d="m 343.06,358.17 -118.31,0"
           style="fill:none;stroke:#000000;stroke-opacity:1;stroke-width:1.06;stroke-linecap:butt;stroke-linejoin:round;stroke-miterlimit:1;stroke-dasharray:none"
           id="path102" /><path
           d="m 224.75,347.58 0,21.18"
           style="fill:none;stroke:#000000;stroke-opacity:1;stroke-width:1.06;stroke-linecap:butt;stroke-linejoin:round;stroke-miterlimit:1;stroke-dasharray:none"
           id="path104" /><path
           d="m 286.76,241.67 0,21.18"
           style="fill:none;stroke:#000000;stroke-opacity:1;stroke-width:1.06;stroke-linecap:butt;stroke-linejoin:round;stroke-miterlimit:1;stroke-dasharray:none"
           id="path106" /><path
           d="m 286.76,252.26 -137.17,0"
           style="fill:none;stroke:#000000;stroke-opacity:1;stroke-width:1.06;stroke-linecap:butt;stroke-linejoin:round;stroke-miterlimit:1;stroke-dasharray:none"
           id="path108" /><path
           d="m 149.59,241.67 0,21.18"
           style="fill:none;stroke:#000000;stroke-opacity:1;stroke-width:1.06;stroke-linecap:butt;stroke-linejoin:round;stroke-miterlimit:1;stroke-dasharray:none"
           id="path110" /><path
           d="m 250.71,135.76 0,21.18"
           style="fill:none;stroke:#000000;stroke-opacity:1;stroke-width:1.06;stroke-linecap:butt;stroke-linejoin:round;stroke-miterlimit:1;stroke-dasharray:none"
           id="path112" /><path
           d="m 250.71,146.35 -130.79,0"
           style="fill:none;stroke:#000000;stroke-opacity:1;stroke-width:1.06;stroke-linecap:butt;stroke-linejoin:round;stroke-miterlimit:1;stroke-dasharray:none"
           id="path114" /><path
           d="m 119.92,135.76 0,21.18"
           style="fill:none;stroke:#000000;stroke-opacity:1;stroke-width:1.06;stroke-linecap:butt;stroke-linejoin:round;stroke-miterlimit:1;stroke-dasharray:none"
           id="path116" /><text
           transform="matrix(1,0,0,-1,168.59,456.15)"
           id="text118"><tspan
             style="fill:#000000;fill-opacity:0.702;fill-rule:nonzero;stroke:none;font-family:Helvetica;font-variant:normal;font-weight:normal;font-size:28;writing-mode:lr;-inkscape-font-specification:Helvetica"
             x="0"
             y="0"
             id="tspan120">*</tspan></text>
<text
           transform="matrix(1,0,0,-1,122.24,244.33)"
           id="text122"><tspan
             style="fill:#000000;fill-opacity:0.702;fill-rule:nonzero;stroke:none;font-family:Helvetica;font-variant:normal;font-weight:normal;font-size:28;writing-mode:lr;-inkscape-font-specification:Helvetica"
             x="0"
             y="0"
             id="tspan124">*</tspan></text>
<text
           transform="matrix(1,0,0,-1,92.56,138.41)"
           id="text126"><tspan
             style="fill:#000000;fill-opacity:0.702;fill-rule:nonzero;stroke:none;font-family:Helvetica;font-variant:normal;font-weight:normal;font-size:28;writing-mode:lr;-inkscape-font-specification:Helvetica"
             x="0"
             y="0"
             id="tspan128">*</tspan></text>
<path
           d="m 393.45,101.33 0,407.77"
           style="fill:none;stroke:#000000;stroke-opacity:1;stroke-width:1.06;stroke-linecap:butt;stroke-linejoin:round;stroke-miterlimit:10;stroke-dasharray:none"
           id="path130" /></g></g><g
       id="g132"><g
         id="g134"
         clip-path="url(#clipPath136)" /></g><g
       id="g140"><g
         id="g142"
         clip-path="url(#clipPath144)"><path
           d="m 412.81,101.33 346.79,0 0,407.76 -346.79,0 0,-407.76 z"
           style="fill:#e5e5e5;fill-opacity:1;fill-rule:nonzero;stroke:none"
           id="path148" /><path
           d="m 412.81,411.13 346.79,0"
           style="fill:none;stroke:#f2f2f2;stroke-opacity:1;stroke-width:0.53;stroke-linecap:butt;stroke-linejoin:round;stroke-miterlimit:10;stroke-dasharray:none"
           id="path150" /><path
           d="m 412.81,305.22 346.79,0"
           style="fill:none;stroke:#f2f2f2;stroke-opacity:1;stroke-width:0.53;stroke-linecap:butt;stroke-linejoin:round;stroke-miterlimit:10;stroke-dasharray:none"
           id="path152" /><path
           d="m 412.81,199.3 346.79,0"
           style="fill:none;stroke:#f2f2f2;stroke-opacity:1;stroke-width:0.53;stroke-linecap:butt;stroke-linejoin:round;stroke-miterlimit:10;stroke-dasharray:none"
           id="path154" /><path
           d="m 469.98,101.33 0,407.77"
           style="fill:none;stroke:#f2f2f2;stroke-opacity:1;stroke-width:0.53;stroke-linecap:butt;stroke-linejoin:round;stroke-miterlimit:10;stroke-dasharray:none"
           id="path156" /><path
           d="m 579.52,101.33 0,407.77"
           style="fill:none;stroke:#f2f2f2;stroke-opacity:1;stroke-width:0.53;stroke-linecap:butt;stroke-linejoin:round;stroke-miterlimit:10;stroke-dasharray:none"
           id="path158" /><path
           d="m 689.06,101.33 0,407.77"
           style="fill:none;stroke:#f2f2f2;stroke-opacity:1;stroke-width:0.53;stroke-linecap:butt;stroke-linejoin:round;stroke-miterlimit:10;stroke-dasharray:none"
           id="path160" /><path
           d="m 412.81,464.08 346.79,0"
           style="fill:none;stroke:#ffffff;stroke-opacity:1;stroke-width:1.06;stroke-linecap:butt;stroke-linejoin:round;stroke-miterlimit:10;stroke-dasharray:none"
           id="path162" /><path
           d="m 412.81,358.17 346.79,0"
           style="fill:none;stroke:#ffffff;stroke-opacity:1;stroke-width:1.06;stroke-linecap:butt;stroke-linejoin:round;stroke-miterlimit:10;stroke-dasharray:none"
           id="path164" /><path
           d="m 412.81,252.26 346.79,0"
           style="fill:none;stroke:#ffffff;stroke-opacity:1;stroke-width:1.06;stroke-linecap:butt;stroke-linejoin:round;stroke-miterlimit:10;stroke-dasharray:none"
           id="path166" /><path
           d="m 412.81,146.35 346.79,0"
           style="fill:none;stroke:#ffffff;stroke-opacity:1;stroke-width:1.06;stroke-linecap:butt;stroke-linejoin:round;stroke-miterlimit:10;stroke-dasharray:none"
           id="path168" /><path
           d="m 415.2,101.33 0,407.77"
           style="fill:none;stroke:#ffffff;stroke-opacity:1;stroke-width:1.06;stroke-linecap:butt;stroke-linejoin:round;stroke-miterlimit:10;stroke-dasharray:none"
           id="path170" /><path
           d="m 524.75,101.33 0,407.77"
           style="fill:none;stroke:#ffffff;stroke-opacity:1;stroke-width:1.06;stroke-linecap:butt;stroke-linejoin:round;stroke-miterlimit:10;stroke-dasharray:none"
           id="path172" /><path
           d="m 634.29,101.33 0,407.77"
           style="fill:none;stroke:#ffffff;stroke-opacity:1;stroke-width:1.06;stroke-linecap:butt;stroke-linejoin:round;stroke-miterlimit:10;stroke-dasharray:none"
           id="path174" /><path
           d="m 743.84,101.33 0,407.77"
           style="fill:none;stroke:#ffffff;stroke-opacity:1;stroke-width:1.06;stroke-linecap:butt;stroke-linejoin:round;stroke-miterlimit:10;stroke-dasharray:none"
           id="path176" /><path
           d="m 491.89,119.87 251.95,0 0,52.96 -251.95,0 0,-52.96 z"
           style="fill:#333333;fill-opacity:1;fill-rule:nonzero;stroke:none"
           id="path178" /><path
           d="m 535.7,225.78 208.13,0 0,52.96 -208.13,0 0,-52.96 z"
           style="fill:#333333;fill-opacity:1;fill-rule:nonzero;stroke:none"
           id="path180" /><path
           d="m 524.75,331.69 219.09,0 0,52.96 -219.09,0 0,-52.96 z"
           style="fill:#333333;fill-opacity:1;fill-rule:nonzero;stroke:none"
           id="path182" /><path
           d="m 612.38,437.61 131.45,0 0,52.96 -131.45,0 0,-52.96 z"
           style="fill:#333333;fill-opacity:1;fill-rule:nonzero;stroke:none"
           id="path184" /><path
           d="m 639.4,453.49 0,21.18"
           style="fill:none;stroke:#000000;stroke-opacity:1;stroke-width:1.06;stroke-linecap:butt;stroke-linejoin:round;stroke-miterlimit:1;stroke-dasharray:none"
           id="path186" /><path
           d="m 639.4,464.08 -54.03,0"
           style="fill:none;stroke:#000000;stroke-opacity:1;stroke-width:1.06;stroke-linecap:butt;stroke-linejoin:round;stroke-miterlimit:1;stroke-dasharray:none"
           id="path188" /><path
           d="m 585.37,453.49 0,21.18"
           style="fill:none;stroke:#000000;stroke-opacity:1;stroke-width:1.06;stroke-linecap:butt;stroke-linejoin:round;stroke-miterlimit:1;stroke-dasharray:none"
           id="path190" /><path
           d="m 559.44,347.58 0,21.18"
           style="fill:none;stroke:#000000;stroke-opacity:1;stroke-width:1.06;stroke-linecap:butt;stroke-linejoin:round;stroke-miterlimit:1;stroke-dasharray:none"
           id="path192" /><path
           d="m 559.44,358.17 -69.38,0"
           style="fill:none;stroke:#000000;stroke-opacity:1;stroke-width:1.06;stroke-linecap:butt;stroke-linejoin:round;stroke-miterlimit:1;stroke-dasharray:none"
           id="path194" /><path
           d="m 490.06,347.58 0,21.18"
           style="fill:none;stroke:#000000;stroke-opacity:1;stroke-width:1.06;stroke-linecap:butt;stroke-linejoin:round;stroke-miterlimit:1;stroke-dasharray:none"
           id="path196" /><path
           d="m 565.33,241.67 0,21.18"
           style="fill:none;stroke:#000000;stroke-opacity:1;stroke-width:1.06;stroke-linecap:butt;stroke-linejoin:round;stroke-miterlimit:1;stroke-dasharray:none"
           id="path198" /><path
           d="m 565.33,252.26 -59.25,0"
           style="fill:none;stroke:#000000;stroke-opacity:1;stroke-width:1.06;stroke-linecap:butt;stroke-linejoin:round;stroke-miterlimit:1;stroke-dasharray:none"
           id="path200" /><path
           d="m 506.08,241.67 0,21.18"
           style="fill:none;stroke:#000000;stroke-opacity:1;stroke-width:1.06;stroke-linecap:butt;stroke-linejoin:round;stroke-miterlimit:1;stroke-dasharray:none"
           id="path202" /><path
           d="m 533.29,135.76 0,21.18"
           style="fill:none;stroke:#000000;stroke-opacity:1;stroke-width:1.06;stroke-linecap:butt;stroke-linejoin:round;stroke-miterlimit:1;stroke-dasharray:none"
           id="path204" /><path
           d="m 533.29,146.35 -82.81,0"
           style="fill:none;stroke:#000000;stroke-opacity:1;stroke-width:1.06;stroke-linecap:butt;stroke-linejoin:round;stroke-miterlimit:1;stroke-dasharray:none"
           id="path206" /><path
           d="m 450.48,135.76 0,21.18"
           style="fill:none;stroke:#000000;stroke-opacity:1;stroke-width:1.06;stroke-linecap:butt;stroke-linejoin:round;stroke-miterlimit:1;stroke-dasharray:none"
           id="path208" /><text
           transform="matrix(1,0,0,-1,558.02,456.15)"
           id="text210"><tspan
             style="fill:#000000;fill-opacity:0.702;fill-rule:nonzero;stroke:none;font-family:Helvetica;font-variant:normal;font-weight:normal;font-size:28;writing-mode:lr;-inkscape-font-specification:Helvetica"
             x="0"
             y="0"
             id="tspan212">*</tspan></text>
<text
           transform="matrix(1,0,0,-1,462.7,350.24)"
           id="text214"><tspan
             style="fill:#000000;fill-opacity:0.702;fill-rule:nonzero;stroke:none;font-family:Helvetica;font-variant:normal;font-weight:normal;font-size:28;writing-mode:lr;-inkscape-font-specification:Helvetica"
             x="0"
             y="0"
             id="tspan216">*</tspan></text>
<text
           transform="matrix(1,0,0,-1,478.72,244.33)"
           id="text218"><tspan
             style="fill:#000000;fill-opacity:0.702;fill-rule:nonzero;stroke:none;font-family:Helvetica;font-variant:normal;font-weight:normal;font-size:28;writing-mode:lr;-inkscape-font-specification:Helvetica"
             x="0"
             y="0"
             id="tspan220">*</tspan></text>
<text
           transform="matrix(1,0,0,-1,423.13,138.41)"
           id="text222"><tspan
             style="fill:#000000;fill-opacity:0.702;fill-rule:nonzero;stroke:none;font-family:Helvetica;font-variant:normal;font-weight:normal;font-size:28;writing-mode:lr;-inkscape-font-specification:Helvetica"
             x="0"
             y="0"
             id="tspan224">*</tspan></text>
<path
           d="m 743.84,101.33 0,407.77"
           style="fill:none;stroke:#000000;stroke-opacity:1;stroke-width:1.06;stroke-linecap:butt;stroke-linejoin:round;stroke-miterlimit:10;stroke-dasharray:none"
           id="path226" /></g></g><g
       id="g228"><g
         id="g230"
         clip-path="url(#clipPath232)" /></g><g
       id="g236"><g
         id="g238"
         clip-path="url(#clipPath240)"><path
           d="m 62.42,509.1 346.79,0 0,14.38 -346.79,0 0,-14.38 z"
           style="fill:#cccccc;fill-opacity:1;fill-rule:nonzero;stroke:none"
           id="path244" /><text
           transform="matrix(1,0,0,-1,213.6,512.7)"
           id="text246"><tspan
             style="fill:#000000;fill-opacity:1;fill-rule:nonzero;stroke:none;font-family:Helvetica;font-variant:normal;font-weight:normal;font-size:10;writing-mode:lr;-inkscape-font-specification:Helvetica"
             x="0 4.91 10.47 15.47 18.25 21.03 25.94 29.42 31.64 37.2 39.42"
             y="0"
             sodipodi:role="line"
             id="tspan248">Test Trials</tspan></text>
</g></g><g
       id="g250"><g
         id="g252"
         clip-path="url(#clipPath254)" /></g><g
       id="g258"><g
         id="g260"
         clip-path="url(#clipPath262)"><path
           d="m 412.81,509.1 346.79,0 0,14.38 -346.79,0 0,-14.38 z"
           style="fill:#cccccc;fill-opacity:1;fill-rule:nonzero;stroke:none"
           id="path266" /><text
           transform="matrix(1,0,0,-1,567.56,512.7)"
           id="text268"><tspan
             style="fill:#000000;fill-opacity:1;fill-rule:nonzero;stroke:none;font-family:Helvetica;font-variant:normal;font-weight:normal;font-size:10;writing-mode:lr;-inkscape-font-specification:Helvetica"
             x="0 6.67 8.89 11.11 13.89 18.8 22.28 24.5 30.06 32.28"
             y="0"
             sodipodi:role="line"
             id="tspan270">All Trials</tspan></text>
</g></g><g
       id="g272"><g
         id="g274"
         clip-path="url(#clipPath276)" /></g><g
       id="g280"><g
         id="g282"
         clip-path="url(#clipPath284)" /></g><g
       id="g288"
       transform="translate(-3.2415254,0)"><g
         id="g290"
         clip-path="url(#clipPath292)"><text
           transform="matrix(1,0,0,-1,45.32,457.62)"
           id="text296"><tspan
             style="font-size:18px;font-variant:normal;font-weight:normal;writing-mode:lr-tb;fill:#7f7f7f;fill-opacity:1;fill-rule:nonzero;stroke:none;font-family:Helvetica;-inkscape-font-specification:Helvetica"
             x="0"
             y="0"
             id="tspan298">1</tspan></text>
<text
           transform="matrix(1,0,0,-1,45.32,351.71)"
           id="text300"><tspan
             style="font-size:18px;font-variant:normal;font-weight:normal;writing-mode:lr-tb;fill:#7f7f7f;fill-opacity:1;fill-rule:nonzero;stroke:none;font-family:Helvetica;-inkscape-font-specification:Helvetica"
             x="0"
             y="0"
             id="tspan302">2</tspan></text>
<text
           transform="matrix(1,0,0,-1,45.32,245.8)"
           id="text304"><tspan
             style="font-size:18px;font-variant:normal;font-weight:normal;writing-mode:lr-tb;fill:#7f7f7f;fill-opacity:1;fill-rule:nonzero;stroke:none;font-family:Helvetica;-inkscape-font-specification:Helvetica"
             x="0"
             y="0"
             id="tspan306">3</tspan></text>
<text
           transform="matrix(1,0,0,-1,45.32,139.89)"
           id="text308"><tspan
             style="font-size:18px;font-variant:normal;font-weight:normal;writing-mode:lr-tb;fill:#7f7f7f;fill-opacity:1;fill-rule:nonzero;stroke:none;font-family:Helvetica;-inkscape-font-specification:Helvetica"
             x="0"
             y="0"
             id="tspan310">4</tspan></text>
</g></g><g
       id="g312"><g
         id="g314"
         clip-path="url(#clipPath316)" /></g><g
       id="g320"><g
         id="g322"
         clip-path="url(#clipPath324)"><path
           d="m 58.17,464.08 4.25,0"
           style="fill:none;stroke:#7f7f7f;stroke-opacity:1;stroke-width:1.06;stroke-linecap:butt;stroke-linejoin:round;stroke-miterlimit:10;stroke-dasharray:none"
           id="path328" /><path
           d="m 58.17,358.17 4.25,0"
           style="fill:none;stroke:#7f7f7f;stroke-opacity:1;stroke-width:1.06;stroke-linecap:butt;stroke-linejoin:round;stroke-miterlimit:10;stroke-dasharray:none"
           id="path330" /><path
           d="m 58.17,252.26 4.25,0"
           style="fill:none;stroke:#7f7f7f;stroke-opacity:1;stroke-width:1.06;stroke-linecap:butt;stroke-linejoin:round;stroke-miterlimit:10;stroke-dasharray:none"
           id="path332" /><path
           d="m 58.17,146.35 4.25,0"
           style="fill:none;stroke:#7f7f7f;stroke-opacity:1;stroke-width:1.06;stroke-linecap:butt;stroke-linejoin:round;stroke-miterlimit:10;stroke-dasharray:none"
           id="path334" /></g></g><g
       id="g336"><g
         id="g338"
         clip-path="url(#clipPath340)" /></g><g
       id="g344"><g
         id="g346"
         clip-path="url(#clipPath348)" /></g><g
       id="g352"><g
         id="g354"
         clip-path="url(#clipPath356)" /></g><g
       id="g360"><g
         id="g362"
         clip-path="url(#clipPath364)" /></g><g
       id="g368"><g
         id="g370"
         clip-path="url(#clipPath372)" /></g><g
       id="g376"><g
         id="g378"
         clip-path="url(#clipPath380)" /></g><g
       id="g384"><g
         id="g386"
         clip-path="url(#clipPath388)" /></g><g
       id="g392"><g
         id="g394"
         clip-path="url(#clipPath396)"><path
           d="m 64.81,97.08 0,4.25"
           style="fill:none;stroke:#7f7f7f;stroke-opacity:1;stroke-width:1.06;stroke-linecap:butt;stroke-linejoin:round;stroke-miterlimit:10;stroke-dasharray:none"
           id="path400" /><path
           d="m 174.36,97.08 0,4.25"
           style="fill:none;stroke:#7f7f7f;stroke-opacity:1;stroke-width:1.06;stroke-linecap:butt;stroke-linejoin:round;stroke-miterlimit:10;stroke-dasharray:none"
           id="path402" /><path
           d="m 283.9,97.08 0,4.25"
           style="fill:none;stroke:#7f7f7f;stroke-opacity:1;stroke-width:1.06;stroke-linecap:butt;stroke-linejoin:round;stroke-miterlimit:10;stroke-dasharray:none"
           id="path404" /><path
           d="m 393.45,97.08 0,4.25"
           style="fill:none;stroke:#7f7f7f;stroke-opacity:1;stroke-width:1.06;stroke-linecap:butt;stroke-linejoin:round;stroke-miterlimit:10;stroke-dasharray:none"
           id="path406" /></g></g><g
       id="g408"><g
         id="g410"
         clip-path="url(#clipPath412)" /></g><g
       id="g416"
       transform="translate(3.2415254,-4.5381356)"><g
         id="g418"
         clip-path="url(#clipPath420)"><text
           transform="matrix(1,0,0,-1,47.05,81.32)"
           id="text424"><tspan
             style="font-size:18px;font-variant:normal;font-weight:normal;writing-mode:lr-tb;fill:#7f7f7f;fill-opacity:1;fill-rule:nonzero;stroke:none;font-family:Helvetica;-inkscape-font-specification:Helvetica"
             x="0 10.512 20.52 25.524"
             y="0"
             sodipodi:role="line"
             id="tspan426">−0.3</tspan></text>
<text
           transform="matrix(1,0,0,-1,156.59,81.32)"
           id="text428"><tspan
             style="font-size:18px;font-variant:normal;font-weight:normal;writing-mode:lr-tb;fill:#7f7f7f;fill-opacity:1;fill-rule:nonzero;stroke:none;font-family:Helvetica;-inkscape-font-specification:Helvetica"
             x="0 10.512 20.52 25.524"
             y="0"
             sodipodi:role="line"
             id="tspan430">−0.2</tspan></text>
<text
           transform="matrix(1,0,0,-1,266.14,81.32)"
           id="text432"><tspan
             style="font-size:18px;font-variant:normal;font-weight:normal;writing-mode:lr-tb;fill:#7f7f7f;fill-opacity:1;fill-rule:nonzero;stroke:none;font-family:Helvetica;-inkscape-font-specification:Helvetica"
             x="0 10.512 20.52 25.524"
             y="0"
             sodipodi:role="line"
             id="tspan434">−0.1</tspan></text>
<text
           transform="matrix(1,0,0,-1,380.94,81.32)"
           id="text436"><tspan
             style="font-size:18px;font-variant:normal;font-weight:normal;writing-mode:lr-tb;fill:#7f7f7f;fill-opacity:1;fill-rule:nonzero;stroke:none;font-family:Helvetica;-inkscape-font-specification:Helvetica"
             x="0"
             y="0"
             sodipodi:role="line"
             id="tspan438">0</tspan></text>
</g></g><g
       id="g440"><g
         id="g442"
         clip-path="url(#clipPath444)" /></g><g
       id="g448"><g
         id="g450"
         clip-path="url(#clipPath452)" /></g><g
       id="g456"><g
         id="g458"
         clip-path="url(#clipPath460)" /></g><g
       id="g464"><g
         id="g466"
         clip-path="url(#clipPath468)" /></g><g
       id="g472"><g
         id="g474"
         clip-path="url(#clipPath476)" /></g><g
       id="g480"><g
         id="g482"
         clip-path="url(#clipPath484)"><path
           d="m 415.2,97.08 0,4.25"
           style="fill:none;stroke:#7f7f7f;stroke-opacity:1;stroke-width:1.06;stroke-linecap:butt;stroke-linejoin:round;stroke-miterlimit:10;stroke-dasharray:none"
           id="path488" /><path
           d="m 524.75,97.08 0,4.25"
           style="fill:none;stroke:#7f7f7f;stroke-opacity:1;stroke-width:1.06;stroke-linecap:butt;stroke-linejoin:round;stroke-miterlimit:10;stroke-dasharray:none"
           id="path490" /><path
           d="m 634.29,97.08 0,4.25"
           style="fill:none;stroke:#7f7f7f;stroke-opacity:1;stroke-width:1.06;stroke-linecap:butt;stroke-linejoin:round;stroke-miterlimit:10;stroke-dasharray:none"
           id="path492" /><path
           d="m 743.84,97.08 0,4.25"
           style="fill:none;stroke:#7f7f7f;stroke-opacity:1;stroke-width:1.06;stroke-linecap:butt;stroke-linejoin:round;stroke-miterlimit:10;stroke-dasharray:none"
           id="path494" /></g></g><g
       id="g496"><g
         id="g498"
         clip-path="url(#clipPath500)" /></g><g
       id="g504"
       transform="translate(3.2415254,-4.5381356)"><g
         id="g506"
         clip-path="url(#clipPath508)"><text
           transform="matrix(1,0,0,-1,397.44,81.32)"
           id="text512"><tspan
             style="font-size:18px;font-variant:normal;font-weight:normal;writing-mode:lr-tb;fill:#7f7f7f;fill-opacity:1;fill-rule:nonzero;stroke:none;font-family:Helvetica;-inkscape-font-specification:Helvetica"
             x="0 10.512 20.52 25.524"
             y="0"
             sodipodi:role="line"
             id="tspan514">−0.3</tspan></text>
<text
           transform="matrix(1,0,0,-1,506.98,81.32)"
           id="text516"><tspan
             style="font-size:18px;font-variant:normal;font-weight:normal;writing-mode:lr-tb;fill:#7f7f7f;fill-opacity:1;fill-rule:nonzero;stroke:none;font-family:Helvetica;-inkscape-font-specification:Helvetica"
             x="0 10.512 20.52 25.524"
             y="0"
             sodipodi:role="line"
             id="tspan518">−0.2</tspan></text>
<text
           transform="matrix(1,0,0,-1,616.53,81.32)"
           id="text520"><tspan
             style="font-size:18px;font-variant:normal;font-weight:normal;writing-mode:lr-tb;fill:#7f7f7f;fill-opacity:1;fill-rule:nonzero;stroke:none;font-family:Helvetica;-inkscape-font-specification:Helvetica"
             x="0 10.512 20.52 25.524"
             y="0"
             sodipodi:role="line"
             id="tspan522">−0.1</tspan></text>
<text
           transform="matrix(1,0,0,-1,731.33,81.32)"
           id="text524"><tspan
             style="font-size:18px;font-variant:normal;font-weight:normal;writing-mode:lr-tb;fill:#7f7f7f;fill-opacity:1;fill-rule:nonzero;stroke:none;font-family:Helvetica;-inkscape-font-specification:Helvetica"
             x="0"
             y="0"
             sodipodi:role="line"
             id="tspan526">0</tspan></text>
</g></g><g
       id="g528"><g
         id="g530"
         clip-path="url(#clipPath532)" /></g><g
       id="g536"><g
         id="g538"
         clip-path="url(#clipPath540)" /></g><g
       id="g544"><g
         id="g546"
         clip-path="url(#clipPath548)" /></g><g
       id="g552"><g
         id="g554"
         clip-path="url(#clipPath556)" /></g><g
       id="g560"
       transform="translate(116.69492,-39.54661)"><g
         id="g562"
         clip-path="url(#clipPath564)"><text
           transform="matrix(1,0,0,-1,186.17,64.8)"
           id="text568"><tspan
             style="font-size:18px;font-variant:normal;font-weight:normal;writing-mode:lr-tb;fill:#000000;fill-opacity:1;fill-rule:nonzero;stroke:none;font-family:Helvetica;-inkscape-font-specification:Helvetica"
             x="0 12.006 22.014 31.014 40.014 50.021999 60.029999 64.026001 73.026001 78.029999 92.033997 102.042 106.038 116.046 121.05 127.044 140.03999 150.048 160.056 170.064 180.07201 190.08 195.084 200.088 206.082 216.09 231.084 236.088 248.09399 258.10199 267.10199 277.10999 281.10599 285.10199 295.10999 305.11801 310.12201 320.634 325.638 337.64401 342.64801 352.65601 362.664 372.672 382.67999 388.67401 398.68201 403.686 415.69199 421.686 427.67999 437.68799 443.68201"
             y="0"
             sodipodi:role="line"
             id="tspan570">Saccadic Gain (Change from Baseline + Standard Error)</tspan></text>
</g></g><g
       id="g572"><g
         id="g574"
         clip-path="url(#clipPath576)" /></g><g
       id="g580"
       transform="translate(-12.966102,-1.9449153)"><g
         id="g582"
         clip-path="url(#clipPath584)"><text
           transform="matrix(0,1,1,0,41.72,283.21)"
           id="text588"><tspan
             style="font-size:18px;font-variant:normal;font-weight:normal;writing-mode:lr-tb;fill:#000000;fill-opacity:1;fill-rule:nonzero;stroke:none;font-family:Helvetica;-inkscape-font-specification:Helvetica"
             x="0 12.006 16.002001 26.01 35.009998"
             y="0"
             sodipodi:role="line"
             id="tspan590">Block</tspan></text>
</g></g><g
       id="g592"><g
         id="g594"
         clip-path="url(#clipPath596)" /></g><g
       id="g600"
       transform="translate(1.9449153,31.118644)"><g
         id="g602"
         clip-path="url(#clipPath604)"><text
           transform="matrix(1,0,0,-1,293.71,527.08)"
           id="text608"><tspan
             style="font-size:18px;font-variant:normal;font-weight:normal;writing-mode:lr-tb;fill:#000000;fill-opacity:1;fill-rule:nonzero;stroke:none;font-family:Helvetica;-inkscape-font-specification:Helvetica"
             x="0 12.006 17.01 21.474001 31.482 40.481998 45.486 50.490002 60.498001 65.501999 70.505997 82.512001 92.519997 101.52 110.52 120.528 130.536 134.532 143.532 148.536 160.54201 170.55 180.558 190.56599 195.57001 205.578 210.582 214.578 224.586"
             y="0"
             sodipodi:role="line"
             id="tspan610">Effect of Saccadic Adaptation</tspan></text>
</g></g><g
       id="g612"><g
         id="g614"
         clip-path="url(#clipPath616)" /></g><g
       id="g620"><g
         id="g622"
         clip-path="url(#clipPath624)" /></g></g></svg>