<?xml version="1.0" encoding="UTF-8" standalone="no"?>
<!-- Created with Inkscape (http://www.inkscape.org/) -->

<svg
   xmlns:dc="http://purl.org/dc/elements/1.1/"
   xmlns:cc="http://creativecommons.org/ns#"
   xmlns:rdf="http://www.w3.org/1999/02/22-rdf-syntax-ns#"
   xmlns:svg="http://www.w3.org/2000/svg"
   xmlns="http://www.w3.org/2000/svg"
   xmlns:sodipodi="http://sodipodi.sourceforge.net/DTD/sodipodi-0.dtd"
   xmlns:inkscape="http://www.inkscape.org/namespaces/inkscape"
   id="svg2"
   version="1.1"
   inkscape:version="0.48.5 r10040"
   width="968.77342"
   height="712.74803"
   xml:space="preserve"
   sodipodi:docname="fig_TE_right.pdf"><metadata
     id="metadata8"><rdf:RDF><cc:Work
         rdf:about=""><dc:format>image/svg+xml</dc:format><dc:type
           rdf:resource="http://purl.org/dc/dcmitype/StillImage" /><dc:title></dc:title></cc:Work></rdf:RDF></metadata><defs
     id="defs6"><clipPath
       clipPathUnits="userSpaceOnUse"
       id="clipPath18"><path
         d="m 19.02,522.316 378,0 0,-504 -378,0 0,504 z"
         id="path20" /></clipPath><clipPath
       clipPathUnits="userSpaceOnUse"
       id="clipPath28"><path
         d="m 18,18 380,0 0,506 -380,0 0,-506 z"
         id="path30" /></clipPath><clipPath
       clipPathUnits="userSpaceOnUse"
       id="clipPath40"><path
         d="m 88.457,473.417 73.352,0 0,-194.891 -73.352,0 0,194.891 z"
         id="path42" /></clipPath><clipPath
       clipPathUnits="userSpaceOnUse"
       id="clipPath50"><path
         d="m 88,279 74,0 0,196 -74,0 0,-196 z"
         id="path52" /></clipPath><clipPath
       clipPathUnits="userSpaceOnUse"
       id="clipPath90"><path
         d="m 165.41,473.417 73.348,0 0,-194.891 -73.348,0 0,194.891 z"
         id="path92" /></clipPath><clipPath
       clipPathUnits="userSpaceOnUse"
       id="clipPath100"><path
         d="m 165,279 74,0 0,196 -74,0 0,-196 z"
         id="path102" /></clipPath><clipPath
       clipPathUnits="userSpaceOnUse"
       id="clipPath140"><path
         d="m 242.359,473.417 73.348,0 0,-194.891 -73.348,0 0,194.891 z"
         id="path142" /></clipPath><clipPath
       clipPathUnits="userSpaceOnUse"
       id="clipPath150"><path
         d="m 242,279 74,0 0,196 -74,0 0,-196 z"
         id="path152" /></clipPath><clipPath
       clipPathUnits="userSpaceOnUse"
       id="clipPath190"><path
         d="m 88.457,260.538 73.352,0 0,-194.891 -73.352,0 0,194.891 z"
         id="path192" /></clipPath><clipPath
       clipPathUnits="userSpaceOnUse"
       id="clipPath200"><path
         d="m 88,66 74,0 0,196 -74,0 0,-196 z"
         id="path202" /></clipPath><clipPath
       clipPathUnits="userSpaceOnUse"
       id="clipPath240"><path
         d="m 165.41,260.538 73.348,0 0,-194.891 -73.348,0 0,194.891 z"
         id="path242" /></clipPath><clipPath
       clipPathUnits="userSpaceOnUse"
       id="clipPath250"><path
         d="m 165,66 74,0 0,196 -74,0 0,-196 z"
         id="path252" /></clipPath><clipPath
       clipPathUnits="userSpaceOnUse"
       id="clipPath292"><path
         d="m 242.359,260.538 73.348,0 0,-194.891 -73.348,0 0,194.891 z"
         id="path294" /></clipPath><clipPath
       clipPathUnits="userSpaceOnUse"
       id="clipPath302"><path
         d="m 242,66 74,0 0,196 -74,0 0,-196 z"
         id="path304" /></clipPath><clipPath
       clipPathUnits="userSpaceOnUse"
       id="clipPath342"><path
         d="m 19.02,522.316 756,0 0,-504 -756,0 0,504 z"
         id="path344" /></clipPath><clipPath
       clipPathUnits="userSpaceOnUse"
       id="clipPath352"><path
         d="m 88,474 74,0 0,15 -74,0 0,-15 z"
         id="path354" /></clipPath><clipPath
       clipPathUnits="userSpaceOnUse"
       id="clipPath370"><path
         d="m 165,474 74,0 0,15 -74,0 0,-15 z"
         id="path372" /></clipPath><clipPath
       clipPathUnits="userSpaceOnUse"
       id="clipPath388"><path
         d="m 242,474 74,0 0,15 -74,0 0,-15 z"
         id="path390" /></clipPath><clipPath
       clipPathUnits="userSpaceOnUse"
       id="clipPath406"><path
         d="m 88,261 74,0 0,15 -74,0 0,-15 z"
         id="path408" /></clipPath><clipPath
       clipPathUnits="userSpaceOnUse"
       id="clipPath424"><path
         d="m 165,261 74,0 0,15 -74,0 0,-15 z"
         id="path426" /></clipPath><clipPath
       clipPathUnits="userSpaceOnUse"
       id="clipPath442"><path
         d="m 242,261 74,0 0,15 -74,0 0,-15 z"
         id="path444" /></clipPath><clipPath
       clipPathUnits="userSpaceOnUse"
       id="clipPath458"><path
         d="m 9.699,521.718 756,0 0,-504 -756,0 0,504 z"
         id="path460" /></clipPath><clipPath
       clipPathUnits="userSpaceOnUse"
       id="clipPath468"><path
         d="m 37,280 35,0 0,185 -35,0 0,-185 z"
         id="path470" /></clipPath><clipPath
       clipPathUnits="userSpaceOnUse"
       id="clipPath490"><path
         d="m 19.02,522.316 756,0 0,-504 -756,0 0,504 z"
         id="path492" /></clipPath><clipPath
       clipPathUnits="userSpaceOnUse"
       id="clipPath500"><path
         d="m 84,287 5,0 0,173 -5,0 0,-173 z"
         id="path502" /></clipPath><clipPath
       clipPathUnits="userSpaceOnUse"
       id="clipPath520"><path
         d="m 9.699,521.718 756,0 0,-504 -756,0 0,504 z"
         id="path522" /></clipPath><clipPath
       clipPathUnits="userSpaceOnUse"
       id="clipPath530"><path
         d="m 37,67 35,0 0,185 -35,0 0,-185 z"
         id="path532" /></clipPath><clipPath
       clipPathUnits="userSpaceOnUse"
       id="clipPath552"><path
         d="m 19.02,522.316 756,0 0,-504 -756,0 0,504 z"
         id="path554" /></clipPath><clipPath
       clipPathUnits="userSpaceOnUse"
       id="clipPath562"><path
         d="m 84,74 5,0 0,173 -5,0 0,-173 z"
         id="path564" /></clipPath><clipPath
       clipPathUnits="userSpaceOnUse"
       id="clipPath584"><path
         d="m 101,62 48,0 0,5 -48,0 0,-5 z"
         id="path586" /></clipPath><clipPath
       clipPathUnits="userSpaceOnUse"
       id="clipPath602"><path
         d="m 99,46 54,0 0,14 -54,0 0,-14 z"
         id="path604" /></clipPath><clipPath
       clipPathUnits="userSpaceOnUse"
       id="clipPath618"><path
         d="m 178,62 48,0 0,5 -48,0 0,-5 z"
         id="path620" /></clipPath><clipPath
       clipPathUnits="userSpaceOnUse"
       id="clipPath636"><path
         d="m 176,46 54,0 0,14 -54,0 0,-14 z"
         id="path638" /></clipPath><clipPath
       clipPathUnits="userSpaceOnUse"
       id="clipPath652"><path
         d="m 255,62 48,0 0,5 -48,0 0,-5 z"
         id="path654" /></clipPath><clipPath
       clipPathUnits="userSpaceOnUse"
       id="clipPath670"><path
         d="m 252,46 55,0 0,14 -55,0 0,-14 z"
         id="path672" /></clipPath><clipPath
       clipPathUnits="userSpaceOnUse"
       id="clipPath686"><path
         d="m 325,243 48,0 0,55 -48,0 0,-55 z"
         id="path688" /></clipPath><clipPath
       clipPathUnits="userSpaceOnUse"
       id="clipPath700"><path
         d="m 330,286 33,0 0,8 -33,0 0,-8 z"
         id="path702" /></clipPath><clipPath
       clipPathUnits="userSpaceOnUse"
       id="clipPath716"><path
         d="m 329,264 19,0 0,19 -19,0 0,-19 z"
         id="path718" /></clipPath><clipPath
       clipPathUnits="userSpaceOnUse"
       id="clipPath730"><path
         d="m 329,264 19,0 0,18 -19,0 0,-18 z"
         id="path732" /></clipPath><clipPath
       clipPathUnits="userSpaceOnUse"
       id="clipPath744"><path
         d="m 329,246 19,0 0,20 -19,0 0,-20 z"
         id="path746" /></clipPath><clipPath
       clipPathUnits="userSpaceOnUse"
       id="clipPath758"><path
         d="m 329,247 19,0 0,18 -19,0 0,-18 z"
         id="path760" /></clipPath><clipPath
       clipPathUnits="userSpaceOnUse"
       id="clipPath772"><path
         d="m 349,267 15,0 0,9 -15,0 0,-9 z"
         id="path774" /></clipPath><clipPath
       clipPathUnits="userSpaceOnUse"
       id="clipPath788"><path
         d="m 349,250 20,0 0,10 -20,0 0,-10 z"
         id="path790" /></clipPath><clipPath
       clipPathUnits="userSpaceOnUse"
       id="clipPath802"><path
         d="m 397.02,522.316 378,0 0,-504 -378,0 0,504 z"
         id="path804" /></clipPath><clipPath
       clipPathUnits="userSpaceOnUse"
       id="clipPath812"><path
         d="m 396,18 380,0 0,506 -380,0 0,-506 z"
         id="path814" /></clipPath><clipPath
       clipPathUnits="userSpaceOnUse"
       id="clipPath824"><path
         d="m 451.449,487.796 152.789,0 0,-14.379 -152.789,0 0,14.379 z"
         id="path826" /></clipPath><clipPath
       clipPathUnits="userSpaceOnUse"
       id="clipPath834"><path
         d="m 451,474 154,0 0,15 -154,0 0,-15 z"
         id="path836" /></clipPath><clipPath
       clipPathUnits="userSpaceOnUse"
       id="clipPath850"><path
         d="m 607.828,487.796 152.789,0 0,-14.379 -152.789,0 0,14.379 z"
         id="path852" /></clipPath><clipPath
       clipPathUnits="userSpaceOnUse"
       id="clipPath860"><path
         d="m 607,474 154,0 0,15 -154,0 0,-15 z"
         id="path862" /></clipPath><clipPath
       clipPathUnits="userSpaceOnUse"
       id="clipPath876"><path
         d="m 451.449,473.405 152.789,0 0,-407.758 -152.789,0 0,407.758 z"
         id="path878" /></clipPath><clipPath
       clipPathUnits="userSpaceOnUse"
       id="clipPath886"><path
         d="m 451,66 154,0 0,409 -154,0 0,-409 z"
         id="path888" /></clipPath><clipPath
       clipPathUnits="userSpaceOnUse"
       id="clipPath946"><path
         d="m 607.828,473.405 152.789,0 0,-407.758 -152.789,0 0,407.758 z"
         id="path948" /></clipPath><clipPath
       clipPathUnits="userSpaceOnUse"
       id="clipPath956"><path
         d="m 607,66 154,0 0,409 -154,0 0,-409 z"
         id="path958" /></clipPath><clipPath
       clipPathUnits="userSpaceOnUse"
       id="clipPath1016"><path
         d="m 13.992,523.058 756,0 0,-504 -756,0 0,504 z"
         id="path1018" /></clipPath><clipPath
       clipPathUnits="userSpaceOnUse"
       id="clipPath1026"><path
         d="m 419,140 20,0 0,341 -20,0 0,-341 z"
         id="path1028" /></clipPath><clipPath
       clipPathUnits="userSpaceOnUse"
       id="clipPath1046"><path
         d="m 19.02,522.316 756,0 0,-504 -756,0 0,504 z"
         id="path1048" /></clipPath><clipPath
       clipPathUnits="userSpaceOnUse"
       id="clipPath1056"><path
         d="m 447,146 5,0 0,329 -5,0 0,-329 z"
         id="path1058" /></clipPath><clipPath
       clipPathUnits="userSpaceOnUse"
       id="clipPath1076"><path
         d="m 457,62 141,0 0,5 -141,0 0,-5 z"
         id="path1078" /></clipPath><clipPath
       clipPathUnits="userSpaceOnUse"
       id="clipPath1094"><path
         d="m 18.371,519.077 756,0 0,-504 -756,0 0,504 z"
         id="path1096" /></clipPath><clipPath
       clipPathUnits="userSpaceOnUse"
       id="clipPath1104"><path
         d="m 453,42 153,0 0,14 -153,0 0,-14 z"
         id="path1106" /></clipPath><clipPath
       clipPathUnits="userSpaceOnUse"
       id="clipPath1118"><path
         d="m 19.02,522.316 756,0 0,-504 -756,0 0,504 z"
         id="path1120" /></clipPath><clipPath
       clipPathUnits="userSpaceOnUse"
       id="clipPath1128"><path
         d="m 614,62 141,0 0,5 -141,0 0,-5 z"
         id="path1130" /></clipPath><clipPath
       clipPathUnits="userSpaceOnUse"
       id="clipPath1146"><path
         d="m 18.371,519.077 756,0 0,-504 -756,0 0,504 z"
         id="path1148" /></clipPath><clipPath
       clipPathUnits="userSpaceOnUse"
       id="clipPath1156"><path
         d="m 609,42 154,0 0,14 -154,0 0,-14 z"
         id="path1158" /></clipPath></defs><sodipodi:namedview
     pagecolor="#ffffff"
     bordercolor="#666666"
     borderopacity="1"
     objecttolerance="10"
     gridtolerance="10"
     guidetolerance="10"
     inkscape:pageopacity="0"
     inkscape:pageshadow="2"
     inkscape:window-width="1920"
     inkscape:window-height="1031"
     id="namedview4"
     showgrid="true"
     inkscape:zoom="2.6489024"
     inkscape:cx="709.10222"
     inkscape:cy="342.20102"
     inkscape:window-x="0"
     inkscape:window-y="29"
     inkscape:window-maximized="1"
     inkscape:current-layer="g10"><inkscape:grid
       type="xygrid"
       id="grid4227" /></sodipodi:namedview><g
     id="g10"
     inkscape:groupmode="layer"
     inkscape:label="fig_TE"
     transform="matrix(1.25,0,0,-1.25,0,712.74803)"><g
       id="g12" /><g
       id="g798"><g
         id="g800"
         clip-path="url(#clipPath802)"><g
           id="g806"
           transform="translate(0,-0.801575)"><g
             id="g808"><g
               id="g810"
               clip-path="url(#clipPath812)"><g
                 id="g816"><path
                   d="m 397.02,523.117 378,0 0,-504 -378,0 0,504 z"
                   style="fill:#ffffff;fill-opacity:1;fill-rule:nonzero;stroke:#ffffff;stroke-opacity:1;stroke-width:1.06;stroke-linecap:round;stroke-linejoin:round;stroke-miterlimit:10;stroke-dasharray:none"
                   id="path818" /></g></g></g></g></g></g><g
       id="g820"><g
         id="g822"
         clip-path="url(#clipPath824)"><g
           id="g828"
           transform="translate(0,-0.801575)"><g
             id="g830"><g
               id="g832"
               clip-path="url(#clipPath834)"><g
                 id="g838"><path
                   d="m 451.449,488.598 152.789,0 0,-14.379 -152.789,0 0,14.379 z"
                   style="fill:#cccccc;fill-opacity:1;fill-rule:nonzero;stroke:none"
                   id="path840" /><text
                   transform="matrix(1,0,0,-1,520.60875,477.81874)"
                   id="text842"><tspan
                     style="font-size:10px;font-variant:normal;font-weight:normal;writing-mode:lr-tb;fill:#000000;fill-opacity:1;fill-rule:nonzero;stroke:none;font-family:TeXGyreHeros;-inkscape-font-specification:TeXGyreHeros-Regular"
                     x="0"
                     y="0"
                     sodipodi:role="line"
                     id="tspan844" /></text>
</g></g></g></g></g></g><g
       id="g846"><g
         id="g848"
         clip-path="url(#clipPath850)"><g
           id="g854"
           transform="translate(0,-0.801575)"><g
             id="g856"><g
               id="g858"
               clip-path="url(#clipPath860)"><g
                 id="g864"><path
                   d="m 607.828,488.598 152.789,0 0,-14.379 -152.789,0 0,14.379 z"
                   style="fill:#cccccc;fill-opacity:1;fill-rule:nonzero;stroke:none"
                   id="path866" /><text
                   transform="matrix(1,0,0,-1,674.77875,477.81874)"
                   id="text868"><tspan
                     style="font-size:10px;font-variant:normal;font-weight:normal;writing-mode:lr-tb;fill:#000000;fill-opacity:1;fill-rule:nonzero;stroke:none;font-family:TeXGyreHeros;-inkscape-font-specification:TeXGyreHeros-Regular"
                     x="0"
                     y="0"
                     sodipodi:role="line"
                     id="tspan870" /></text>
</g></g></g></g></g></g><g
       id="g872"><g
         id="g874"
         clip-path="url(#clipPath876)"><g
           id="g880"
           transform="translate(0,-0.801575)"><g
             id="g882"><g
               id="g884"
               clip-path="url(#clipPath886)"><g
                 id="g890"><path
                   d="m 451.449,474.207 152.789,0 0,-407.758 -152.789,0 0,407.758 z"
                   style="fill:#e5e5e5;fill-opacity:1;fill-rule:nonzero;stroke:none"
                   id="path892" /><path
                   d="m 451.449,87.328 152.781,0"
                   style="fill:none;stroke:#f2f2f2;stroke-opacity:1;stroke-width:0.53;stroke-linecap:butt;stroke-linejoin:round;stroke-miterlimit:10;stroke-dasharray:none"
                   id="path894" /><path
                   d="m 451.449,117.027 152.781,0"
                   style="fill:none;stroke:#f2f2f2;stroke-opacity:1;stroke-width:0.53;stroke-linecap:butt;stroke-linejoin:round;stroke-miterlimit:10;stroke-dasharray:none"
                   id="path896" /><path
                   d="m 451.449,176.449 152.781,0"
                   style="fill:none;stroke:#f2f2f2;stroke-opacity:1;stroke-width:0.53;stroke-linecap:butt;stroke-linejoin:round;stroke-miterlimit:10;stroke-dasharray:none"
                   id="path898" /><path
                   d="m 451.449,250.707 152.781,0"
                   style="fill:none;stroke:#f2f2f2;stroke-opacity:1;stroke-width:0.53;stroke-linecap:butt;stroke-linejoin:round;stroke-miterlimit:10;stroke-dasharray:none"
                   id="path900" /><path
                   d="m 451.449,384.391 152.781,0"
                   style="fill:none;stroke:#f2f2f2;stroke-opacity:1;stroke-width:0.53;stroke-linecap:butt;stroke-linejoin:round;stroke-miterlimit:10;stroke-dasharray:none"
                   id="path902" /><path
                   d="m 471.02,66.449 0,407.77"
                   style="fill:none;stroke:#f2f2f2;stroke-opacity:1;stroke-width:0.53;stroke-linecap:butt;stroke-linejoin:round;stroke-miterlimit:10;stroke-dasharray:none"
                   id="path904" /><path
                   d="m 502.59,66.449 0,407.77"
                   style="fill:none;stroke:#f2f2f2;stroke-opacity:1;stroke-width:0.53;stroke-linecap:butt;stroke-linejoin:round;stroke-miterlimit:10;stroke-dasharray:none"
                   id="path906" /><path
                   d="m 559.41,66.449 0,407.77"
                   style="fill:none;stroke:#f2f2f2;stroke-opacity:1;stroke-width:0.53;stroke-linecap:butt;stroke-linejoin:round;stroke-miterlimit:10;stroke-dasharray:none"
                   id="path908" /><path
                   d="m 451.449,146.738 152.781,0"
                   style="fill:none;stroke:#ffffff;stroke-opacity:1;stroke-width:1.06;stroke-linecap:butt;stroke-linejoin:round;stroke-miterlimit:10;stroke-dasharray:none"
                   id="path910" /><path
                   d="m 451.449,206.148 152.781,0"
                   style="fill:none;stroke:#ffffff;stroke-opacity:1;stroke-width:1.06;stroke-linecap:butt;stroke-linejoin:round;stroke-miterlimit:10;stroke-dasharray:none"
                   id="path912" /><path
                   d="m 451.449,295.27 152.781,0"
                   style="fill:none;stroke:#ffffff;stroke-opacity:1;stroke-width:1.06;stroke-linecap:butt;stroke-linejoin:round;stroke-miterlimit:10;stroke-dasharray:none"
                   id="path914" /><path
                   d="m 451.449,473.5 152.781,0"
                   style="fill:none;stroke:#ffffff;stroke-opacity:1;stroke-width:1.06;stroke-linecap:butt;stroke-linejoin:round;stroke-miterlimit:10;stroke-dasharray:none"
                   id="path916" /><path
                   d="m 458.391,66.449 0,407.77"
                   style="fill:none;stroke:#ffffff;stroke-opacity:1;stroke-width:1.06;stroke-linecap:butt;stroke-linejoin:round;stroke-miterlimit:10;stroke-dasharray:none"
                   id="path918" /><path
                   d="m 483.648,66.449 0,407.77"
                   style="fill:none;stroke:#ffffff;stroke-opacity:1;stroke-width:1.06;stroke-linecap:butt;stroke-linejoin:round;stroke-miterlimit:10;stroke-dasharray:none"
                   id="path920" /><path
                   d="m 521.527,66.449 0,407.77"
                   style="fill:none;stroke:#ffffff;stroke-opacity:1;stroke-width:1.06;stroke-linecap:butt;stroke-linejoin:round;stroke-miterlimit:10;stroke-dasharray:none"
                   id="path922" /><path
                   d="m 597.289,66.449 0,407.77"
                   style="fill:none;stroke:#ffffff;stroke-opacity:1;stroke-width:1.06;stroke-linecap:butt;stroke-linejoin:round;stroke-miterlimit:10;stroke-dasharray:none"
                   id="path924" /><path
                   d="m 458.391,134.859 25.257,29.7 37.879,11.89 75.762,11.879"
                   style="fill:none;stroke:#000000;stroke-opacity:1;stroke-width:1.06;stroke-linecap:butt;stroke-linejoin:round;stroke-miterlimit:1;stroke-dasharray:none"
                   id="path926" /><path
                   d="m 458.391,140.797 25.257,47.531 37.879,47.531 75.762,59.411"
                   style="fill:none;stroke:#000000;stroke-opacity:1;stroke-width:1.06;stroke-linecap:butt;stroke-linejoin:round;stroke-miterlimit:1;stroke-dasharray:none"
                   id="path928" /><path
                   d="m 458.391,140.797 25.257,11.883 37.879,17.828 75.762,17.82"
                   style="fill:none;stroke:#000000;stroke-opacity:1;stroke-width:1.06;stroke-linecap:butt;stroke-linejoin:round;stroke-miterlimit:1;stroke-dasharray:none"
                   id="path930" /><path
                   d="m 458.391,122.98 25.257,5.938 37.879,5.941 75.762,11.879"
                   style="fill:none;stroke:#000000;stroke-opacity:1;stroke-width:1.06;stroke-linecap:butt;stroke-linejoin:round;stroke-miterlimit:1;stroke-dasharray:none"
                   id="path932" /><path
                   d="m 458.391,140.797 25.257,11.883 37.879,11.879 75.762,11.89"
                   style="fill:none;stroke:#000000;stroke-opacity:1;stroke-width:1.06;stroke-linecap:butt;stroke-linejoin:round;stroke-miterlimit:1;stroke-dasharray:none"
                   id="path934" /><path
                   d="m 458.391,134.859 25.257,17.821 37.879,5.937 75.762,17.832"
                   style="fill:none;stroke:#000000;stroke-opacity:1;stroke-width:1.06;stroke-linecap:butt;stroke-linejoin:round;stroke-miterlimit:1;stroke-dasharray:none"
                   id="path936" /><path
                   d="m 458.391,155.57 1.757,1.649 1.762,1.5 1.758,1.39 1.75,1.301 1.762,1.238 1.758,1.172 1.761,1.129 1.758,1.09 1.762,1.051 1.75,1.027 1.761,1 1.758,0.992 1.762,0.961 1.758,0.95 1.75,0.929 1.762,0.918 1.757,0.903 1.762,0.89 1.758,0.879 1.762,0.871 1.75,0.86 1.761,0.839 1.758,0.829 1.762,0.832 1.758,0.808 1.75,0.789 1.761,0.793 1.758,0.778 1.762,0.761 1.762,0.758 1.757,0.742 1.75,0.731 1.762,0.718 1.758,0.711 1.762,0.7 1.758,0.691 1.75,0.68 1.761,0.668 1.758,0.66 1.762,0.652 1.761,0.637 1.758,0.633 1.75,0.629 1.762,0.609 1.758,0.602 1.762,0.597 1.757,0.59 1.75,0.582 1.762,0.57 1.758,0.571 1.762,0.55 1.761,0.547 1.758,0.543 1.75,0.539 1.762,0.52 1.758,0.531 1.761,0.508 1.758,0.512 1.75,0.5 1.762,0.488 1.762,0.492 1.757,0.481 1.762,0.476 1.758,0.473 1.75,0.469 1.762,0.461 1.758,0.449 1.761,0.449 1.758,0.449 1.75,0.442 3.523,0.859 1.758,0.422 1.762,0.418 1.758,0.422 1.75,0.41 1.762,0.41 1.757,0.398 1.762,0.399 0,-39.59 -1.762,-0.16 -1.757,-0.149 -1.762,-0.16 -1.75,-0.16 -1.758,-0.16 -1.762,-0.168 -1.758,-0.16 -1.761,-0.172 -1.762,-0.18 -1.75,-0.179 -1.758,-0.168 -1.761,-0.192 -1.758,-0.179 -1.762,-0.192 -1.75,-0.199 -1.758,-0.191 -1.762,-0.208 -1.757,-0.203 -1.762,-0.207 -1.762,-0.211 -1.75,-0.218 -1.758,-0.223 -1.761,-0.23 -1.758,-0.231 -1.762,-0.238 -1.75,-0.25 -1.758,-0.25 -1.761,-0.25 -1.762,-0.262 -1.758,-0.269 -1.762,-0.278 -1.75,-0.281 -1.757,-0.289 -1.762,-0.301 -1.758,-0.309 -1.762,-0.32 -1.75,-0.332 -1.758,-0.34 -1.761,-0.347 -1.762,-0.364 -1.758,-0.367 -1.761,-0.39 -1.75,-0.403 -1.758,-0.418 -1.762,-0.429 -1.758,-0.45 -1.762,-0.472 -1.75,-0.489 -1.757,-0.511 -1.762,-0.539 -1.762,-0.551 -1.758,-0.59 -1.761,-0.621 -1.75,-0.637 -1.758,-0.68 -1.762,-0.722 -1.758,-0.758 -1.761,-0.801 -1.75,-0.851 -1.762,-0.91 -1.758,-0.958 -1.762,-1.023 -1.757,-1.09 -1.762,-1.16 -1.75,-1.25 -1.758,-1.328 -1.762,-1.441 -1.758,-1.547 -1.761,-1.672 -1.75,-1.801 -1.762,-1.961 -1.758,-2.129 -1.761,-2.32 -1.758,-2.551 -1.762,-2.816 -1.75,-3.121 -1.758,-3.493 -1.762,-3.937 -1.757,-4.512 0,43.992 z"
                   style="fill:#999999;fill-opacity:0.4;fill-rule:nonzero;stroke:none"
                   id="path938" /><path
                   d="m 458.391,133.57 1.757,3.078 1.762,2.719 1.758,2.453 1.75,2.207 1.762,2.02 1.758,1.863 1.761,1.731 1.758,1.609 1.762,1.508 1.75,1.41 1.761,1.34 1.758,1.262 1.762,1.199 1.758,1.14 1.75,1.09 1.762,1.051 1.757,0.988 1.762,0.961 1.758,0.918 1.762,0.883 1.75,0.859 1.761,0.821 1.758,0.8 1.762,0.77 1.758,0.738 1.75,0.719 1.761,0.711 1.758,0.68 1.762,0.66 1.762,0.64 1.757,0.629 1.75,0.614 1.762,0.589 1.758,0.579 1.762,0.57 1.758,0.551 1.75,0.55 1.761,0.52 1.758,0.52 1.762,0.507 1.761,0.493 1.758,0.488 1.75,0.472 1.762,0.469 1.758,0.461 1.762,0.438 1.757,0.441 1.75,0.441 1.762,0.418 1.758,0.422 1.762,0.41 1.761,0.399 1.758,0.391 1.75,0.39 1.762,0.387 1.758,0.371 1.761,0.371 1.758,0.371 1.75,0.36 1.762,0.347 1.762,0.352 1.757,0.34 1.762,0.339 1.758,0.34 1.75,0.332 1.762,0.321 1.758,0.316 1.761,0.32 1.758,0.313 1.75,0.308 3.523,0.602 1.758,0.297 1.762,0.293 1.758,0.289 1.75,0.289 1.762,0.281 1.757,0.281 1.762,0.27"
                   style="fill:none;stroke:#3366ff;stroke-opacity:1;stroke-width:1.06;stroke-linecap:butt;stroke-linejoin:round;stroke-miterlimit:1;stroke-dasharray:none"
                   id="path940" /></g></g></g></g></g></g><g
       id="g942"><g
         id="g944"
         clip-path="url(#clipPath946)"><g
           id="g950"
           transform="translate(0,-0.801575)"><g
             id="g952"><g
               id="g954"
               clip-path="url(#clipPath956)"><g
                 id="g960"><path
                   d="m 607.828,474.207 152.789,0 0,-407.758 -152.789,0 0,407.758 z"
                   style="fill:#e5e5e5;fill-opacity:1;fill-rule:nonzero;stroke:none"
                   id="path962" /><path
                   d="m 607.828,87.328 152.789,0"
                   style="fill:none;stroke:#f2f2f2;stroke-opacity:1;stroke-width:0.53;stroke-linecap:butt;stroke-linejoin:round;stroke-miterlimit:10;stroke-dasharray:none"
                   id="path964" /><path
                   d="m 607.828,117.027 152.789,0"
                   style="fill:none;stroke:#f2f2f2;stroke-opacity:1;stroke-width:0.53;stroke-linecap:butt;stroke-linejoin:round;stroke-miterlimit:10;stroke-dasharray:none"
                   id="path966" /><path
                   d="m 607.828,176.449 152.789,0"
                   style="fill:none;stroke:#f2f2f2;stroke-opacity:1;stroke-width:0.53;stroke-linecap:butt;stroke-linejoin:round;stroke-miterlimit:10;stroke-dasharray:none"
                   id="path968" /><path
                   d="m 607.828,250.707 152.789,0"
                   style="fill:none;stroke:#f2f2f2;stroke-opacity:1;stroke-width:0.53;stroke-linecap:butt;stroke-linejoin:round;stroke-miterlimit:10;stroke-dasharray:none"
                   id="path970" /><path
                   d="m 607.828,384.391 152.789,0"
                   style="fill:none;stroke:#f2f2f2;stroke-opacity:1;stroke-width:0.53;stroke-linecap:butt;stroke-linejoin:round;stroke-miterlimit:10;stroke-dasharray:none"
                   id="path972" /><path
                   d="m 627.41,66.449 0,407.77"
                   style="fill:none;stroke:#f2f2f2;stroke-opacity:1;stroke-width:0.53;stroke-linecap:butt;stroke-linejoin:round;stroke-miterlimit:10;stroke-dasharray:none"
                   id="path974" /><path
                   d="m 658.969,66.449 0,407.77"
                   style="fill:none;stroke:#f2f2f2;stroke-opacity:1;stroke-width:0.53;stroke-linecap:butt;stroke-linejoin:round;stroke-miterlimit:10;stroke-dasharray:none"
                   id="path976" /><path
                   d="m 715.789,66.449 0,407.77"
                   style="fill:none;stroke:#f2f2f2;stroke-opacity:1;stroke-width:0.53;stroke-linecap:butt;stroke-linejoin:round;stroke-miterlimit:10;stroke-dasharray:none"
                   id="path978" /><path
                   d="m 607.828,146.738 152.789,0"
                   style="fill:none;stroke:#ffffff;stroke-opacity:1;stroke-width:1.06;stroke-linecap:butt;stroke-linejoin:round;stroke-miterlimit:10;stroke-dasharray:none"
                   id="path980" /><path
                   d="m 607.828,206.148 152.789,0"
                   style="fill:none;stroke:#ffffff;stroke-opacity:1;stroke-width:1.06;stroke-linecap:butt;stroke-linejoin:round;stroke-miterlimit:10;stroke-dasharray:none"
                   id="path982" /><path
                   d="m 607.828,295.27 152.789,0"
                   style="fill:none;stroke:#ffffff;stroke-opacity:1;stroke-width:1.06;stroke-linecap:butt;stroke-linejoin:round;stroke-miterlimit:10;stroke-dasharray:none"
                   id="path984" /><path
                   d="m 607.828,473.5 152.789,0"
                   style="fill:none;stroke:#ffffff;stroke-opacity:1;stroke-width:1.06;stroke-linecap:butt;stroke-linejoin:round;stroke-miterlimit:10;stroke-dasharray:none"
                   id="path986" /><path
                   d="m 614.777,66.449 0,407.77"
                   style="fill:none;stroke:#ffffff;stroke-opacity:1;stroke-width:1.06;stroke-linecap:butt;stroke-linejoin:round;stroke-miterlimit:10;stroke-dasharray:none"
                   id="path988" /><path
                   d="m 640.027,66.449 0,407.77"
                   style="fill:none;stroke:#ffffff;stroke-opacity:1;stroke-width:1.06;stroke-linecap:butt;stroke-linejoin:round;stroke-miterlimit:10;stroke-dasharray:none"
                   id="path990" /><path
                   d="m 677.91,66.449 0,407.77"
                   style="fill:none;stroke:#ffffff;stroke-opacity:1;stroke-width:1.06;stroke-linecap:butt;stroke-linejoin:round;stroke-miterlimit:10;stroke-dasharray:none"
                   id="path992" /><path
                   d="m 753.68,66.449 0,407.77"
                   style="fill:none;stroke:#ffffff;stroke-opacity:1;stroke-width:1.06;stroke-linecap:butt;stroke-linejoin:round;stroke-miterlimit:10;stroke-dasharray:none"
                   id="path994" /><path
                   d="m 614.777,134.859 25.25,11.879 37.883,11.879 75.77,5.942"
                   style="fill:none;stroke:#000000;stroke-opacity:1;stroke-width:1.06;stroke-linecap:butt;stroke-linejoin:round;stroke-miterlimit:1;stroke-dasharray:none"
                   id="path996" /><path
                   d="m 614.777,140.797 25.25,83.183 37.883,83.168 75.77,148.532"
                   style="fill:none;stroke:#000000;stroke-opacity:1;stroke-width:1.06;stroke-linecap:butt;stroke-linejoin:round;stroke-miterlimit:1;stroke-dasharray:none"
                   id="path998" /><path
                   d="m 614.777,152.68 25.25,11.879 37.883,0 75.77,11.89"
                   style="fill:none;stroke:#000000;stroke-opacity:1;stroke-width:1.06;stroke-linecap:butt;stroke-linejoin:round;stroke-miterlimit:1;stroke-dasharray:none"
                   id="path1000" /><path
                   d="m 614.777,122.98 25.25,5.938 37.883,5.941 75.77,17.821"
                   style="fill:none;stroke:#000000;stroke-opacity:1;stroke-width:1.06;stroke-linecap:butt;stroke-linejoin:round;stroke-miterlimit:1;stroke-dasharray:none"
                   id="path1002" /><path
                   d="m 614.777,140.797 25.25,17.82 37.883,11.891 75.77,17.82"
                   style="fill:none;stroke:#000000;stroke-opacity:1;stroke-width:1.06;stroke-linecap:butt;stroke-linejoin:round;stroke-miterlimit:1;stroke-dasharray:none"
                   id="path1004" /><path
                   d="m 614.777,128.918 25.25,11.879 37.883,11.883 75.77,11.879"
                   style="fill:none;stroke:#000000;stroke-opacity:1;stroke-width:1.06;stroke-linecap:butt;stroke-linejoin:round;stroke-miterlimit:1;stroke-dasharray:none"
                   id="path1006" /><path
                   d="m 614.777,178.66 1.762,1.039 1.75,1.02 1.758,1.011 3.523,2 1.758,1.008 1.762,1.02 1.75,1.019 1.758,1.043 1.761,1.059 1.758,1.059 1.762,1.082 1.75,1.089 1.762,1.11 1.757,1.109 1.762,1.121 1.758,1.129 1.762,1.129 1.75,1.141 1.758,1.132 1.761,1.137 1.758,1.141 1.762,1.14 1.75,1.129 1.761,1.133 1.758,1.117 1.762,1.114 1.758,1.109 1.762,1.098 1.75,1.09 1.757,1.082 1.762,1.07 1.758,1.051 1.762,1.047 1.75,1.042 1.761,1.02 1.758,1.02 1.762,1 1.758,0.988 1.761,0.98 1.75,0.969 1.758,0.953 1.762,0.949 1.762,0.93 1.757,0.918 1.75,0.922 1.762,0.898 1.758,0.883 1.762,0.879 1.758,0.871 1.761,0.86 1.75,0.839 1.758,0.84 1.762,0.828 1.761,0.813 1.758,0.808 1.75,0.801 1.762,0.781 1.758,0.778 1.762,0.769 1.757,0.762 1.762,0.758 1.75,0.742 1.758,0.738 1.762,0.723 1.761,0.719 1.758,0.711 1.762,0.711 1.75,0.687 1.758,0.692 1.761,0.679 1.758,0.68 1.762,0.66 1.75,0.66 1.762,0.66 1.757,0.641 1.762,0.641 1.758,0.636 1.762,0.621 0,-84.289 -1.762,-0.101 -1.758,-0.11 -1.762,-0.109 -1.757,-0.109 -1.762,-0.11 -1.75,-0.121 -1.762,-0.121 -1.758,-0.121 -1.761,-0.129 -1.758,-0.129 -1.75,-0.129 -1.762,-0.14 -1.758,-0.141 -1.761,-0.141 -1.762,-0.148 -1.758,-0.152 -1.75,-0.16 -1.762,-0.161 -1.757,-0.168 -1.762,-0.171 -1.758,-0.168 -1.762,-0.18 -1.75,-0.192 -1.758,-0.199 -1.761,-0.199 -1.762,-0.203 -1.758,-0.219 -1.75,-0.219 -1.761,-0.23 -1.758,-0.238 -1.762,-0.25 -1.758,-0.262 -1.762,-0.27 -1.75,-0.281 -1.757,-0.289 -1.762,-0.301 -1.762,-0.32 -1.758,-0.328 -1.75,-0.352 -1.761,-0.371 -1.758,-0.379 -1.762,-0.398 -1.758,-0.422 -1.761,-0.449 -1.75,-0.461 -1.762,-0.5 -1.758,-0.52 -1.762,-0.55 -1.757,-0.59 -1.75,-0.618 -1.762,-0.66 -1.758,-0.703 -1.762,-0.75 -1.758,-0.797 -1.761,-0.851 -1.75,-0.91 -1.762,-0.981 -1.758,-1.051 -1.761,-1.129 -1.758,-1.21 -1.75,-1.309 -1.762,-1.399 -1.758,-1.531 -1.762,-1.64 -1.757,-1.782 -1.762,-1.929 -1.75,-2.098 -1.762,-2.281 -1.758,-2.481 -1.761,-2.711 -1.758,-2.957 -1.75,-3.25 -1.762,-3.57 -1.758,-3.941 -1.761,-4.371 -1.762,-4.868 -1.758,-5.48 -1.75,-6.211 -1.762,-7.141 0,93.672 z"
                   style="fill:#999999;fill-opacity:0.4;fill-rule:nonzero;stroke:none"
                   id="path1008" /><path
                   d="m 614.777,131.82 1.762,4.09 1.75,3.617 1.758,3.243 1.762,2.937 1.761,2.691 1.758,2.469 1.762,2.293 1.75,2.137 1.758,2 1.761,1.883 1.758,1.777 1.762,1.684 1.75,1.589 1.762,1.52 1.757,1.438 1.762,1.39 1.758,1.32 1.762,1.27 1.75,1.223 1.758,1.179 1.761,1.129 1.758,1.098 1.762,1.051 1.75,1.019 1.761,0.992 1.758,0.961 1.762,0.938 1.758,0.902 1.762,0.879 1.75,0.852 1.757,0.839 1.762,0.809 1.758,0.789 1.762,0.77 1.75,0.75 1.761,0.742 1.758,0.707 1.762,0.711 1.758,0.68 1.761,0.671 1.75,0.661 1.758,0.648 1.762,0.629 1.762,0.621 1.757,0.602 1.75,0.597 1.762,0.582 1.758,0.578 1.762,0.563 1.758,0.551 1.761,0.547 1.75,0.531 1.758,0.531 1.762,0.508 1.761,0.512 1.758,0.5 1.75,0.5 1.762,0.48 1.758,0.48 1.762,0.469 1.757,0.461 1.762,0.457 1.75,0.453 1.758,0.438 1.762,0.441 1.761,0.43 1.758,0.43 1.762,0.421 1.75,0.411 1.758,0.406 1.761,0.402 1.758,0.399 1.762,0.402 1.75,0.379 1.762,0.391 1.757,0.378 1.762,0.372 1.758,0.371 1.762,0.367"
                   style="fill:none;stroke:#3366ff;stroke-opacity:1;stroke-width:1.06;stroke-linecap:butt;stroke-linejoin:round;stroke-miterlimit:1;stroke-dasharray:none"
                   id="path1010" /></g></g></g></g></g></g><g
       id="g1012"><g
         id="g1014"
         clip-path="url(#clipPath1016)"><g
           id="g1020"
           transform="translate(0,-0.801575)"><g
             id="g1022"><g
               id="g1024"
               clip-path="url(#clipPath1026)"><g
                 id="g1030"><text
                   transform="matrix(1,0,0,-1,429.32085,141.02111)"
                   id="text1032"><tspan
                     style="fill:#7f7f7f;fill-opacity:1;fill-rule:nonzero;stroke:none;font-family:TeXGyreHeros;font-variant:normal;font-weight:normal;font-size:18;writing-mode:lr;-inkscape-font-specification:TeXGyreHeros-Regular"
                     x="0"
                     y="0"
                     id="tspan1034">5</tspan><tspan
                     style="fill:#7f7f7f;fill-opacity:1;fill-rule:nonzero;stroke:none;font-family:TeXGyreHeros;font-variant:normal;font-weight:normal;font-size:18;writing-mode:lr;-inkscape-font-specification:TeXGyreHeros-Regular"
                     x="-10.009998 -0.001998"
                     y="-59.410008"
                     sodipodi:role="line"
                     id="tspan1036">15</tspan><tspan
                     style="fill:#7f7f7f;fill-opacity:1;fill-rule:nonzero;stroke:none;font-family:TeXGyreHeros;font-variant:normal;font-weight:normal;font-size:18;writing-mode:lr;-inkscape-font-specification:TeXGyreHeros-Regular"
                     x="-10.009998 -0.001998"
                     y="-148.53001"
                     sodipodi:role="line"
                     id="tspan1038">30</tspan><tspan
                     style="fill:#7f7f7f;fill-opacity:1;fill-rule:nonzero;stroke:none;font-family:TeXGyreHeros;font-variant:normal;font-weight:normal;font-size:18;writing-mode:lr;-inkscape-font-specification:TeXGyreHeros-Regular"
                     x="-10.009998 -0.001998"
                     y="-326.76001"
                     sodipodi:role="line"
                     id="tspan1040">60</tspan></text>
</g></g></g></g></g></g><g
       id="g1042"><g
         id="g1044"
         clip-path="url(#clipPath1046)"><g
           id="g1050"
           transform="translate(0,-0.801575)"><g
             id="g1052"><g
               id="g1054"
               clip-path="url(#clipPath1056)"><g
                 id="g1060"><path
                   d="m 447.188,146.738 4.261,0"
                   style="fill:none;stroke:#7f7f7f;stroke-opacity:1;stroke-width:1.06;stroke-linecap:butt;stroke-linejoin:round;stroke-miterlimit:10;stroke-dasharray:none"
                   id="path1062" /><path
                   d="m 447.188,206.148 4.261,0"
                   style="fill:none;stroke:#7f7f7f;stroke-opacity:1;stroke-width:1.06;stroke-linecap:butt;stroke-linejoin:round;stroke-miterlimit:10;stroke-dasharray:none"
                   id="path1064" /><path
                   d="m 447.188,295.27 4.261,0"
                   style="fill:none;stroke:#7f7f7f;stroke-opacity:1;stroke-width:1.06;stroke-linecap:butt;stroke-linejoin:round;stroke-miterlimit:10;stroke-dasharray:none"
                   id="path1066" /><path
                   d="m 447.188,473.5 4.261,0"
                   style="fill:none;stroke:#7f7f7f;stroke-opacity:1;stroke-width:1.06;stroke-linecap:butt;stroke-linejoin:round;stroke-miterlimit:10;stroke-dasharray:none"
                   id="path1068" /></g></g></g></g><g
           id="g1070"
           transform="translate(0,-0.801575)"><g
             id="g1072"><g
               id="g1074"
               clip-path="url(#clipPath1076)"><g
                 id="g1080"><path
                   d="m 458.391,62.199 0,4.25"
                   style="fill:none;stroke:#7f7f7f;stroke-opacity:1;stroke-width:1.06;stroke-linecap:butt;stroke-linejoin:round;stroke-miterlimit:10;stroke-dasharray:none"
                   id="path1082" /><path
                   d="m 483.648,62.199 0,4.25"
                   style="fill:none;stroke:#7f7f7f;stroke-opacity:1;stroke-width:1.06;stroke-linecap:butt;stroke-linejoin:round;stroke-miterlimit:10;stroke-dasharray:none"
                   id="path1084" /><path
                   d="m 521.527,62.199 0,4.25"
                   style="fill:none;stroke:#7f7f7f;stroke-opacity:1;stroke-width:1.06;stroke-linecap:butt;stroke-linejoin:round;stroke-miterlimit:10;stroke-dasharray:none"
                   id="path1086" /><path
                   d="m 597.289,62.199 0,4.25"
                   style="fill:none;stroke:#7f7f7f;stroke-opacity:1;stroke-width:1.06;stroke-linecap:butt;stroke-linejoin:round;stroke-miterlimit:10;stroke-dasharray:none"
                   id="path1088" /></g></g></g></g></g></g><g
       id="g1090"><g
         id="g1092"
         clip-path="url(#clipPath1094)"><g
           id="g1098"
           transform="translate(0,-0.801575)"><g
             id="g1100"><g
               id="g1102"
               clip-path="url(#clipPath1104)"><g
                 id="g1108"><text
                   transform="matrix(1,0,0,-1,452.74045,43.197218)"
                   id="text1110"><tspan
                     style="fill:#7f7f7f;fill-opacity:1;fill-rule:nonzero;stroke:none;font-family:TeXGyreHeros;font-variant:normal;font-weight:normal;font-size:18;writing-mode:lr;-inkscape-font-specification:TeXGyreHeros-Regular"
                     x="0 20.25 30.258 58.14 68.148 133.902 143.91"
                     y="0"
                     sodipodi:role="line"
                     id="tspan1112">5153060</tspan></text>
</g></g></g></g></g></g><g
       id="g1114"><g
         id="g1116"
         clip-path="url(#clipPath1118)"><g
           id="g1122"
           transform="translate(0,-0.801575)"><g
             id="g1124"><g
               id="g1126"
               clip-path="url(#clipPath1128)"><g
                 id="g1132"><path
                   d="m 614.777,62.199 0,4.25"
                   style="fill:none;stroke:#7f7f7f;stroke-opacity:1;stroke-width:1.06;stroke-linecap:butt;stroke-linejoin:round;stroke-miterlimit:10;stroke-dasharray:none"
                   id="path1134" /><path
                   d="m 640.027,62.199 0,4.25"
                   style="fill:none;stroke:#7f7f7f;stroke-opacity:1;stroke-width:1.06;stroke-linecap:butt;stroke-linejoin:round;stroke-miterlimit:10;stroke-dasharray:none"
                   id="path1136" /><path
                   d="m 677.91,62.199 0,4.25"
                   style="fill:none;stroke:#7f7f7f;stroke-opacity:1;stroke-width:1.06;stroke-linecap:butt;stroke-linejoin:round;stroke-miterlimit:10;stroke-dasharray:none"
                   id="path1138" /><path
                   d="m 753.68,62.199 0,4.25"
                   style="fill:none;stroke:#7f7f7f;stroke-opacity:1;stroke-width:1.06;stroke-linecap:butt;stroke-linejoin:round;stroke-miterlimit:10;stroke-dasharray:none"
                   id="path1140" /></g></g></g></g></g></g><g
       id="g1142"><g
         id="g1144"
         clip-path="url(#clipPath1146)"><g
           id="g1150"
           transform="translate(0,-0.801575)"><g
             id="g1152"><g
               id="g1154"
               clip-path="url(#clipPath1156)"><g
                 id="g1160"><text
                   transform="matrix(1,0,0,-1,609.12045,43.197218)"
                   id="text1162"><tspan
                     style="fill:#7f7f7f;fill-opacity:1;fill-rule:nonzero;stroke:none;font-family:TeXGyreHeros;font-variant:normal;font-weight:normal;font-size:18;writing-mode:lr;-inkscape-font-specification:TeXGyreHeros-Regular"
                     x="0 20.25 30.258 58.14 68.148 133.902 143.91"
                     y="0"
                     sodipodi:role="line"
                     id="tspan1164">5153060</tspan></text>
</g></g></g></g></g></g><text
       xml:space="preserve"
       style="font-size:20px;font-style:normal;font-weight:normal;line-height:125%;letter-spacing:0px;word-spacing:0px;fill:#000000;fill-opacity:1;stroke:none;font-family:Sans"
       x="671.62939"
       y="695.6637"
       id="text4173"
       sodipodi:linespacing="125%"
       transform="matrix(0.8,0,0,-0.8,0,570.19842)"><tspan
         sodipodi:role="line"
         id="tspan4175"
         x="671.62939"
         y="695.6637">True Trial Duration</tspan></text>
<text
       xml:space="preserve"
       style="font-size:16px;font-style:normal;font-weight:normal;line-height:125%;letter-spacing:0px;word-spacing:0px;fill:#000000;fill-opacity:1;stroke:none;font-family:Sans"
       x="190.49135"
       y="405.18497"
       id="text4177"
       sodipodi:linespacing="125%"
       transform="matrix(0,1,1,0,0,0)"><tspan
         sodipodi:role="line"
         id="tspan4179"
         x="190.49135"
         y="405.18497">Estimate by Patient</tspan></text>
<text
       xml:space="preserve"
       style="font-size:16px;font-style:normal;font-weight:normal;line-height:125%;letter-spacing:0px;word-spacing:0px;fill:#000000;fill-opacity:1;stroke:none;font-family:Sans"
       x="492"
       y="-500"
       id="text4219"
       sodipodi:linespacing="125%"
       transform="scale(1,-1)"><tspan
         sodipodi:role="line"
         id="tspan4221"
         x="492"
         y="-500">Pre-Prisms</tspan></text>
<text
       xml:space="preserve"
       style="font-size:16px;font-style:normal;font-weight:normal;line-height:125%;letter-spacing:0px;word-spacing:0px;fill:#000000;fill-opacity:1;stroke:none;font-family:Sans"
       x="640"
       y="-500"
       id="text4223"
       sodipodi:linespacing="125%"
       transform="scale(1,-1)"><tspan
         sodipodi:role="line"
         id="tspan4225"
         x="640"
         y="-500">Post-Prisms</tspan></text>
</g></svg>