<?xml version="1.0" encoding="UTF-8" standalone="no"?>
<!-- Created with Inkscape (http://www.inkscape.org/) -->

<svg
   xmlns:dc="http://purl.org/dc/elements/1.1/"
   xmlns:cc="http://creativecommons.org/ns#"
   xmlns:rdf="http://www.w3.org/1999/02/22-rdf-syntax-ns#"
   xmlns:svg="http://www.w3.org/2000/svg"
   xmlns="http://www.w3.org/2000/svg"
   xmlns:sodipodi="http://sodipodi.sourceforge.net/DTD/sodipodi-0.dtd"
   xmlns:inkscape="http://www.inkscape.org/namespaces/inkscape"
   id="svg2"
   version="1.1"
   inkscape:version="0.48.5 r10040"
   width="945"
   height="679.6727"
   xml:space="preserve"
   sodipodi:docname="fig_VWM_MTarget.pdf"><metadata
     id="metadata8"><rdf:RDF><cc:Work
         rdf:about=""><dc:format>image/svg+xml</dc:format><dc:type
           rdf:resource="http://purl.org/dc/dcmitype/StillImage" /><dc:title></dc:title></cc:Work></rdf:RDF></metadata><defs
     id="defs6"><clipPath
       clipPathUnits="userSpaceOnUse"
       id="clipPath18"><path
         d="M 0,504 378,504 378,0 0,0 0,504 z"
         id="path20" /></clipPath><clipPath
       clipPathUnits="userSpaceOnUse"
       id="clipPath28"><path
         d="M 0,0 379,0 379,505 0,505 0,0 z"
         id="path30" /></clipPath><clipPath
       clipPathUnits="userSpaceOnUse"
       id="clipPath40"><path
         d="m 59.43,469.469 304.172,0 0,-422.137 -304.172,0 0,422.137 z"
         id="path42" /></clipPath><clipPath
       clipPathUnits="userSpaceOnUse"
       id="clipPath50"><path
         d="m 59,47 305,0 0,423 -305,0 0,-423 z"
         id="path52" /></clipPath><clipPath
       clipPathUnits="userSpaceOnUse"
       id="clipPath116"><path
         d="M 0,504 756,504 756,0 0,0 0,504 z"
         id="path118" /></clipPath><clipPath
       clipPathUnits="userSpaceOnUse"
       id="clipPath126"><path
         d="m 28,60 24,0 0,310 -24,0 0,-310 z"
         id="path128" /></clipPath><clipPath
       clipPathUnits="userSpaceOnUse"
       id="clipPath146"><path
         d="m 55,66 5,0 0,298 -5,0 0,-298 z"
         id="path148" /></clipPath><clipPath
       clipPathUnits="userSpaceOnUse"
       id="clipPath164"><path
         d="m 115,43 193,0 0,5 -193,0 0,-5 z"
         id="path166" /></clipPath><clipPath
       clipPathUnits="userSpaceOnUse"
       id="clipPath182"><path
         d="m 63,23 291,0 0,19 -291,0 0,-19 z"
         id="path184" /></clipPath><clipPath
       clipPathUnits="userSpaceOnUse"
       id="clipPath198"><path
         d="m 10,197 18,0 0,123 -18,0 0,-123 z"
         id="path200" /></clipPath><clipPath
       clipPathUnits="userSpaceOnUse"
       id="clipPath212"><path
         d="m 378,504 378,0 0,-504 -378,0 0,504 z"
         id="path214" /></clipPath><clipPath
       clipPathUnits="userSpaceOnUse"
       id="clipPath222"><path
         d="m 377,0 379,0 0,505 -379,0 0,-505 z"
         id="path224" /></clipPath><clipPath
       clipPathUnits="userSpaceOnUse"
       id="clipPath234"><path
         d="m 437.43,469.469 304.172,0 0,-422.137 -304.172,0 0,422.137 z"
         id="path236" /></clipPath><clipPath
       clipPathUnits="userSpaceOnUse"
       id="clipPath244"><path
         d="m 437,47 305,0 0,423 -305,0 0,-423 z"
         id="path246" /></clipPath><clipPath
       clipPathUnits="userSpaceOnUse"
       id="clipPath310"><path
         d="M 0,504 756,504 756,0 0,0 0,504 z"
         id="path312" /></clipPath><clipPath
       clipPathUnits="userSpaceOnUse"
       id="clipPath320"><path
         d="m 406,60 24,0 0,312 -24,0 0,-312 z"
         id="path322" /></clipPath><clipPath
       clipPathUnits="userSpaceOnUse"
       id="clipPath340"><path
         d="m 433,66 5,0 0,300 -5,0 0,-300 z"
         id="path342" /></clipPath><clipPath
       clipPathUnits="userSpaceOnUse"
       id="clipPath358"><path
         d="m 493,43 193,0 0,5 -193,0 0,-5 z"
         id="path360" /></clipPath><clipPath
       clipPathUnits="userSpaceOnUse"
       id="clipPath376"><path
         d="m 441,23 291,0 0,19 -291,0 0,-19 z"
         id="path378" /></clipPath><clipPath
       clipPathUnits="userSpaceOnUse"
       id="clipPath392"><path
         d="m 685,400 52,0 0,55 -52,0 0,-55 z"
         id="path394" /></clipPath><clipPath
       clipPathUnits="userSpaceOnUse"
       id="clipPath406"><path
         d="m 690,443 26,0 0,8 -26,0 0,-8 z"
         id="path408" /></clipPath><clipPath
       clipPathUnits="userSpaceOnUse"
       id="clipPath422"><path
         d="m 689,421 19,0 0,19 -19,0 0,-19 z"
         id="path424" /></clipPath><clipPath
       clipPathUnits="userSpaceOnUse"
       id="clipPath436"><path
         d="m 690,421 18,0 0,19 -18,0 0,-19 z"
         id="path438" /></clipPath><clipPath
       clipPathUnits="userSpaceOnUse"
       id="clipPath450"><path
         d="m 689,403 19,0 0,20 -19,0 0,-20 z"
         id="path452" /></clipPath><clipPath
       clipPathUnits="userSpaceOnUse"
       id="clipPath464"><path
         d="m 690,404 18,0 0,18 -18,0 0,-18 z"
         id="path466" /></clipPath><clipPath
       clipPathUnits="userSpaceOnUse"
       id="clipPath478"><path
         d="m 709,426 23,0 0,9 -23,0 0,-9 z"
         id="path480" /></clipPath><clipPath
       clipPathUnits="userSpaceOnUse"
       id="clipPath494"><path
         d="m 709,409 16,0 0,8 -16,0 0,-8 z"
         id="path496" /></clipPath></defs><sodipodi:namedview
     pagecolor="#ffffff"
     bordercolor="#666666"
     borderopacity="1"
     objecttolerance="10"
     gridtolerance="10"
     guidetolerance="10"
     inkscape:pageopacity="0"
     inkscape:pageshadow="2"
     inkscape:window-width="1920"
     inkscape:window-height="1031"
     id="namedview4"
     showgrid="false"
     inkscape:zoom="1"
     inkscape:cx="660.39615"
     inkscape:cy="375.03125"
     inkscape:window-x="0"
     inkscape:window-y="29"
     inkscape:window-maximized="1"
     inkscape:current-layer="g10" /><g
     id="g10"
     inkscape:groupmode="layer"
     inkscape:label="fig_VWM_MTarget"
     transform="matrix(1.25,0,0,-1.25,0,679.6727)"><g
       id="g12" /><g
       id="g14"><g
         id="g16"
         clip-path="url(#clipPath18)"><g
           id="g22"
           transform="translate(0,-0.261841)"><g
             id="g24"><g
               id="g26"
               clip-path="url(#clipPath28)"><g
                 id="g32"><path
                   d="m 0,504.262 378,0 0,-504 -378,0 0,504 z"
                   style="fill:#ffffff;fill-opacity:1;fill-rule:nonzero;stroke:#ffffff;stroke-opacity:1;stroke-width:1.06;stroke-linecap:round;stroke-linejoin:round;stroke-miterlimit:10;stroke-dasharray:none"
                   id="path34" /></g></g></g></g></g></g><g
       id="g46"
       transform="translate(0,-0.261841)"><path
         inkscape:connector-curvature="0"
         id="path56"
         style="fill:#e5e5e5;fill-opacity:1;fill-rule:nonzero;stroke:none"
         d="m 59.43,469.73 304.172,0 0,-422.137 -304.172,0 0,422.137 z" /><path
         inkscape:connector-curvature="0"
         id="path58"
         style="fill:none;stroke:#f2f2f2;stroke-width:0.52999997;stroke-linecap:butt;stroke-linejoin:round;stroke-miterlimit:10;stroke-opacity:1;stroke-dasharray:none"
         d="m 59.43,140.812 304.172,0" /><path
         inkscape:connector-curvature="0"
         id="path60"
         style="fill:none;stroke:#f2f2f2;stroke-width:0.52999997;stroke-linecap:butt;stroke-linejoin:round;stroke-miterlimit:10;stroke-opacity:1;stroke-dasharray:none"
         d="m 59.43,288.871 304.172,0" /><path
         inkscape:connector-curvature="0"
         id="path62"
         style="fill:none;stroke:#f2f2f2;stroke-width:0.52999997;stroke-linecap:butt;stroke-linejoin:round;stroke-miterlimit:10;stroke-opacity:1;stroke-dasharray:none"
         d="m 59.43,436.934 304.172,0" /><path
         inkscape:connector-curvature="0"
         id="path64"
         style="fill:none;stroke:#ffffff;stroke-width:1.05999994;stroke-linecap:butt;stroke-linejoin:round;stroke-miterlimit:10;stroke-opacity:1;stroke-dasharray:none"
         d="m 59.43,66.781 304.172,0" /><path
         inkscape:connector-curvature="0"
         id="path66"
         style="fill:none;stroke:#ffffff;stroke-width:1.05999994;stroke-linecap:butt;stroke-linejoin:round;stroke-miterlimit:10;stroke-opacity:1;stroke-dasharray:none"
         d="m 59.43,214.844 304.172,0" /><path
         inkscape:connector-curvature="0"
         id="path68"
         style="fill:none;stroke:#ffffff;stroke-width:1.05999994;stroke-linecap:butt;stroke-linejoin:round;stroke-miterlimit:10;stroke-opacity:1;stroke-dasharray:none"
         d="m 59.43,362.902 304.172,0" /><path
         inkscape:connector-curvature="0"
         id="path70"
         style="fill:none;stroke:#ffffff;stroke-width:1.05999994;stroke-linecap:butt;stroke-linejoin:round;stroke-miterlimit:10;stroke-opacity:1;stroke-dasharray:none"
         d="m 116.461,47.594 0,422.148" /><path
         inkscape:connector-curvature="0"
         id="path72"
         style="fill:none;stroke:#ffffff;stroke-width:1.05999994;stroke-linecap:butt;stroke-linejoin:round;stroke-miterlimit:10;stroke-opacity:1;stroke-dasharray:none"
         d="m 211.52,47.594 0,422.148" /><path
         inkscape:connector-curvature="0"
         id="path74"
         style="fill:none;stroke:#ffffff;stroke-width:1.05999994;stroke-linecap:butt;stroke-linejoin:round;stroke-miterlimit:10;stroke-opacity:1;stroke-dasharray:none"
         d="m 306.57,47.594 0,422.148" /><path
         inkscape:connector-curvature="0"
         id="path76"
         style="fill:#333333;fill-opacity:1;fill-rule:nonzero;stroke:none"
         d="m 83.191,315.48 66.539,0 0,-248.699 -66.539,0 0,248.699 z" /><path
         inkscape:connector-curvature="0"
         id="path78"
         style="fill:#333333;fill-opacity:1;fill-rule:nonzero;stroke:none"
         d="m 178.25,334.32 66.539,0 0,-267.539 -66.539,0 0,267.539 z" /><path
         inkscape:connector-curvature="0"
         id="path80"
         style="fill:#333333;fill-opacity:1;fill-rule:nonzero;stroke:none"
         d="m 273.301,203.453 66.539,0 0,-136.672 -66.539,0 0,136.672 z" /><path
         inkscape:connector-curvature="0"
         id="path82"
         style="fill:none;stroke:#000000;stroke-width:1.05999994;stroke-linecap:butt;stroke-linejoin:round;stroke-miterlimit:1;stroke-opacity:1;stroke-dasharray:none"
         d="m 111.711,385.402 9.508,0" /><path
         inkscape:connector-curvature="0"
         id="path84"
         style="fill:none;stroke:#000000;stroke-width:1.05999994;stroke-linecap:butt;stroke-linejoin:round;stroke-miterlimit:1;stroke-opacity:1;stroke-dasharray:none"
         d="m 116.461,385.402 0,-139.832" /><path
         inkscape:connector-curvature="0"
         id="path86"
         style="fill:none;stroke:#000000;stroke-width:1.05999994;stroke-linecap:butt;stroke-linejoin:round;stroke-miterlimit:1;stroke-opacity:1;stroke-dasharray:none"
         d="m 111.711,245.57 9.508,0" /><path
         inkscape:connector-curvature="0"
         id="path88"
         style="fill:none;stroke:#000000;stroke-width:1.05999994;stroke-linecap:butt;stroke-linejoin:round;stroke-miterlimit:1;stroke-opacity:1;stroke-dasharray:none"
         d="m 206.762,392.391 9.508,0" /><path
         inkscape:connector-curvature="0"
         id="path90"
         style="fill:none;stroke:#000000;stroke-width:1.05999994;stroke-linecap:butt;stroke-linejoin:round;stroke-miterlimit:1;stroke-opacity:1;stroke-dasharray:none"
         d="m 211.52,392.391 0,-116.141" /><path
         inkscape:connector-curvature="0"
         id="path92"
         style="fill:none;stroke:#000000;stroke-width:1.05999994;stroke-linecap:butt;stroke-linejoin:round;stroke-miterlimit:1;stroke-opacity:1;stroke-dasharray:none"
         d="m 206.762,276.25 9.508,0" /><path
         inkscape:connector-curvature="0"
         id="path94"
         style="fill:none;stroke:#000000;stroke-width:1.05999994;stroke-linecap:butt;stroke-linejoin:round;stroke-miterlimit:1;stroke-opacity:1;stroke-dasharray:none"
         d="m 301.82,235.281 9.5,0" /><path
         inkscape:connector-curvature="0"
         id="path96"
         style="fill:none;stroke:#000000;stroke-width:1.05999994;stroke-linecap:butt;stroke-linejoin:round;stroke-miterlimit:1;stroke-opacity:1;stroke-dasharray:none"
         d="m 306.57,235.281 0,-63.648" /><path
         inkscape:connector-curvature="0"
         id="path98"
         style="fill:none;stroke:#000000;stroke-width:1.05999994;stroke-linecap:butt;stroke-linejoin:round;stroke-miterlimit:1;stroke-opacity:1;stroke-dasharray:none"
         d="m 301.82,171.633 9.5,0" /><path
         inkscape:connector-curvature="0"
         id="path100"
         style="fill:#f8766d;fill-opacity:0.30199998;fill-rule:nonzero;stroke:none"
         d="m 137.852,450.543 -4.75,0 0,-383.762 4.75,0 0,383.762 z" /><path
         inkscape:connector-curvature="0"
         id="path102"
         style="fill:#00bfc4;fill-opacity:0.30199998;fill-rule:nonzero;stroke:none"
         d="m 99.828,180.422 -4.75,0 0,-113.641 4.75,0 0,113.641 z" /><path
         inkscape:connector-curvature="0"
         id="path104"
         style="fill:#f8766d;fill-opacity:0.30199998;fill-rule:nonzero;stroke:none"
         d="m 232.898,329.773 -4.75,0 0,-262.992 4.75,0 0,262.992 z" /><path
         inkscape:connector-curvature="0"
         id="path106"
         style="fill:#00bfc4;fill-opacity:0.30199998;fill-rule:nonzero;stroke:none"
         d="m 194.879,338.863 -4.75,0 0,-272.082 4.75,0 0,272.082 z" /><path
         inkscape:connector-curvature="0"
         id="path108"
         style="fill:#f8766d;fill-opacity:0.30199998;fill-rule:nonzero;stroke:none"
         d="m 327.949,242.262 -4.75,0 0,-175.48 4.75,0 0,175.48 z" /><path
         inkscape:connector-curvature="0"
         id="path110"
         style="fill:#00bfc4;fill-opacity:0.30199998;fill-rule:nonzero;stroke:none"
         d="m 289.93,164.652 -4.75,0 0,-97.871 4.75,0 0,97.871 z" /></g><g
       id="g112"><g
         id="g114"
         clip-path="url(#clipPath116)"><g
           id="g120"
           transform="translate(0,-0.261841)"><g
             id="g122"><g
               id="g124"
               clip-path="url(#clipPath126)"><g
                 id="g130"><text
                   transform="matrix(1,0,0,-1,27.32,60.321853)"
                   id="text132"><tspan
                     style="fill:#7f7f7f;fill-opacity:1;fill-rule:nonzero;stroke:none;font-family:TeXGyreHeros;font-variant:normal;font-weight:normal;font-size:18;writing-mode:lr;-inkscape-font-specification:TeXGyreHeros-Regular"
                     x="0 10.008 15.012"
                     y="0"
                     sodipodi:role="line"
                     id="tspan134">0.0</tspan><tspan
                     style="fill:#7f7f7f;fill-opacity:1;fill-rule:nonzero;stroke:none;font-family:TeXGyreHeros;font-variant:normal;font-weight:normal;font-size:18;writing-mode:lr;-inkscape-font-specification:TeXGyreHeros-Regular"
                     x="0 10.008 15.012"
                     y="-148.06001"
                     sodipodi:role="line"
                     id="tspan136">0.1</tspan><tspan
                     style="fill:#7f7f7f;fill-opacity:1;fill-rule:nonzero;stroke:none;font-family:TeXGyreHeros;font-variant:normal;font-weight:normal;font-size:18;writing-mode:lr;-inkscape-font-specification:TeXGyreHeros-Regular"
                     x="0 10.008 15.012"
                     y="-296.12002"
                     sodipodi:role="line"
                     id="tspan138">0.2</tspan></text>
</g></g></g></g><g
           id="g140"
           transform="translate(0,-0.261841)"><g
             id="g142"><g
               id="g144"
               clip-path="url(#clipPath146)"><g
                 id="g150"><path
                   d="m 55.18,66.781 4.25,0"
                   style="fill:none;stroke:#7f7f7f;stroke-opacity:1;stroke-width:1.06;stroke-linecap:butt;stroke-linejoin:round;stroke-miterlimit:10;stroke-dasharray:none"
                   id="path152" /><path
                   d="m 55.18,214.844 4.25,0"
                   style="fill:none;stroke:#7f7f7f;stroke-opacity:1;stroke-width:1.06;stroke-linecap:butt;stroke-linejoin:round;stroke-miterlimit:10;stroke-dasharray:none"
                   id="path154" /><path
                   d="m 55.18,362.902 4.25,0"
                   style="fill:none;stroke:#7f7f7f;stroke-opacity:1;stroke-width:1.06;stroke-linecap:butt;stroke-linejoin:round;stroke-miterlimit:10;stroke-dasharray:none"
                   id="path156" /></g></g></g></g><g
           id="g158"
           transform="translate(0,-0.261841)"><g
             id="g160"><g
               id="g162"
               clip-path="url(#clipPath164)"><g
                 id="g168"><path
                   d="m 116.461,43.344 0,4.25"
                   style="fill:none;stroke:#7f7f7f;stroke-opacity:1;stroke-width:1.06;stroke-linecap:butt;stroke-linejoin:round;stroke-miterlimit:10;stroke-dasharray:none"
                   id="path170" /><path
                   d="m 211.52,43.344 0,4.25"
                   style="fill:none;stroke:#7f7f7f;stroke-opacity:1;stroke-width:1.06;stroke-linecap:butt;stroke-linejoin:round;stroke-miterlimit:10;stroke-dasharray:none"
                   id="path172" /><path
                   d="m 306.57,43.344 0,4.25"
                   style="fill:none;stroke:#7f7f7f;stroke-opacity:1;stroke-width:1.06;stroke-linecap:butt;stroke-linejoin:round;stroke-miterlimit:10;stroke-dasharray:none"
                   id="path174" /></g></g></g></g><g
           id="g176"
           transform="translate(0,-0.261841)"><g
             id="g178"><g
               id="g180"
               clip-path="url(#clipPath182)"><g
                 id="g186"><text
                   transform="matrix(1,0,0,-1,62.95,27.581853)"
                   id="text188"><tspan
                     style="fill:#7f7f7f;fill-opacity:1;fill-rule:nonzero;stroke:none;font-family:TeXGyreHeros;font-variant:normal;font-weight:normal;font-size:18;writing-mode:lr;-inkscape-font-specification:TeXGyreHeros-Regular"
                     x="0 14.004 18 28.008 38.016 44.01 49.014 62.01 72.018 82.026 87.03 93.024 103.032 120.924 132.21 142.218 147.222 151.218 161.226 171.234 195.858 205.344 215.352 225.36 235.368 245.376 250.38 262.386 272.394 282.402 286.398"
                     y="0"
                     sodipodi:role="line"
                     id="tspan190">Older ControlPatientYoung Adult</tspan></text>
</g></g></g></g><g
           id="g192"
           transform="translate(0,-0.261841)"><g
             id="g194"><g
               id="g196"
               clip-path="url(#clipPath198)"><g
                 id="g202"><text
                   transform="matrix(0,1,1,0,23.72,196.15185)"
                   id="text204"><tspan
                     style="fill:#000000;fill-opacity:1;fill-rule:nonzero;stroke:none;font-family:TeXGyreHeros;font-variant:normal;font-weight:normal;font-size:18;writing-mode:lr;-inkscape-font-specification:TeXGyreHeros-Regular"
                     x="0 12.006 18 28.008 38.016 48.024 58.032 62.028 66.024 70.02 75.024 84.024 89.028 95.022 107.028 119.034"
                     y="0"
                     sodipodi:role="line"
                     id="tspan206">Probability (SE)</tspan></text>
</g></g></g></g></g></g><g
       id="g208"><g
         id="g210"
         clip-path="url(#clipPath212)"><g
           id="g216"
           transform="translate(0,-0.261841)"><g
             id="g218"><g
               id="g220"
               clip-path="url(#clipPath222)"><g
                 id="g226"><path
                   d="m 378,504.262 378,0 0,-504 -378,0 0,504 z"
                   style="fill:#ffffff;fill-opacity:1;fill-rule:nonzero;stroke:#ffffff;stroke-opacity:1;stroke-width:1.06;stroke-linecap:round;stroke-linejoin:round;stroke-miterlimit:10;stroke-dasharray:none"
                   id="path228" /></g></g></g></g></g></g><path
       d="m 437.43,469.46816 304.172,0 0,-422.137001 -304.172,0 0,422.137001 z"
       style="fill:#e5e5e5;fill-opacity:1;fill-rule:nonzero;stroke:none"
       id="path250"
       inkscape:connector-curvature="0" /><path
       d="m 437.43,141.10916 304.172,0"
       style="fill:none;stroke:#f2f2f2;stroke-width:0.52999997;stroke-linecap:butt;stroke-linejoin:round;stroke-miterlimit:10;stroke-opacity:1;stroke-dasharray:none"
       id="path252"
       inkscape:connector-curvature="0" /><path
       d="m 437.43,290.28116 304.172,0"
       style="fill:none;stroke:#f2f2f2;stroke-width:0.52999997;stroke-linecap:butt;stroke-linejoin:round;stroke-miterlimit:10;stroke-opacity:1;stroke-dasharray:none"
       id="path254"
       inkscape:connector-curvature="0" /><path
       d="m 437.43,439.44116 304.172,0"
       style="fill:none;stroke:#f2f2f2;stroke-width:0.52999997;stroke-linecap:butt;stroke-linejoin:round;stroke-miterlimit:10;stroke-opacity:1;stroke-dasharray:none"
       id="path256"
       inkscape:connector-curvature="0" /><path
       d="m 437.43,66.519159 304.172,0"
       style="fill:none;stroke:#ffffff;stroke-width:1.05999994;stroke-linecap:butt;stroke-linejoin:round;stroke-miterlimit:10;stroke-opacity:1;stroke-dasharray:none"
       id="path258"
       inkscape:connector-curvature="0" /><path
       d="m 437.43,215.69116 304.172,0"
       style="fill:none;stroke:#ffffff;stroke-width:1.05999994;stroke-linecap:butt;stroke-linejoin:round;stroke-miterlimit:10;stroke-opacity:1;stroke-dasharray:none"
       id="path260"
       inkscape:connector-curvature="0" /><path
       d="m 437.43,364.85916 304.172,0"
       style="fill:none;stroke:#ffffff;stroke-width:1.05999994;stroke-linecap:butt;stroke-linejoin:round;stroke-miterlimit:10;stroke-opacity:1;stroke-dasharray:none"
       id="path262"
       inkscape:connector-curvature="0" /><path
       d="m 494.461,47.332159 0,422.148001"
       style="fill:none;stroke:#ffffff;stroke-width:1.05999994;stroke-linecap:butt;stroke-linejoin:round;stroke-miterlimit:10;stroke-opacity:1;stroke-dasharray:none"
       id="path264"
       inkscape:connector-curvature="0" /><path
       d="m 589.52,47.332159 0,422.148001"
       style="fill:none;stroke:#ffffff;stroke-width:1.05999994;stroke-linecap:butt;stroke-linejoin:round;stroke-miterlimit:10;stroke-opacity:1;stroke-dasharray:none"
       id="path266"
       inkscape:connector-curvature="0" /><path
       d="m 684.57,47.332159 0,422.148001"
       style="fill:none;stroke:#ffffff;stroke-width:1.05999994;stroke-linecap:butt;stroke-linejoin:round;stroke-miterlimit:10;stroke-opacity:1;stroke-dasharray:none"
       id="path268"
       inkscape:connector-curvature="0" /><path
       d="m 461.191,134.83216 66.539,0 0,-68.312001 -66.539,0 0,68.312001 z"
       style="fill:#333333;fill-opacity:1;fill-rule:nonzero;stroke:none"
       id="path270"
       inkscape:connector-curvature="0" /><path
       d="m 556.25,371.69116 66.539,0 0,-305.172001 -66.539,0 0,305.172001 z"
       style="fill:#333333;fill-opacity:1;fill-rule:nonzero;stroke:none"
       id="path272"
       inkscape:connector-curvature="0" /><path
       d="m 651.301,102.85116 66.539,0 0,-36.332001 -66.539,0 0,36.332001 z"
       style="fill:#333333;fill-opacity:1;fill-rule:nonzero;stroke:none"
       id="path274"
       inkscape:connector-curvature="0" /><path
       d="m 489.711,164.17216 9.508,0"
       style="fill:none;stroke:#000000;stroke-width:1.05999994;stroke-linecap:butt;stroke-linejoin:round;stroke-miterlimit:1;stroke-opacity:1;stroke-dasharray:none"
       id="path276"
       inkscape:connector-curvature="0" /><path
       d="m 494.461,164.17216 0,-58.672"
       style="fill:none;stroke:#000000;stroke-width:1.05999994;stroke-linecap:butt;stroke-linejoin:round;stroke-miterlimit:1;stroke-opacity:1;stroke-dasharray:none"
       id="path278"
       inkscape:connector-curvature="0" /><path
       d="m 489.711,105.50016 9.508,0"
       style="fill:none;stroke:#000000;stroke-width:1.05999994;stroke-linecap:butt;stroke-linejoin:round;stroke-miterlimit:1;stroke-opacity:1;stroke-dasharray:none"
       id="path280"
       inkscape:connector-curvature="0" /><path
       d="m 584.762,450.28916 9.508,0"
       style="fill:none;stroke:#000000;stroke-width:1.05999994;stroke-linecap:butt;stroke-linejoin:round;stroke-miterlimit:1;stroke-opacity:1;stroke-dasharray:none"
       id="path282"
       inkscape:connector-curvature="0" /><path
       d="m 589.52,450.28916 0,-157.188"
       style="fill:none;stroke:#000000;stroke-width:1.05999994;stroke-linecap:butt;stroke-linejoin:round;stroke-miterlimit:1;stroke-opacity:1;stroke-dasharray:none"
       id="path284"
       inkscape:connector-curvature="0" /><path
       d="m 584.762,293.10116 9.508,0"
       style="fill:none;stroke:#000000;stroke-width:1.05999994;stroke-linecap:butt;stroke-linejoin:round;stroke-miterlimit:1;stroke-opacity:1;stroke-dasharray:none"
       id="path286"
       inkscape:connector-curvature="0" /><path
       d="m 679.82,119.83216 9.5,0"
       style="fill:none;stroke:#000000;stroke-width:1.05999994;stroke-linecap:butt;stroke-linejoin:round;stroke-miterlimit:1;stroke-opacity:1;stroke-dasharray:none"
       id="path288"
       inkscape:connector-curvature="0" /><path
       d="m 684.57,119.83216 0,-33.961001"
       style="fill:none;stroke:#000000;stroke-width:1.05999994;stroke-linecap:butt;stroke-linejoin:round;stroke-miterlimit:1;stroke-opacity:1;stroke-dasharray:none"
       id="path290"
       inkscape:connector-curvature="0" /><path
       d="m 679.82,85.871159 9.5,0"
       style="fill:none;stroke:#000000;stroke-width:1.05999994;stroke-linecap:butt;stroke-linejoin:round;stroke-miterlimit:1;stroke-opacity:1;stroke-dasharray:none"
       id="path292"
       inkscape:connector-curvature="0" /><path
       d="m 515.852,155.37916 -4.75,0 0,-88.859001 4.75,0 0,88.859001 z"
       style="fill:#f8766d;fill-opacity:0.30199998;fill-rule:nonzero;stroke:none"
       id="path294"
       inkscape:connector-curvature="0" /><path
       d="m 477.828,114.28916 -4.75,0 0,-47.770001 4.75,0 0,47.770001 z"
       style="fill:#00bfc4;fill-opacity:0.30199998;fill-rule:nonzero;stroke:none"
       id="path296"
       inkscape:connector-curvature="0" /><path
       d="m 610.898,436.33216 -4.75,0 0,-369.812001 4.75,0 0,369.812001 z"
       style="fill:#f8766d;fill-opacity:0.30199998;fill-rule:nonzero;stroke:none"
       id="path298"
       inkscape:connector-curvature="0" /><path
       d="m 572.879,307.05016 -4.75,0 0,-240.531001 4.75,0 0,240.531001 z"
       style="fill:#00bfc4;fill-opacity:0.30199998;fill-rule:nonzero;stroke:none"
       id="path300"
       inkscape:connector-curvature="0" /><path
       d="m 705.949,116.89816 -4.75,0 0,-50.379001 4.75,0 0,50.379001 z"
       style="fill:#f8766d;fill-opacity:0.30199998;fill-rule:nonzero;stroke:none"
       id="path302"
       inkscape:connector-curvature="0" /><path
       d="m 667.93,88.800159 -4.75,0 0,-22.281 4.75,0 0,22.281 z"
       style="fill:#00bfc4;fill-opacity:0.30199998;fill-rule:nonzero;stroke:none"
       id="path304"
       inkscape:connector-curvature="0" /><g
       id="g314"
       transform="translate(0,-0.261841)"><g
         id="g316"><g
           id="g318"
           clip-path="url(#clipPath320)"><g
             id="g324"><text
               transform="matrix(1,0,0,-1,405.32,60.321853)"
               id="text326"><tspan
                 style="font-size:18px;font-variant:normal;font-weight:normal;writing-mode:lr-tb;fill:#7f7f7f;fill-opacity:1;fill-rule:nonzero;stroke:none;font-family:TeXGyreHeros;-inkscape-font-specification:TeXGyreHeros-Regular"
                 x="0 10.008 15.012"
                 y="0"
                 sodipodi:role="line"
                 id="tspan328">0.0</tspan><tspan
                 style="font-size:18px;font-variant:normal;font-weight:normal;writing-mode:lr-tb;fill:#7f7f7f;fill-opacity:1;fill-rule:nonzero;stroke:none;font-family:TeXGyreHeros;-inkscape-font-specification:TeXGyreHeros-Regular"
                 x="0 10.008 15.012"
                 y="-149.17"
                 sodipodi:role="line"
                 id="tspan330">0.1</tspan><tspan
                 style="font-size:18px;font-variant:normal;font-weight:normal;writing-mode:lr-tb;fill:#7f7f7f;fill-opacity:1;fill-rule:nonzero;stroke:none;font-family:TeXGyreHeros;-inkscape-font-specification:TeXGyreHeros-Regular"
                 x="0 10.008 15.012"
                 y="-298.34"
                 sodipodi:role="line"
                 id="tspan332">0.2</tspan></text>
</g></g></g></g><g
       id="g334"
       transform="translate(0,-0.261841)"><g
         id="g336"><g
           id="g338"
           clip-path="url(#clipPath340)"><g
             id="g344"><path
               d="m 433.18,66.781 4.25,0"
               style="fill:none;stroke:#7f7f7f;stroke-width:1.05999994;stroke-linecap:butt;stroke-linejoin:round;stroke-miterlimit:10;stroke-opacity:1;stroke-dasharray:none"
               id="path346"
               inkscape:connector-curvature="0" /><path
               d="m 433.18,215.953 4.25,0"
               style="fill:none;stroke:#7f7f7f;stroke-width:1.05999994;stroke-linecap:butt;stroke-linejoin:round;stroke-miterlimit:10;stroke-opacity:1;stroke-dasharray:none"
               id="path348"
               inkscape:connector-curvature="0" /><path
               d="m 433.18,365.121 4.25,0"
               style="fill:none;stroke:#7f7f7f;stroke-width:1.05999994;stroke-linecap:butt;stroke-linejoin:round;stroke-miterlimit:10;stroke-opacity:1;stroke-dasharray:none"
               id="path350"
               inkscape:connector-curvature="0" /></g></g></g></g><g
       id="g352"
       transform="translate(0,-0.261841)"><g
         id="g354"><g
           id="g356"
           clip-path="url(#clipPath358)"><g
             id="g362"><path
               d="m 494.461,43.344 0,4.25"
               style="fill:none;stroke:#7f7f7f;stroke-width:1.05999994;stroke-linecap:butt;stroke-linejoin:round;stroke-miterlimit:10;stroke-opacity:1;stroke-dasharray:none"
               id="path364"
               inkscape:connector-curvature="0" /><path
               d="m 589.52,43.344 0,4.25"
               style="fill:none;stroke:#7f7f7f;stroke-width:1.05999994;stroke-linecap:butt;stroke-linejoin:round;stroke-miterlimit:10;stroke-opacity:1;stroke-dasharray:none"
               id="path366"
               inkscape:connector-curvature="0" /><path
               d="m 684.57,43.344 0,4.25"
               style="fill:none;stroke:#7f7f7f;stroke-width:1.05999994;stroke-linecap:butt;stroke-linejoin:round;stroke-miterlimit:10;stroke-opacity:1;stroke-dasharray:none"
               id="path368"
               inkscape:connector-curvature="0" /></g></g></g></g><g
       id="g370"
       transform="translate(0,-0.261841)"><g
         id="g372"><g
           id="g374"
           clip-path="url(#clipPath376)"><g
             id="g380"><text
               transform="matrix(1,0,0,-1,440.95,27.581853)"
               id="text382"><tspan
                 style="font-size:18px;font-variant:normal;font-weight:normal;writing-mode:lr-tb;fill:#7f7f7f;fill-opacity:1;fill-rule:nonzero;stroke:none;font-family:TeXGyreHeros;-inkscape-font-specification:TeXGyreHeros-Regular"
                 x="0 14.004 18 28.007999 38.015999 44.009998 49.014 62.009998 72.017998 82.026001 87.029999 93.024002 103.032 120.924 132.21001 142.218 147.222 151.218 161.226 171.23399 195.858 205.34399 215.35201 225.36 235.368 245.37601 250.38 262.38599 272.39401 282.40201 286.39801"
                 y="0"
                 sodipodi:role="line"
                 id="tspan384">Older ControlPatientYoung Adult</tspan></text>
</g></g></g></g><g
       id="g386"
       transform="translate(0,-0.261841)"><g
         id="g388"><g
           id="g390"
           clip-path="url(#clipPath392)"><g
             id="g396"><path
               d="m 685.82,454.801 50.73,0 0,-54.559 -50.73,0 0,54.559 z"
               style="fill:#ffffff;fill-opacity:1;fill-rule:nonzero;stroke:none"
               id="path398"
               inkscape:connector-curvature="0" /></g></g></g></g><g
       id="g400"
       transform="translate(0,-0.261841)"><g
         id="g402"><g
           id="g404"
           clip-path="url(#clipPath406)"><g
             id="g410"><text
               transform="matrix(1,0,0,-1,690.07,443.37185)"
               id="text412"><tspan
                 style="font-size:10px;font-variant:normal;font-weight:bold;writing-mode:lr-tb;fill:#000000;fill-opacity:1;fill-rule:nonzero;stroke:none;font-family:TeXGyreHeros;-inkscape-font-specification:TeXGyreHeros-Bold"
                 x="0 2.78 6.1100001 11.67 20.559999"
                 y="0"
                 sodipodi:role="line"
                 id="tspan414">Items</tspan></text>
</g></g></g></g><g
       id="g416"
       transform="translate(0,-0.261841)"><g
         id="g418"><g
           id="g420"
           clip-path="url(#clipPath422)"><g
             id="g426"><path
               d="m 690.07,439.051 17.281,0 0,-17.277 -17.281,0 0,17.277 z"
               style="fill:#f2f2f2;fill-opacity:1;fill-rule:nonzero;stroke:#ffffff;stroke-width:1.05999994;stroke-linecap:round;stroke-linejoin:round;stroke-miterlimit:10;stroke-opacity:1;stroke-dasharray:none"
               id="path428"
               inkscape:connector-curvature="0" /></g></g></g></g><g
       id="g444"
       transform="translate(0,-0.261841)"><g
         id="g446"><g
           id="g448"
           clip-path="url(#clipPath450)"><g
             id="g454"><path
               d="m 690.07,421.773 17.281,0 0,-17.281 -17.281,0 0,17.281 z"
               style="fill:#f2f2f2;fill-opacity:1;fill-rule:nonzero;stroke:#ffffff;stroke-width:1.05999994;stroke-linecap:round;stroke-linejoin:round;stroke-miterlimit:10;stroke-opacity:1;stroke-dasharray:none"
               id="path456"
               inkscape:connector-curvature="0" /></g></g></g></g><g
       id="g3998"
       transform="translate(-0.07636672,-17.309789)"><g
         transform="translate(0,-0.261841)"
         id="g432"><g
           id="g434"
           clip-path="url(#clipPath436)"><g
             id="g440"><path
               d="m 690.07,439.051 17.281,0 0,-17.277 -17.281,0 0,17.277 z"
               style="fill:#f8766d;fill-opacity:0.30199998;fill-rule:nonzero;stroke:none"
               id="path442"
               inkscape:connector-curvature="0" /></g></g></g><g
         transform="translate(0,-0.261841)"
         id="g474"><g
           id="g476"
           clip-path="url(#clipPath478)"><g
             id="g482"><text
               transform="matrix(1,0,0,-1,709.51,426.82185)"
               id="text484"><tspan
                 style="font-size:10px;font-variant:normal;font-weight:normal;writing-mode:lr-tb;fill:#000000;fill-opacity:1;fill-rule:nonzero;stroke:none;font-family:TeXGyreHeros;-inkscape-font-specification:TeXGyreHeros-Regular"
                 x="0 2.78 8.3400002 11.67 17.23"
                 y="0"
                 sodipodi:role="line"
                 id="tspan486">three</tspan></text>
</g></g></g></g><g
       id="g3976"
       transform="translate(-0.07693651,17.258877)"><g
         id="g4009"><g
           id="g458"
           transform="translate(0,-0.261841)"><g
             id="g460"><g
               id="g462"
               clip-path="url(#clipPath464)"><g
                 id="g468"><path
                   d="m 690.07,421.773 17.281,0 0,-17.281 -17.281,0 0,17.281 z"
                   style="fill:#00bfc4;fill-opacity:0.30199998;fill-rule:nonzero;stroke:none"
                   id="path470"
                   inkscape:connector-curvature="0" /></g></g></g></g><g
           id="g488"
           transform="translate(0,-0.261841)"><g
             id="g490"><g
               id="g492"
               clip-path="url(#clipPath494)"><g
                 id="g498"><text
                   transform="matrix(1,0,0,-1,709.51,409.54185)"
                   id="text500"><tspan
                     style="font-size:10px;font-variant:normal;font-weight:normal;writing-mode:lr-tb;fill:#000000;fill-opacity:1;fill-rule:nonzero;stroke:none;font-family:TeXGyreHeros;-inkscape-font-specification:TeXGyreHeros-Regular"
                     x="0 2.78 9.8999996"
                     y="0"
                     sodipodi:role="line"
                     id="tspan502">two</tspan></text>
</g></g></g></g></g></g><text
       transform="scale(1,-1)"
       id="text504"
       x="164.82204"
       y="-478.9068"><tspan
         style="font-size:22.39999962px;font-variant:normal;font-weight:normal;writing-mode:lr-tb;fill:#000000;fill-opacity:1;fill-rule:nonzero;stroke:none;font-family:DejaVu Sans;-inkscape-font-specification:DejaVuSans"
         x="164.82204 182.15964 196.33884 210.11484 221.76283 233.41084 239.61565 253.86205"
         y="-478.9068"
         sodipodi:role="line"
         id="tspan506">Guessing</tspan><tspan
         style="font-size:22.39999962px;font-variant:normal;font-weight:normal;writing-mode:lr-tb;fill:#000000;fill-opacity:1;fill-rule:nonzero;stroke:none;font-family:DejaVu Sans;-inkscape-font-specification:DejaVuSans"
         x="479.89832 496.6535 510.3399 524.5191 530.54468 540.5127 554.2215 563.06946 577.27106 591.04706 599.82788 606.92871 621.13031 634.90631 641.11108 654.88708 667.18469 675.96552 682.17029 695.85669"
         y="-477.61017"
         sodipodi:role="line"
         id="tspan508">Non-Target Selection</tspan></text>
<g
       id="g510"><text
         transform="matrix(1,0,0,-1,206.31355,524.28816)"
         id="text512"><tspan
           style="fill:#000000;fill-opacity:1;fill-rule:nonzero;stroke:none;font-family:DejaVu Sans;font-variant:normal;font-weight:normal;font-size:25.6;writing-mode:lr;-inkscape-font-specification:DejaVuSans"
           x="0 11.3664 32.2816 47.9232 56.0384 71.7056 87.9104 104.1408 112.3328 127.9488 144.1536 154.1888 169.9328 185.6768 193.792 205.184 220.8512 230.9632 247.1936 262.9376 272.9728 281.088 298.9568 314.5984 330.8032 347.0336 354.1248 364.16 371.2512 386.8928 403.0976"
           y="0"
           sodipodi:role="line"
           id="tspan514">Two and Three Target Conditions</tspan></text>
</g></g></svg>