<?xml version="1.0" encoding="UTF-8" standalone="no"?>
<!-- Created with Inkscape (http://www.inkscape.org/) -->

<svg
   xmlns:osb="http://www.openswatchbook.org/uri/2009/osb"
   xmlns:dc="http://purl.org/dc/elements/1.1/"
   xmlns:cc="http://creativecommons.org/ns#"
   xmlns:rdf="http://www.w3.org/1999/02/22-rdf-syntax-ns#"
   xmlns:svg="http://www.w3.org/2000/svg"
   xmlns="http://www.w3.org/2000/svg"
   xmlns:sodipodi="http://sodipodi.sourceforge.net/DTD/sodipodi-0.dtd"
   xmlns:inkscape="http://www.inkscape.org/namespaces/inkscape"
   id="svg2"
   version="1.1"
   inkscape:version="0.48.5 r10040"
   width="350"
   height="482"
   sodipodi:docname="Clock_drawing.jpg">
  <metadata
     id="metadata8">
    <rdf:RDF>
      <cc:Work
         rdf:about="">
        <dc:format>image/svg+xml</dc:format>
        <dc:type
           rdf:resource="http://purl.org/dc/dcmitype/StillImage" />
        <dc:title></dc:title>
      </cc:Work>
    </rdf:RDF>
  </metadata>
  <defs
     id="defs6">
    <linearGradient
       id="linearGradient5299"
       osb:paint="solid">
      <stop
         style="stop-color:#000000;stop-opacity:1;"
         offset="0"
         id="stop5301" />
    </linearGradient>
  </defs>
  <sodipodi:namedview
     pagecolor="#ffffff"
     bordercolor="#666666"
     borderopacity="1"
     objecttolerance="10"
     gridtolerance="10"
     guidetolerance="10"
     inkscape:pageopacity="0"
     inkscape:pageshadow="2"
     inkscape:window-width="1668"
     inkscape:window-height="932"
     id="namedview4"
     showgrid="false"
     inkscape:zoom="1"
     inkscape:cx="287.4322"
     inkscape:cy="327.95209"
     inkscape:window-x="0"
     inkscape:window-y="59"
     inkscape:window-maximized="0"
     inkscape:current-layer="svg2" />
  <path
     style="fill:#000000;fill-opacity:1;stroke:none"
     d="M 213.65625 10.78125 C 211.89845 10.787252 210.19601 10.83101 208.65625 10.90625 C 200.46286 11.30663 195.78979 12.0861 190.3125 14 C 185.45292 15.69806 177.99166 17.1048 168.3125 18.15625 C 160.25693 19.03133 151.6536 20.20532 149.1875 20.75 C 146.7214 21.29468 142.8964 22.55084 140.6875 23.53125 C 138.4786 24.51166 133.43234 27.393 129.46875 29.9375 C 125.26821 32.63413 121.60155 35.82617 120.6875 37.59375 C 119.64119 39.61708 117.02863 41.66098 112.875 43.75 C 109.45107 45.47201 105.05891 48.13933 103.09375 49.6875 C 101.12858 51.23568 96.85358 55.79412 93.59375 59.8125 C 90.33391 63.83088 81.93272 72.975 74.9375 80.125 C 67.94228 87.275 58.89429 97.317559 54.8125 102.4375 C 50.73071 107.55744 44.23563 117.00744 40.375 123.4375 C 36.51438 129.86756 29.6713 142.50118 25.1875 151.5 C 20.7037 160.49881 15.95275 170.85042 14.625 174.53125 C 13.29725 178.21207 11.74794 184.45463 11.1875 188.40625 C 10.62706 192.35788 10.12955 211.93127 10.09375 231.875 C 10.03606 264.00941 10.27205 269.71835 12.15625 282.125 C 13.32566 289.825 15.40886 300.60431 16.78125 306.0625 C 18.15363 311.52069 21.30304 322.54569 23.78125 330.5625 C 26.25945 338.57931 29.88837 348.95 31.84375 353.625 C 33.79914 358.3 36.53459 364.6 37.90625 367.625 C 39.27792 370.65 41.96208 376.275 43.875 380.125 C 45.78792 383.975 51.58725 393.55677 56.78125 401.40625 C 61.97526 409.25572 69.24716 418.83991 72.90625 422.71875 C 77.18357 427.25293 82.51329 431.52058 87.875 434.6875 C 92.46176 437.39669 96.39875 439.625 96.59375 439.625 C 96.78874 439.625 101.64979 442.50691 107.40625 446.03125 C 113.1627 449.5556 120.14684 453.58587 122.9375 455 C 125.72815 456.41413 130.19023 458.07724 132.84375 458.6875 C 135.49727 459.29777 141.70625 460.16604 146.65625 460.625 C 151.60625 461.08397 163.08125 461.33362 172.15625 461.15625 C 182.93396 460.9456 191.0305 460.25403 195.46875 459.1875 C 199.20583 458.28946 204.48402 456.67168 207.21875 455.59375 C 209.95348 454.51582 216.78482 450.59186 222.375 446.875 C 227.96517 443.15815 234.13073 439.05866 236.09375 437.75 C 238.05677 436.44134 246.20066 428.79134 254.1875 420.75 C 265.62942 409.22999 270.54816 403.36808 277.375 393.125 C 282.14031 385.975 289.29325 374.275 293.28125 367.125 C 297.26915 359.975 302.53295 350.075 304.96875 345.125 C 307.40455 340.175 310.91875 332.20049 312.78125 327.40625 C 314.64375 322.61202 317.2658 314.28702 318.625 308.90625 C 319.9842 303.52549 322.0801 294.625 323.25 289.125 C 324.4199 283.625 326.39865 273.725 327.65625 267.125 C 328.91395 260.525 331.42025 249.5776 333.21875 242.78125 C 335.26515 235.04775 337.2072 229.73996 338.4375 228.59375 C 339.8695 227.25932 340.2835 225.85712 339.9375 223.5 C 339.6764 221.7207 340.5494 213.96079 341.875 206.21875 C 344.1335 193.02779 344.2287 191.14998 343.25 176.625 C 342.6755 168.1 341.46415 157.39682 340.59375 152.84375 C 339.72325 148.29067 337.9795 141.54067 336.6875 137.84375 C 335.3955 134.14682 332.73385 127.36255 330.78125 122.75 C 328.82865 118.13745 326.56875 113.63745 325.78125 112.75 C 324.99365 111.86255 323.71005 109.54156 322.90625 107.59375 C 322.10245 105.64595 319.29455 101.39534 316.65625 98.15625 C 314.01805 94.91717 307.91285 86.32462 303.09375 79.0625 C 298.27455 71.80038 293.31725 63.90099 292.09375 61.5 C 290.87025 59.09902 287.30275 53.3 284.15625 48.625 C 281.00965 43.95 276.22533 38.07595 273.53125 35.5625 C 270.83718 33.04905 266.39821 29.6839 263.65625 28.09375 C 260.9143 26.5036 255.73125 23.215 252.15625 20.78125 C 248.58125 18.3475 243.74058 15.5355 241.40625 14.53125 C 239.07192 13.52701 233.22192 12.17462 228.40625 11.53125 C 224.7294 11.04003 218.92966 10.763244 213.65625 10.78125 z M 225.15625 13.6875 C 225.18727 13.6875 225.2191 13.715729 225.25 13.71875 C 225.42426 13.735789 225.60572 13.793122 225.75 13.90625 C 225.77943 13.929322 225.81668 13.941681 225.84375 13.96875 C 225.88958 14.014584 225.88079 14.050455 225.90625 14.09375 C 225.86842 14.033039 225.81594 13.958029 225.75 13.90625 C 225.61811 13.802691 225.436 13.7408 225.25 13.71875 C 225.17419 13.709773 225.08179 13.701826 225 13.71875 C 224.91821 13.735674 224.82675 13.775055 224.75 13.8125 C 224.83481 13.769033 224.90786 13.734888 225 13.71875 C 225.05441 13.70922 225.10115 13.6875 225.15625 13.6875 z M 204.4375 13.78125 C 204.45708 13.780817 204.47544 13.807778 204.5 13.8125 C 204.5563 13.823323 204.63659 13.868033 204.71875 13.90625 C 204.80387 13.945843 204.8876 13.96178 205 14.03125 C 205.08792 14.085588 205.16758 14.160612 205.25 14.21875 C 205.4578 14.36533 205.63241 14.509522 205.78125 14.65625 C 205.93725 14.810038 206.04121 14.947225 206.09375 15.0625 C 206.11479 15.108672 206.15625 15.151954 206.15625 15.1875 C 206.15625 15.248135 206.14739 15.291039 206.125 15.34375 C 206.15789 15.255523 206.14075 15.16874 206.09375 15.0625 C 206.04691 14.95661 205.93523 14.802621 205.78125 14.65625 C 205.62727 14.509879 205.43969 14.354489 205.25 14.21875 C 205.06031 14.083011 204.87273 13.980245 204.71875 13.90625 C 204.64176 13.869253 204.55466 13.824478 204.5 13.8125 C 204.44534 13.800522 204.39841 13.793069 204.375 13.8125 C 204.31 13.86646 204.3388 13.97989 204.4375 14.1875 C 204.59201 14.51252 204.92936 14.984102 205.21875 15.28125 C 205.31521 15.380299 205.42457 15.4492 205.5 15.5 C 205.66931 15.614 205.7729 15.6315 205.90625 15.5625 C 205.95989 15.53476 205.99586 15.505598 206.03125 15.46875 C 205.95034 15.559229 205.84894 15.625 205.71875 15.625 C 205.60118 15.625 205.42047 15.479388 205.21875 15.28125 C 205.00434 15.070651 204.7647 14.79592 204.5625 14.46875 C 204.49303 14.356346 204.47709 14.272621 204.4375 14.1875 C 204.34167 13.981469 204.30064 13.853843 204.375 13.8125 C 204.39211 13.802989 204.41161 13.781822 204.4375 13.78125 z M 224.5625 13.9375 C 224.50183 13.990086 224.43982 14.062653 224.40625 14.125 C 224.32666 14.272787 224.37428 14.409572 224.53125 14.5 C 224.36448 14.409556 224.32996 14.281258 224.40625 14.125 C 224.43193 14.072395 224.44335 14.025398 224.5 13.96875 C 224.51661 13.95214 224.54497 13.952605 224.5625 13.9375 z M 225.96875 14.28125 C 225.95684 14.413469 225.84466 14.503255 225.625 14.5625 C 225.8178 14.504741 225.96875 14.388752 225.96875 14.28125 z M 224.71875 14.5625 C 224.92822 14.6185 225.37053 14.6206 225.59375 14.5625 C 225.4727 14.592273 225.32757 14.625 225.15625 14.625 C 224.98492 14.625 224.8398 14.592273 224.71875 14.5625 z M 225.15625 15.6875 C 225.18727 15.6875 225.2191 15.715729 225.25 15.71875 C 225.42426 15.735789 225.60572 15.793122 225.75 15.90625 C 225.77943 15.929322 225.81668 15.941681 225.84375 15.96875 C 225.88958 16.014584 225.88079 16.050455 225.90625 16.09375 C 225.86842 16.033039 225.81594 15.958029 225.75 15.90625 C 225.61811 15.802691 225.436 15.7408 225.25 15.71875 C 225.17419 15.709772 225.08179 15.701826 225 15.71875 C 224.91821 15.735674 224.82675 15.775055 224.75 15.8125 C 224.83481 15.769033 224.90786 15.734888 225 15.71875 C 225.05441 15.70922 225.10115 15.6875 225.15625 15.6875 z M 224.5625 15.9375 C 224.50183 15.990086 224.43982 16.062652 224.40625 16.125 C 224.32666 16.272787 224.37428 16.409572 224.53125 16.5 C 224.36448 16.409556 224.32996 16.281258 224.40625 16.125 C 224.43193 16.072395 224.44335 16.025398 224.5 15.96875 C 224.51661 15.95214 224.54497 15.952605 224.5625 15.9375 z M 225.96875 16.28125 C 225.95684 16.413469 225.84466 16.503255 225.625 16.5625 C 225.8178 16.504741 225.96875 16.388752 225.96875 16.28125 z M 224.71875 16.5625 C 224.92822 16.6185 225.37053 16.6206 225.59375 16.5625 C 225.4727 16.592273 225.32757 16.625 225.15625 16.625 C 224.98492 16.625 224.8398 16.592273 224.71875 16.5625 z M 215.84375 19.53125 C 217.83288 19.539296 220.0695 19.568715 222.125 19.625 C 226.23598 19.73758 232.18689 20.61122 235.34375 21.59375 C 238.50062 22.57627 244.81785 25.83662 249.375 28.8125 C 253.93214 31.78839 260.18941 35.84715 263.28125 37.84375 C 266.37308 39.84035 270.61413 43.53223 272.6875 46.0625 C 274.76086 48.59277 276.2777 50.82122 276.0625 51 C 275.8473 51.17878 274.08125 50.43452 272.15625 49.34375 C 270.23125 48.25299 265.50625 45.31644 261.65625 42.8125 C 257.80625 40.30856 251.95625 36.72846 248.65625 34.84375 C 245.35625 32.95904 238.38125 29.84268 233.15625 27.9375 C 227.93125 26.03232 220.05625 23.39762 215.65625 22.09375 C 208.90394 20.0928 208.20211 19.6978 211.15625 19.5625 C 212.11875 19.51843 213.85462 19.523204 215.84375 19.53125 z M 186.78125 20.9375 C 186.80071 20.953504 186.82386 20.94886 186.84375 20.96875 C 186.88958 21.014584 186.90313 21.072786 186.9375 21.125 C 186.89474 21.060772 186.83823 20.988306 186.78125 20.9375 z M 192.28125 21.0625 C 192.23614 21.163828 192.20218 21.278912 192.1875 21.4375 C 192.1777 21.54334 192.17538 21.750117 192.1875 21.875 C 192.17741 21.793254 192.15625 21.722671 192.15625 21.625 C 192.15625 21.551343 192.18168 21.502177 192.1875 21.4375 C 192.20121 21.284993 192.23961 21.160664 192.28125 21.0625 z M 186.1875 21.46875 C 186.16924 21.691505 186.17642 21.895196 186.21875 22.0625 C 186.18898 21.941454 186.15625 21.796324 186.15625 21.625 C 186.15625 21.563352 186.1834 21.524134 186.1875 21.46875 z M 186.4375 22.40625 C 186.47154 22.421564 186.52402 22.44122 186.5625 22.4375 C 186.50733 22.445793 186.48397 22.433193 186.4375 22.40625 z M 192.4375 22.40625 C 192.47675 22.425108 192.51971 22.442108 192.5625 22.4375 C 192.50733 22.445793 192.48397 22.433193 192.4375 22.40625 z M 187.09375 25.71875 C 188.36534 25.714026 189.82894 25.793465 191.65625 25.90625 C 196.31018 26.1935 204.17213 27.73009 210.4375 29.5625 C 216.361 31.29493 225.136 34.08894 229.9375 35.78125 C 234.73899 37.47356 240.45625 39.76654 242.65625 40.875 C 244.85625 41.98345 250.25625 45.24376 254.65625 48.125 C 259.05625 51.00623 266.30132 55.45116 270.75 58 C 275.19868 60.54885 281.33785 64.9877 284.40625 67.875 C 287.95255 71.21186 295.1959 80.89483 304.25 94.46875 L 318.5 115.84375 L 319.25 124.46875 C 319.6642 129.22359 320.64905 134.925 321.46875 137.125 C 322.28855 139.325 324.01385 143.375 325.28125 146.125 C 327.24045 150.37614 327.6848 153.52134 328.3125 167.125 C 328.7186 175.925 329.50315 190.775 330.03125 200.125 C 330.55935 209.475 331.28205 217.90762 331.65625 218.84375 C 332.03045 219.77988 330.7554 226.30488 328.8125 233.34375 C 326.8696 240.38262 324.5894 249.13658 323.75 252.8125 C 322.9105 256.48843 321.73865 262.56343 321.15625 266.3125 C 320.57385 270.06158 319.25425 276.725 318.21875 281.125 C 317.18315 285.525 315.34875 293.4 314.15625 298.625 C 312.96385 303.85 310.7412 311.95 309.1875 316.625 C 307.6337 321.3 304.34625 329.625 301.90625 335.125 C 299.46625 340.625 296.12325 347.6 294.46875 350.625 C 292.81425 353.65 288.31385 361.525 284.46875 368.125 C 280.62365 374.725 274.77083 384.17226 271.46875 389.125 C 268.16668 394.07774 260.5776 403.48501 254.59375 410.03125 C 248.60989 416.57748 239.78544 425.13023 235 429.03125 C 230.21456 432.93227 223.0415 438.15 219.03125 440.625 C 215.021 443.1 210.80602 445.61285 209.6875 446.1875 C 208.56899 446.76214 204.68892 448.22037 201.0625 449.4375 C 197.43608 450.65462 191.13608 452.06501 187.0625 452.59375 C 182.98892 453.1225 173.35625 453.513 165.65625 453.4375 C 157.95625 453.36203 149.85625 453.15048 147.65625 452.96875 C 145.45625 452.78702 140.95625 452.13172 137.65625 451.53125 C 134.35625 450.93079 129.40625 449.50432 126.65625 448.34375 C 123.90625 447.18319 119.18125 444.57508 116.15625 442.5625 C 113.13125 440.54991 104.49472 435.46963 96.96875 431.25 C 87.65562 426.02834 81.68414 421.89537 78.21875 418.34375 C 75.41837 415.47369 68.795 406.64577 63.5 398.71875 C 57.74762 390.107 50.7361 377.80269 46.09375 368.15625 C 41.82052 359.2768 36.27908 345.95603 33.78125 338.5625 C 31.28342 331.16898 27.41439 318.15 25.1875 309.625 C 22.96061 301.1 20.22612 287.6 19.09375 279.625 C 17.23725 266.55003 17.05261 261.43956 17.40625 227.625 C 17.77433 192.43096 17.94553 189.66381 20.03125 182.625 C 21.25355 178.5 26.67313 166.125 32.0625 155.125 C 37.45187 144.125 45.22372 129.95 49.34375 123.625 C 53.46378 117.3 59.19941 109.28909 62.09375 105.8125 C 64.98809 102.33592 67.58296 99.70796 67.84375 99.96875 C 68.10454 100.22954 67.31627 102.35242 66.125 104.6875 C 64.93373 107.02258 62.40489 113.02553 60.5 118.03125 C 58.59512 123.03697 56.34363 128.62729 55.5 130.46875 C 54.65638 132.31021 52.6453 139.06021 51 145.46875 C 48.37045 155.71101 48.05015 158.33478 48.46875 167.125 C 48.84004 174.92163 49.83993 180.09955 52.96875 190.625 C 55.17593 198.05 57.24367 206.12515 57.59375 208.5625 C 57.94384 210.99985 59.41711 215.94985 60.84375 219.5625 C 62.27039 223.17515 65.38272 228.8673 67.75 232.21875 C 70.11729 235.57021 76.86305 242.77021 82.75 248.21875 C 88.63696 253.6673 96.23395 261.05 99.65625 264.625 C 103.07855 268.2 107.64439 272.97686 109.78125 275.21875 C 111.9181 277.46065 116.16747 281.12957 119.21875 283.40625 C 122.27003 285.68293 127.22003 288.64926 130.21875 289.96875 C 133.21747 291.28823 138.80625 293.19195 142.65625 294.21875 C 147.89724 295.61652 153.53164 296.11677 165.09375 296.21875 L 180.5625 296.375 L 183.34375 302.25 C 184.88388 305.48522 188.37332 312.85 191.09375 318.625 C 193.81418 324.4 199.42918 334.075 203.5625 340.125 C 207.69581 346.175 215.08473 357.05676 220 364.3125 C 224.91527 371.56823 228.68176 377.75573 228.375 378.0625 C 228.06824 378.36926 227.00834 378.625 226 378.625 C 224.83057 378.625 224.15625 379.34345 224.15625 380.625 C 224.15625 381.73001 225.45921 383.98001 227.03125 385.625 C 228.6033 387.27 230.67643 388.625 231.65625 388.625 C 232.63607 388.625 234.05593 387.8375 234.8125 386.875 C 236.05092 385.29949 236.11815 385.39146 235.5625 387.84375 C 235.15388 389.64714 235.70441 392.09463 237.15625 395.09375 C 238.5311 397.9338 240.20374 399.86204 241.625 400.21875 C 242.87181 400.53168 245.61689 400.04752 247.75 399.15625 C 249.88311 398.26498 252.66125 396.57587 253.90625 395.40625 C 255.15126 394.23663 256.15625 392.27045 256.15625 391.03125 C 256.15625 389.79204 255.03125 387.89408 253.65625 386.8125 C 252.28125 385.73092 251.15625 383.9085 251.15625 382.78125 C 251.15625 381.56445 252.37518 380.02085 254.15625 378.96875 C 256.0512 377.84937 257.15625 376.3971 257.15625 375 C 257.15625 373.78351 255.98042 371.82742 254.53125 370.6875 C 253.08208 369.54758 251.24875 368.625 250.46875 368.625 C 249.68874 368.625 247.40832 369.77022 245.375 371.15625 L 241.65625 373.65625 L 241.375 369.75 C 241.19985 367.48273 240.26166 365.12539 239.15625 364.125 C 237.89194 362.98083 236.42114 362.58841 234.78125 363 C 233.02126 363.44173 232.19367 364.42048 231.96875 366.375 C 231.67492 368.92828 231.37342 368.69761 227.65625 362.84375 C 225.45625 359.37915 220.95625 352.82434 217.65625 348.3125 C 214.35625 343.80065 209.33467 336.51701 206.5 332.09375 C 203.66534 327.67049 199.024 318.89405 196.1875 312.59375 C 193.351 306.29345 190.16009 299.63144 189.09375 297.8125 C 188.02742 295.99356 187.15625 294.37134 187.15625 294.1875 C 187.15625 294.00366 189.06875 293.08251 191.40625 292.15625 C 193.74375 291.22999 199.25625 288.4208 203.65625 285.90625 C 208.05625 283.3917 214.84522 279.05256 218.71875 276.25 C 222.59228 273.44745 226.74159 269.97528 227.9375 268.53125 C 229.1334 267.08722 230.38664 264.02232 230.75 261.75 C 231.25629 258.58384 231.08713 257.64335 230.03125 257.65625 C 229.27345 257.6655 226.89692 259.47764 224.71875 261.6875 C 222.54059 263.89736 216.75902 268.43612 211.875 271.78125 C 206.99098 275.12637 198.7228 280.08169 193.5 282.78125 L 184 287.6875 L 182.3125 285.40625 C 181.383 284.15496 180.11797 282 179.5 280.625 C 178.88204 279.25 176.40873 274.12675 174.03125 269.25 C 171.65378 264.37325 169.15025 260.16776 168.46875 259.90625 C 167.58046 259.56538 167.8366 258.63227 169.34375 256.59375 C 170.56067 254.94777 171.61127 251.72416 171.84375 248.9375 C 172.0765 246.14762 171.69096 243.07379 170.9375 241.625 C 170.22242 240.25 167.97004 238.30806 165.9375 237.3125 C 163.14206 235.94327 161.79299 235.77017 160.3125 236.5625 C 159.23604 237.1386 157.39915 239.10938 156.25 240.96875 C 154.7696 243.36408 154.15625 246.01756 154.15625 250.0625 C 154.15625 255.03899 154.54567 256.17068 157.09375 258.71875 C 158.70144 260.32645 160.60755 261.625 161.34375 261.625 C 162.07996 261.625 164.82716 266.0125 167.4375 271.375 C 170.04784 276.7375 172.16025 281.50365 172.15625 281.96875 C 172.15202 282.43385 173.05974 284.0851 174.15625 285.625 C 175.90981 288.08765 175.94821 288.4995 174.5625 289.03125 C 173.69601 289.36375 169.33627 289.60485 164.84375 289.59375 C 160.35124 289.58269 153.95625 289.19793 150.65625 288.71875 C 147.35625 288.23956 142.83082 287.35391 140.59375 286.75 C 138.35667 286.14608 132.73167 283.37868 128.09375 280.59375 C 121.60532 276.69764 116.42851 272.22312 105.65625 261.25 C 97.956253 253.40642 88.12485 243.91713 83.8125 240.15625 C 79.50015 236.39537 74.45307 231.02271 72.59375 228.21875 C 70.73442 225.4148 68.27599 220.425 67.125 217.125 C 65.97401 213.825 64.64224 208.76245 64.15625 205.875 C 63.67026 202.98755 61.62107 195.56255 59.59375 189.375 C 56.8127 180.887 55.76909 175.89669 55.40625 169 C 55.00605 161.39307 55.34917 158.20451 57.46875 150 C 58.86962 144.57752 61.45317 136.75 63.1875 132.625 C 64.92183 128.5 66.92812 123.325 67.65625 121.125 C 68.38438 118.925 69.98734 114.875 71.21875 112.125 C 72.45015 109.375 76.80894 101.05 80.90625 93.625 C 85.00355 86.2 89.49579 78.63966 90.875 76.8125 C 92.2542 74.98533 96.671613 70.93533 100.71875 67.8125 C 104.76589 64.68966 110.46789 60.58666 113.375 58.6875 C 116.28212 56.78835 121.91112 53.27034 125.875 50.875 C 131.89594 47.2366 133.421 46.6818 135.125 47.59375 C 136.24683 48.19414 138.05446 50.4653 139.15625 52.625 C 140.25805 54.7847 141.15625 57.94818 141.15625 59.65625 C 141.15625 61.36432 141.61815 63.62366 142.1875 64.6875 C 142.75685 65.75134 143.84695 66.625 144.59375 66.625 C 145.34056 66.625 146.22866 65.90123 146.5625 65.03125 C 146.89635 64.16127 147.15625 61.6733 147.15625 59.5 C 147.15625 57.28418 146.0674 53.44186 144.6875 50.71875 C 143.33407 48.0479 141.55683 45.15057 140.71875 44.3125 C 139.35372 42.94747 140.00871 42.45228 146.9375 39.5625 C 151.19149 37.78829 157.58125 35.3278 161.15625 34.09375 C 164.73125 32.85969 171.25625 30.39917 175.65625 28.625 C 181.13819 26.41457 183.27899 25.732921 187.09375 25.71875 z M 228.15625 30.6875 C 228.18727 30.6875 228.2191 30.715729 228.25 30.71875 C 228.42426 30.735789 228.60572 30.793122 228.75 30.90625 C 228.77943 30.929322 228.81668 30.941681 228.84375 30.96875 C 228.88958 31.014584 228.88079 31.050455 228.90625 31.09375 C 228.86842 31.033039 228.81594 30.958029 228.75 30.90625 C 228.61811 30.802691 228.436 30.7408 228.25 30.71875 C 228.17419 30.709773 228.08179 30.701826 228 30.71875 C 227.91821 30.735674 227.82675 30.775055 227.75 30.8125 C 227.83481 30.769033 227.90786 30.734888 228 30.71875 C 228.05441 30.70922 228.10115 30.6875 228.15625 30.6875 z M 227.5625 30.9375 C 227.50183 30.990086 227.43982 31.062652 227.40625 31.125 C 227.32666 31.272787 227.37428 31.409572 227.53125 31.5 C 227.36448 31.409556 227.32996 31.281258 227.40625 31.125 C 227.43193 31.072395 227.44335 31.025398 227.5 30.96875 C 227.51661 30.95214 227.54497 30.952605 227.5625 30.9375 z M 228.96875 31.28125 C 228.95684 31.413469 228.84466 31.503255 228.625 31.5625 C 228.8178 31.504741 228.96875 31.388752 228.96875 31.28125 z M 227.71875 31.5625 C 227.92822 31.6185 228.37053 31.6206 228.59375 31.5625 C 228.4727 31.592273 228.32757 31.625 228.15625 31.625 C 227.98492 31.625 227.8398 31.592273 227.71875 31.5625 z M 234.46875 31.8125 C 234.51963 31.794484 234.56556 31.823207 234.625 31.84375 C 234.56283 31.821922 234.49108 31.815072 234.4375 31.84375 C 234.45041 31.836266 234.4551 31.817332 234.46875 31.8125 z M 234.6875 31.875 C 234.73606 31.900849 234.79186 31.916864 234.84375 31.96875 C 235.02708 32.152085 235.09375 32.383333 235.09375 32.625 C 235.09371 32.326409 234.88988 31.990501 234.6875 31.875 z M 234.3125 32 C 234.24983 32.118023 234.20327 32.284555 234.1875 32.46875 C 234.17906 32.567359 234.17825 32.679133 234.1875 32.78125 C 234.21225 33.05439 234.24258 33.17623 234.34375 33.3125 C 234.40697 33.39766 234.50395 33.426015 234.59375 33.40625 C 234.48355 33.436044 234.41832 33.413899 234.34375 33.3125 C 234.26378 33.203757 234.20515 33.019544 234.1875 32.78125 C 234.1834 32.725868 234.15625 32.686645 234.15625 32.625 C 234.15625 32.563352 234.1834 32.524134 234.1875 32.46875 C 234.2025 32.266186 234.25127 32.110145 234.3125 32 z M 234.875 33.1875 C 234.85395 33.213673 234.86801 33.256985 234.84375 33.28125 C 234.80397 33.321029 234.75666 33.319366 234.71875 33.34375 C 234.7691 33.307899 234.81999 33.249145 234.875 33.1875 z M 143.8125 36.96875 C 143.81878 36.974696 143.8376 36.962598 143.84375 36.96875 C 143.88042 37.005417 143.88268 37.0274 143.90625 37.0625 C 143.88169 37.026507 143.85086 37.006945 143.8125 36.96875 z M 142.375 37.1875 C 142.3553 37.25036 142.3476 37.3283 142.375 37.375 C 142.34237 37.318726 142.35558 37.256157 142.375 37.1875 z M 143.96875 37.28125 C 143.96443 37.329198 143.93953 37.366261 143.90625 37.40625 C 143.87155 37.44795 143.81412 37.469024 143.75 37.5 C 143.80459 37.473502 143.87148 37.44199 143.90625 37.40625 C 143.95175 37.35948 143.96275 37.33815 143.96875 37.28125 z M 271.4375 37.78125 C 271.45708 37.780817 271.47544 37.807778 271.5 37.8125 C 271.58281 37.82842 271.7052 37.89334 271.84375 37.96875 C 271.89698 37.997721 271.93869 37.993357 272 38.03125 C 272.30959 38.222587 272.57338 38.451325 272.78125 38.65625 C 272.89314 38.766558 273.00095 38.875377 273.0625 38.96875 C 272.99608 38.875122 272.89705 38.767432 272.78125 38.65625 C 272.51215 38.397884 272.128 38.130808 271.84375 37.96875 C 271.70163 37.887721 271.57997 37.81935 271.5 37.8125 C 271.3595 37.80046 271.34365 37.83367 271.34375 37.9375 C 271.34382 38.013395 271.3924 38.138112 271.46875 38.28125 C 271.5451 38.424388 271.66248 38.58628 271.78125 38.75 C 272.0188 39.07744 272.29586 39.40145 272.5 39.53125 C 272.57641 39.57985 272.701 39.59375 272.75 39.59375 C 272.82304 39.59375 272.87965 39.598774 272.9375 39.5625 C 272.99535 39.526226 273.02817 39.464621 273.0625 39.40625 C 273.12559 39.298973 273.15007 39.176469 273.09375 39.0625 C 273.11479 39.108672 273.15625 39.151954 273.15625 39.1875 C 273.15625 39.276669 273.10847 39.336672 273.0625 39.40625 C 273.02344 39.465364 272.99951 39.527767 272.9375 39.5625 C 272.87398 39.598083 272.79636 39.625 272.71875 39.625 C 272.65812 39.625 272.58894 39.589878 272.5 39.53125 C 272.29206 39.394188 272.02874 39.092308 271.78125 38.75 C 271.71115 38.653046 271.62746 38.573865 271.5625 38.46875 C 271.51513 38.392111 271.50219 38.345242 271.46875 38.28125 C 271.30712 37.971957 271.28427 37.784636 271.4375 37.78125 z M 113.4375 46.78125 C 113.39585 46.784488 113.36059 46.81335 113.34375 46.84375 C 113.33276 46.86365 113.34364 46.85735 113.34375 46.90625 C 113.34385 46.94905 113.33475 46.9681 113.34375 47 C 113.32432 46.925949 113.32385 46.879544 113.34375 46.84375 C 113.36141 46.811981 113.38942 46.782313 113.4375 46.78125 z M 205.15625 65.625 C 204.18244 65.625 203.11509 66.34877 202.78125 67.21875 C 202.4474 68.08874 202.15625 70.57732 202.15625 72.75 C 202.15625 74.92269 202.85074 78.3411 203.6875 80.34375 C 204.52427 82.3464 205.71859 84.59048 206.34375 85.34375 C 206.96891 86.09702 208.18692 86.57936 209.0625 86.40625 C 210.24488 86.17247 210.5968 85.04839 210.4375 82.09375 C 210.31953 79.90578 209.9473 75.875 209.59375 73.125 C 209.2402 70.375 208.49582 67.5625 207.9375 66.875 C 207.37917 66.1875 206.13007 65.625 205.15625 65.625 z M 170.78125 66.78125 C 168.95316 66.783384 167.58283 67.510929 165.84375 69.25 C 164.35539 70.73837 162.84843 73.08051 162.5 74.46875 C 162.12894 75.94718 162.4389 78.06174 163.28125 79.5625 C 164.07223 80.97172 165.49129 82.25528 166.4375 82.4375 C 167.49447 82.64106 168.52124 81.86546 169.09375 80.4375 C 169.9592 78.27888 170.03485 78.3742 170.09375 81.40625 C 170.14377 83.98233 170.84178 85.06141 173.40625 86.625 C 175.31634 87.7896 178.4323 88.623 180.96875 88.625 C 183.34241 88.62705 186.15491 88.1631 187.21875 87.59375 C 188.30397 87.01296 189.15625 85.49907 189.15625 84.15625 C 189.15625 82.83989 188.45822 81.05198 187.59375 80.1875 C 186.46605 79.05981 184.95327 78.79148 182.28125 79.21875 L 178.5625 79.8125 L 176.625 73.46875 C 174.82533 67.62474 174.41587 67.08834 171.59375 66.8125 C 171.31244 66.785004 171.04241 66.780945 170.78125 66.78125 z M 232.28125 68.625 C 231.2681 68.625 229.26167 69.54758 227.8125 70.6875 C 225.69501 72.35311 225.15625 73.60284 225.15625 77.0625 C 225.15625 79.65281 225.76136 81.88231 226.65625 82.625 C 227.47424 83.30393 228.82424 83.60052 229.65625 83.28125 C 230.77613 82.85151 231.1762 83.39364 231.1875 85.40625 C 231.19592 86.90149 231.53342 88.60333 231.9375 89.1875 C 232.34158 89.77167 234.90625 90.7349 237.65625 91.3125 C 240.40625 91.8901 243.42624 92.4243 244.34375 92.5 C 245.26127 92.57573 246.72377 92.36509 247.59375 92.03125 C 248.61002 91.64127 249.15625 90.20011 249.15625 88 C 249.15625 86.11408 248.59466 84.41178 247.90625 84.21875 C 247.21875 84.02598 244.87438 83.47747 242.6875 83 C 238.96167 82.18653 238.66578 81.85402 237.96875 77.75 C 237.55963 75.34114 236.51043 72.30364 235.65625 71 C 234.80208 69.69636 233.29439 68.625 232.28125 68.625 z M 168.375 71.6875 C 168.50454 71.691312 168.61053 71.73553 168.6875 71.8125 C 168.87126 71.996255 168.71419 72.260946 168.375 72.53125 C 168.22543 72.650446 168.03805 72.76488 167.8125 72.875 C 167.69252 72.933579 167.60682 73.009926 167.46875 73.0625 C 167.28664 73.131844 167.17102 73.140077 167.03125 73.1875 C 166.82099 73.25884 166.61699 73.324563 166.5 73.34375 C 166.62505 73.321014 166.79307 73.26898 167.03125 73.1875 C 167.28609 73.100325 167.57137 72.99222 167.8125 72.875 C 168.05363 72.75778 168.25647 72.625575 168.375 72.53125 C 168.58844 72.36139 168.75 72.14252 168.75 72 C 168.75 71.87286 168.61215 71.74825 168.4375 71.71875 C 168.35694 71.70514 168.26562 71.723726 168.15625 71.75 C 168.04688 71.776274 167.906 71.815274 167.78125 71.875 C 167.53174 71.994451 167.29292 72.191585 167.0625 72.40625 C 166.83729 72.616055 166.63725 72.799321 166.5 72.96875 C 166.43138 73.053464 166.37781 73.128405 166.34375 73.1875 C 166.30969 73.246595 166.27238 73.320625 166.28125 73.34375 C 166.25025 73.312745 166.29481 73.271552 166.34375 73.1875 C 166.37611 73.131917 166.43365 73.048502 166.5 72.96875 C 166.60623 72.84107 166.71548 72.692204 166.90625 72.5 C 167.19409 72.210008 167.49507 72.011275 167.78125 71.875 C 167.91536 71.811139 168.03796 71.774217 168.15625 71.75 C 168.2317 71.734554 168.30928 71.685566 168.375 71.6875 z M 87.90625 72.6875 C 87.927383 72.709782 87.928789 72.74493 87.9375 72.78125 C 87.953646 72.848567 87.962919 72.925104 87.9375 73.03125 C 87.961 72.93924 87.9506 72.83985 87.9375 72.78125 C 87.930101 72.74801 87.922552 72.70901 87.90625 72.6875 z M 87.4375 72.78125 C 87.314465 72.866525 87.189106 72.987109 87.0625 73.125 C 87.193071 72.983692 87.314119 72.865235 87.4375 72.78125 z M 87.9375 73.0625 C 87.906067 73.181442 87.829187 73.319846 87.75 73.46875 C 87.830105 73.321188 87.902072 73.19205 87.9375 73.0625 z M 86.9375 74.4375 C 86.837198 74.512218 86.739642 74.566364 86.65625 74.59375 C 86.736305 74.566614 86.838035 74.51127 86.9375 74.4375 z M 154.625 78.625 C 152.54718 78.625 152.15625 79.10019 152.15625 81.65625 C 152.15625 83.32391 152.82807 86.24891 153.625 88.15625 C 154.7687 90.89349 155.62915 91.625 157.75 91.625 C 160.36278 91.625 160.41764 91.50874 159.8125 87.09375 C 159.47022 84.59658 158.73308 81.67158 158.15625 80.59375 C 157.55014 79.46123 156.04945 78.625 154.625 78.625 z M 179.78125 81.625 C 179.80754 81.625 179.82342 81.648332 179.84375 81.65625 C 179.82037 81.648525 179.80414 81.649 179.75 81.65625 C 179.76099 81.654992 179.77089 81.625 179.78125 81.625 z M 179.53125 81.71875 C 179.35056 81.821307 179.12304 82.025068 178.9375 82.25 C 179.13603 82.010937 179.34895 81.820312 179.53125 81.71875 z M 179.90625 81.71875 C 180.014 81.857219 179.92369 82.192279 179.65625 82.625 C 179.33882 83.138603 178.87714 83.539564 178.59375 83.59375 C 178.57367 83.59759 178.54945 83.625 178.53125 83.625 C 178.44325 83.625 178.42841 83.580691 178.40625 83.5 C 178.37965 83.403138 178.40476 83.270521 178.46875 83.09375 C 178.49589 83.018765 178.51966 82.92803 178.5625 82.84375 C 178.59745 82.774996 178.61107 82.69811 178.65625 82.625 C 178.72877 82.507667 178.82268 82.417333 178.90625 82.3125 C 178.77093 82.483308 178.6536 82.664555 178.5625 82.84375 C 178.51695 82.933347 178.49637 83.010729 178.46875 83.09375 C 178.44113 83.176771 178.41136 83.273088 178.40625 83.34375 C 178.40055 83.422785 178.39792 83.468316 178.40625 83.5 C 178.41458 83.531684 178.43635 83.5398 178.46875 83.5625 C 178.51121 83.5919 178.55675 83.60515 178.59375 83.59375 C 179.19958 83.40696 180.1149 82.10861 179.90625 81.71875 z M 77.6875 86.875 C 77.736056 86.900849 77.791863 86.916863 77.84375 86.96875 C 77.878798 87.003799 77.877902 87.054844 77.90625 87.09375 C 77.842392 87.004685 77.764685 86.921889 77.6875 86.875 z M 77.28125 87.03125 C 77.252387 87.090912 77.236367 87.135585 77.21875 87.21875 C 77.235605 87.14332 77.255105 87.086709 77.28125 87.03125 z M 77.15625 87.625 C 77.15625 87.831765 77.20482 88.021449 77.25 88.15625 C 77.201032 88.019932 77.15625 87.848112 77.15625 87.625 z M 77.84375 88.25 C 77.837258 88.256895 77.85049 88.27451 77.84375 88.28125 C 77.80397 88.32103 77.756663 88.319365 77.71875 88.34375 C 77.760804 88.314074 77.804656 88.293812 77.84375 88.25 z M 76.46875 91.8125 C 76.504232 91.799936 76.522656 91.806509 76.5625 91.8125 C 76.493427 91.804226 76.432135 91.821555 76.375 91.875 C 76.405208 91.844792 76.433268 91.825064 76.46875 91.8125 z M 76.78125 91.9375 C 76.800711 91.953504 76.82386 91.94886 76.84375 91.96875 C 76.924631 92.049633 76.954802 92.151419 77 92.25 C 77.057251 92.37487 77.09375 92.489951 77.09375 92.625 C 77.0935 92.488995 77.052186 92.367744 77 92.25 C 76.947814 92.132256 76.880515 92.02601 76.78125 91.9375 z M 76.21875 92.15625 C 76.185333 92.279747 76.1875 92.43763 76.1875 92.625 C 76.1875 92.849225 76.201184 93.020239 76.25 93.15625 C 76.201032 93.019932 76.15625 92.848112 76.15625 92.625 C 76.15625 92.441658 76.184896 92.281773 76.21875 92.15625 z M 66.46875 93.8125 C 66.504232 93.799936 66.522656 93.806509 66.5625 93.8125 C 66.518579 93.807546 66.476507 93.823851 66.4375 93.84375 C 66.450408 93.836266 66.455103 93.817332 66.46875 93.8125 z M 66.1875 94.4375 C 66.1777 94.544005 66.175403 94.750804 66.1875 94.875 C 66.177408 94.793254 66.15625 94.722671 66.15625 94.625 C 66.15625 94.551343 66.181684 94.502177 66.1875 94.4375 z M 66.90625 95.1875 C 66.882313 95.218376 66.872058 95.252941 66.84375 95.28125 C 66.80397 95.321029 66.756663 95.319366 66.71875 95.34375 C 66.778036 95.302983 66.848323 95.262453 66.90625 95.1875 z M 263.53125 95.625 C 262.85981 95.625 260.38026 97.13267 258 98.96875 C 254.47633 101.68684 253.70184 102.84805 253.875 105.21875 C 253.9954 106.86719 255.16986 109.04105 256.5625 110.25 C 257.91542 111.42446 259.16363 113.63619 259.34375 115.15625 C 259.52386 116.67632 260.43688 118.41272 261.375 119 C 262.61246 119.77468 264.09466 119.71018 266.75 118.75 C 270.11651 117.53265 270.56807 117.59382 272.53125 119.5625 C 273.70513 120.73967 275.55625 121.56232 276.65625 121.40625 C 277.9734 121.21938 278.76923 120.25037 278.96875 118.53125 C 279.16253 116.86136 278.35516 114.81976 276.71875 112.875 C 275.31183 111.20298 273.85225 108.38629 273.5 106.625 C 273.12607 104.75538 271.18046 101.8066 268.8125 99.53125 C 266.58175 97.38775 264.2027 95.625 263.53125 95.625 z M 62.4375 97.78125 C 62.465783 97.780625 62.492589 97.802353 62.53125 97.8125 C 62.45652 97.79508 62.40445 97.78305 62.375 97.8125 C 62.327117 97.860383 62.337831 98.001246 62.40625 98.15625 C 62.474669 98.311254 62.583108 98.495019 62.71875 98.6875 C 62.666513 98.612525 62.611555 98.548123 62.5625 98.46875 C 62.483557 98.341018 62.446655 98.248708 62.40625 98.15625 C 62.325036 97.97041 62.30483 97.851514 62.375 97.8125 C 62.392106 97.802989 62.41161 97.781822 62.4375 97.78125 z M 63.3125 98.25 C 63.478017 98.370068 63.623167 98.473445 63.75 98.59375 C 63.62048 98.471769 63.466423 98.362508 63.3125 98.25 z M 165.71875 100.03125 C 165.47421 100.01892 165.25862 100.07367 165.125 100.15625 C 164.59054 100.48656 164.15625 102.51996 164.15625 104.6875 C 164.15625 106.85504 163.76654 108.625 163.28125 108.625 C 162.79595 108.625 160.52545 110.47453 158.25 112.75 C 154.53898 116.46101 154.20194 117.25578 154.78125 120.34375 C 155.13646 122.23719 156.1091 124.05711 156.9375 124.375 C 157.76591 124.69289 159.26157 124.41805 160.28125 123.78125 C 161.30093 123.14445 162.31977 122.625 162.5625 122.625 C 162.8052 122.625 162.82149 125.2125 162.5625 128.375 C 162.30352 131.5375 161.60662 136.825 161.03125 140.125 C 160.45588 143.425 159.15324 150.4 158.125 155.625 C 157.09677 160.85 155.26513 171.8437 154.0625 180.0625 C 152.28577 192.20466 151.98596 197.54695 152.46875 208.5625 C 152.79554 216.0187 153.59203 223.7 154.25 225.625 C 154.90797 227.55 155.89995 229.6875 156.4375 230.375 C 156.97504 231.0625 157.74094 231.625 158.15625 231.625 C 158.57156 231.625 159.47749 230.94285 160.15625 230.125 C 160.85206 229.28663 161.12928 227.57417 160.78125 226.1875 C 160.44173 224.83475 160.1071 217.14015 160.0625 209.09375 C 159.99214 196.39231 160.20456 194.30311 161.6875 193.21875 C 163.07437 192.20465 163.55015 189.4626 164.1875 178.5625 C 164.61923 171.17895 165.48153 163.55 166.09375 161.625 C 166.70598 159.7 167.86324 154.3 168.65625 149.625 C 169.44926 144.95 170.53538 138.44803 171.09375 135.1875 C 171.84719 130.78798 172.88123 128.47123 175.125 126.15625 C 176.78788 124.44059 178.15625 122.05349 178.15625 120.84375 C 178.15625 119.63402 176.58125 116.88074 174.65625 114.75 C 171.88104 111.67818 171.15625 110.0576 171.15625 106.875 C 171.15625 103.68515 170.63426 102.50401 168.625 101.1875 C 167.5821 100.50417 166.45238 100.06825 165.71875 100.03125 z M 314.78125 100.625 C 314.8136 100.625 314.82041 100.67561 314.84375 100.6875 C 315.00773 100.77102 314.94196 101.0867 314.6875 101.53125 C 314.67035 101.5612 314.67518 101.59437 314.65625 101.625 C 314.33875 102.1386 313.87714 102.53956 313.59375 102.59375 C 313.57367 102.59759 313.54945 102.625 313.53125 102.625 C 313.43363 102.625 313.42302 102.56651 313.40625 102.46875 C 313.39691 102.41429 313.39139 102.35848 313.40625 102.28125 C 313.43985 102.10658 313.50419 101.87099 313.65625 101.625 C 313.99615 101.075 314.50625 100.625 314.78125 100.625 z M 313.40625 102.28125 C 313.3917 102.35257 313.39633 102.41879 313.40625 102.46875 C 313.41617 102.51871 313.43039 102.54103 313.46875 102.5625 C 313.50252 102.58141 313.55005 102.59993 313.59375 102.59375 C 313.72485 102.5752 313.91615 102.43038 314.1875 102.15625 C 314.3912 101.95045 314.56472 101.73427 314.6875 101.53125 C 314.93307 101.12521 314.98731 100.76937 314.84375 100.6875 C 314.77197 100.64657 314.65418 100.69413 314.46875 100.8125 C 314.00038 101.1115 313.49356 101.85336 313.40625 102.28125 z M 268.4375 103.78125 C 268.47449 103.78043 268.5078 103.79487 268.5625 103.8125 C 268.25786 103.72514 268.27806 104.01983 268.6875 104.625 C 268.93849 104.99598 269.21021 105.30036 269.4375 105.46875 C 269.53584 105.5416 269.61757 105.57949 269.6875 105.59375 C 269.75743 105.60801 269.833 105.6004 269.90625 105.5625 C 269.95994 105.53473 269.99585 105.50561 270.03125 105.46875 C 269.95034 105.55923 269.84894 105.625 269.71875 105.625 C 269.7083 105.625 269.69895 105.59565 269.6875 105.59375 C 269.61795 105.58222 269.53537 105.54184 269.4375 105.46875 C 269.21235 105.30059 268.93595 104.99238 268.6875 104.625 C 268.64917 104.56832 268.59896 104.52774 268.5625 104.46875 C 268.2862 104.02169 268.25257 103.78534 268.4375 103.78125 z M 315.4375 103.78125 C 315.49562 103.77997 315.58579 103.83055 315.6875 103.875 C 315.77996 103.9154 315.87227 103.95231 316 104.03125 C 316.42391 104.29328 316.76798 104.61994 316.96875 104.875 C 317.06868 105.00195 317.15625 105.1069 317.15625 105.1875 C 317.15625 105.43004 316.96125 105.625 316.71875 105.625 C 316.5368 105.625 316.19803 105.32025 315.875 104.90625 C 316.03516 105.10839 316.23814 105.26459 316.40625 105.40625 C 316.65035 105.61187 316.8284 105.64034 317 105.46875 C 317.1718 105.29716 317.17435 105.11904 316.96875 104.875 C 316.65885 104.50727 316.04999 104.04049 315.6875 103.875 C 315.56667 103.81984 315.45615 103.79335 315.40625 103.8125 C 315.30895 103.84971 315.33565 103.95409 315.46875 104.21875 C 315.5738 104.42771 315.71096 104.66578 315.875 104.875 C 315.77258 104.74232 315.65596 104.61999 315.5625 104.46875 C 315.30829 104.05745 315.26902 103.84989 315.40625 103.8125 C 315.41818 103.80925 315.42271 103.78158 315.4375 103.78125 z M 268.625 103.84375 C 268.72738 103.88309 268.84672 103.93652 269 104.03125 C 269.2945 104.21326 269.54548 104.42862 269.75 104.625 C 269.92182 104.78998 270.0378 104.93974 270.09375 105.0625 C 270.11479 105.10867 270.15625 105.15196 270.15625 105.1875 C 270.15625 105.24813 270.14739 105.29104 270.125 105.34375 C 270.15783 105.25547 270.1409 105.16906 270.09375 105.0625 C 270.04927 104.96195 269.92394 104.78883 269.75 104.625 C 269.57606 104.46117 269.33762 104.29784 269.125 104.15625 C 268.90891 104.01234 268.7531 103.89453 268.625 103.84375 z M 264.78125 105.625 C 264.80754 105.625 264.82342 105.64833 264.84375 105.65625 C 264.80722 105.64419 264.76732 105.64467 264.71875 105.65625 C 264.73847 105.65254 264.76336 105.625 264.78125 105.625 z M 264.53125 105.71875 C 264.42148 105.78297 264.30965 105.88102 264.1875 106 C 264.05847 106.12568 263.92917 106.27621 263.8125 106.4375 C 263.70959 106.57976 263.60486 106.72422 263.53125 106.875 C 263.57018 106.79535 263.60319 106.71085 263.65625 106.625 C 263.70044 106.5535 263.76365 106.50485 263.8125 106.4375 C 263.929 106.27687 264.06107 106.12223 264.1875 106 C 264.31389 105.87781 264.41824 105.78171 264.53125 105.71875 z M 264.9375 105.71875 C 265.02264 105.87109 264.91119 106.2125 264.65625 106.625 C 264.89149 106.24304 265.02104 105.87762 264.9375 105.71875 z M 264.5625 106.75 C 264.44318 106.92475 264.32149 107.08395 264.1875 107.21875 C 264.04776 107.35933 263.90614 107.49292 263.78125 107.5625 C 263.904 107.49393 264.03936 107.36784 264.1875 107.21875 C 264.32523 107.08013 264.45542 106.90558 264.5625 106.75 z M 257.4375 106.78125 C 257.45708 106.78082 257.47544 106.80778 257.5 106.8125 C 257.5616 106.82434 257.65746 106.86159 257.75 106.90625 C 257.82966 106.94469 257.89781 106.9681 258 107.03125 C 258.10746 107.09766 258.21361 107.17827 258.3125 107.25 C 258.50578 107.39021 258.67407 107.51782 258.8125 107.65625 C 258.67238 107.51776 258.48874 107.37916 258.3125 107.25 C 258.12422 107.11203 257.92398 106.99289 257.75 106.90625 C 257.63413 106.84855 257.56737 106.82282 257.5 106.8125 C 257.43263 106.80218 257.36905 106.80765 257.34375 106.84375 C 257.31902 106.87907 257.31686 106.94473 257.34375 107.03125 C 257.31378 106.93825 257.32065 106.88529 257.34375 106.84375 C 257.36141 106.81198 257.38942 106.78231 257.4375 106.78125 z M 257.65625 107.59375 C 257.82371 107.85098 258.03379 108.09669 258.21875 108.28125 C 258.03457 108.10034 257.83718 107.86643 257.65625 107.59375 z M 259 108.5 C 258.95072 108.54363 258.90873 108.57552 258.84375 108.59375 C 258.89893 108.57577 258.95411 108.53995 259 108.5 z M 270.21875 108.625 C 270.34152 108.625 270.44405 108.68204 270.53125 108.71875 C 270.69753 108.78875 270.75957 108.89368 270.78125 109.0625 C 270.75721 108.90641 270.69095 108.78171 270.53125 108.71875 C 270.44387 108.6843 270.34141 108.65575 270.21875 108.65625 C 270.1409 108.65664 270.04288 108.67024 269.96875 108.6875 C 270.05231 108.66731 270.12876 108.625 270.21875 108.625 z M 269.65625 108.8125 C 269.49588 108.9118 269.37235 109.0431 269.28125 109.21875 C 269.36528 109.05156 269.49362 108.91349 269.65625 108.8125 z M 270.8125 109.125 C 270.81399 109.20268 270.77944 109.28566 270.75 109.375 C 270.72253 109.45837 270.71207 109.53469 270.65625 109.625 C 270.64129 109.6492 270.6092 109.66372 270.59375 109.6875 C 270.25798 110.20424 269.82562 110.625 269.59375 110.625 C 269.52738 110.625 269.4941 110.59147 269.4375 110.53125 C 269.28726 110.3714 269.15625 110.02449 269.15625 109.625 C 269.15625 109.54412 269.19932 109.48169 269.21875 109.40625 C 269.20876 109.47423 269.21775 109.56797 269.21875 109.71875 C 269.2211 110.10785 269.28028 110.37403 269.4375 110.53125 C 269.54129 110.63505 269.6081 110.61955 269.78125 110.53125 C 269.98922 110.42515 270.36975 110.02593 270.59375 109.6875 C 270.66842 109.57469 270.71764 109.461 270.75 109.375 C 270.78677 109.27728 270.81316 109.20699 270.8125 109.125 z M 265.875 109.6875 C 265.90586 109.71058 265.9265 109.73539 265.9375 109.78125 C 265.96512 109.89639 265.93624 110.06519 265.84375 110.28125 C 265.937 110.06895 265.96604 109.89945 265.9375 109.78125 C 265.92799 109.74185 265.9008 109.71016 265.875 109.6875 z M 264.71875 110.5625 C 264.61966 110.71528 264.53033 110.87696 264.46875 111.03125 C 264.51723 110.91172 264.57127 110.7625 264.65625 110.625 C 264.67211 110.59933 264.70222 110.5877 264.71875 110.5625 z M 265.5625 110.75 C 265.45272 110.91078 265.3419 111.0597 265.21875 111.1875 C 265.06848 111.34346 264.91571 111.48759 264.78125 111.5625 C 264.91547 111.48917 265.05111 111.36203 265.21875 111.1875 C 265.34087 111.06037 265.46518 110.89059 265.5625 110.75 z M 264.375 111.4375 C 264.38277 111.50586 264.4251 111.56441 264.46875 111.59375 C 264.41647 111.56485 264.381 111.51874 264.375 111.4375 z M 51.8125 111.96875 C 51.820221 111.97593 51.835967 111.96097 51.84375 111.96875 C 51.878798 112.0038 51.877902 112.05484 51.90625 112.09375 C 51.877698 112.05462 51.847511 112.00377 51.8125 111.96875 z M 51.28125 112.0625 C 51.242162 112.1594 51.201228 112.28725 51.1875 112.4375 C 51.18044 112.51282 51.1805 112.7377 51.1875 112.8125 C 51.201548 112.96558 51.241197 113.08755 51.28125 113.1875 C 51.239611 113.08934 51.201214 112.965 51.1875 112.8125 C 51.181684 112.74783 51.15625 112.69865 51.15625 112.625 C 51.15625 112.55134 51.181684 112.50218 51.1875 112.4375 C 51.201214 112.28499 51.239611 112.16066 51.28125 112.0625 z M 46.71875 119.625 C 46.96129 119.625 47.15625 120.075 47.15625 120.625 C 47.15625 121.175 46.67621 121.625 46.09375 121.625 C 45.51129 121.625 45.31633 121.175 45.65625 120.625 C 45.99617 120.075 46.47621 119.625 46.71875 119.625 z M 46.6875 119.71875 C 46.397625 119.7581 45.842525 120.32313 45.625 120.84375 C 45.49556 121.15349 45.50186 121.18936 45.71875 121.40625 C 45.94802 121.63549 46.02517 121.64226 46.5625 121.4375 C 46.84393 121.33026 47.09375 120.9162 47.09375 120.5625 C 47.09375 120.24518 46.9544 119.8377 46.8125 119.75 C 46.78385 119.73229 46.728911 119.71313 46.6875 119.71875 z M 166.46875 125.8125 C 166.5444 125.78571 166.62562 125.84635 166.71875 125.90625 C 166.75666 125.93063 166.80397 125.92897 166.84375 125.96875 C 166.86127 125.98627 166.85915 126.01271 166.875 126.03125 C 166.83313 125.98557 166.77254 125.93904 166.71875 125.90625 C 166.55978 125.80932 166.4336 125.84764 166.34375 125.96875 C 166.38638 125.90393 166.41185 125.83265 166.46875 125.8125 z M 166.3125 126 C 166.27399 126.06875 166.23747 126.13785 166.21875 126.25 C 166.19795 126.37462 166.18093 126.54515 166.1875 126.71875 C 166.19488 126.91393 166.21529 127.04963 166.25 127.15625 C 166.20103 127.01993 166.15625 126.84811 166.15625 126.625 C 166.15625 126.47769 166.19643 126.36045 166.21875 126.25 C 166.23993 126.14518 166.27454 126.0683 166.3125 126 z M 166.96875 126.1875 C 167.03047 126.29897 167.0493 126.40752 167.0625 126.53125 C 167.0778 126.6746 167.08107 126.8007 167.03125 126.9375 C 167.07352 126.8114 167.072 126.66229 167.0625 126.53125 C 167.05375 126.41049 167.01998 126.29197 166.96875 126.1875 z M 167.03125 126.96875 C 166.98542 127.08229 166.93542 127.18958 166.84375 127.28125 C 166.83597 127.28903 166.82022 127.27407 166.8125 127.28125 C 166.90215 127.19142 166.98852 127.08558 167.03125 126.96875 z M 166.25 127.1875 C 166.28427 127.27799 166.3404 127.32887 166.40625 127.375 C 166.4655 127.41649 166.5296 127.42431 166.59375 127.40625 C 166.5107 127.4287 166.47031 127.42831 166.40625 127.375 C 166.35499 127.33234 166.28469 127.27425 166.25 127.1875 z M 165.46875 129.8125 C 165.5444 129.78571 165.62562 129.84635 165.71875 129.90625 C 165.75666 129.93063 165.80397 129.92897 165.84375 129.96875 C 165.86127 129.98627 165.85915 130.01271 165.875 130.03125 C 165.83313 129.98557 165.77254 129.93904 165.71875 129.90625 C 165.55978 129.80932 165.4336 129.84764 165.34375 129.96875 C 165.38638 129.90393 165.41185 129.83265 165.46875 129.8125 z M 165.3125 130 C 165.27399 130.06875 165.23747 130.13785 165.21875 130.25 C 165.19795 130.37462 165.18093 130.54515 165.1875 130.71875 C 165.19488 130.91394 165.21529 131.04963 165.25 131.15625 C 165.20103 131.01993 165.15625 130.84811 165.15625 130.625 C 165.15625 130.47769 165.19643 130.36045 165.21875 130.25 C 165.23993 130.14518 165.27454 130.0683 165.3125 130 z M 165.96875 130.1875 C 166.03047 130.29897 166.0493 130.40752 166.0625 130.53125 C 166.0778 130.6746 166.08107 130.8007 166.03125 130.9375 C 166.07352 130.8114 166.072 130.66229 166.0625 130.53125 C 166.05375 130.41049 166.01998 130.29197 165.96875 130.1875 z M 166.03125 130.96875 C 165.98542 131.08229 165.93542 131.18958 165.84375 131.28125 C 165.83597 131.28903 165.82022 131.27407 165.8125 131.28125 C 165.90215 131.19142 165.98852 131.08558 166.03125 130.96875 z M 165.25 131.1875 C 165.28427 131.27799 165.3404 131.32887 165.40625 131.375 C 165.4655 131.41649 165.5296 131.42431 165.59375 131.40625 C 165.5107 131.4287 165.47031 131.42831 165.40625 131.375 C 165.35499 131.33234 165.28469 131.27425 165.25 131.1875 z M 38.15625 132.1875 C 38.0322 132.25491 37.938158 132.36396 37.84375 132.46875 C 37.940575 132.35876 38.034674 132.25518 38.15625 132.1875 z M 37.59375 132.84375 C 37.56989 132.93687 37.568565 133.04313 37.59375 133.125 C 37.618935 133.20687 37.64444 133.27287 37.71875 133.34375 C 37.86035 133.47882 38.0942 133.55685 38.375 133.59375 C 38.51368 133.61197 38.66923 133.61195 38.9375 133.59375 C 39.09544 133.58302 39.241624 133.58426 39.375 133.5625 C 39.242343 133.58415 39.090706 133.58389 38.9375 133.59375 C 38.826705 133.60088 38.711891 133.625 38.59375 133.625 C 38.50522 133.625 38.453821 133.60311 38.375 133.59375 C 38.083731 133.55917 37.854455 133.48102 37.71875 133.34375 C 37.654445 133.2787 37.617139 133.20657 37.59375 133.125 C 37.569273 133.03964 37.569105 132.94249 37.59375 132.84375 z M 40.15625 133.1875 C 40.15625 133.23647 40.115217 133.26839 40.0625 133.3125 C 40.120133 133.26647 40.15625 133.23889 40.15625 133.1875 z M 39.8125 133.4375 C 39.719564 133.4711 39.622848 133.50642 39.5 133.53125 C 39.616552 133.50762 39.724299 133.46862 39.8125 133.4375 z M 56.15625 139.6875 C 56.397917 139.6875 56.660415 139.78542 56.84375 139.96875 C 56.898749 140.02375 56.880463 140.07379 56.90625 140.125 C 57.052375 140.41521 56.779581 140.625 56.15625 140.625 C 55.42288 140.625 55.13334 140.33542 55.5 139.96875 C 55.516611 139.95214 55.544975 139.95261 55.5625 139.9375 C 55.738401 139.78589 55.936479 139.6875 56.15625 139.6875 z M 55.5625 139.9375 C 55.27076 140.18299 55.35008 140.40276 55.75 140.53125 C 55.99075 140.60858 56.63559 140.55341 56.8125 140.4375 C 56.95899 140.34154 56.997513 140.2577 56.90625 140.125 C 56.875829 140.08077 56.807362 140.02233 56.75 139.96875 C 56.41847 139.65907 55.91936 139.63723 55.5625 139.9375 z M 161.625 158.8125 C 161.63694 158.80062 161.64362 158.81019 161.65625 158.8125 C 161.67731 158.81635 161.69605 158.86187 161.71875 158.90625 C 161.69146 158.84168 161.6806 158.8125 161.65625 158.8125 C 161.62707 158.8125 161.58668 158.87703 161.5625 158.96875 C 161.58312 158.88998 161.60113 158.83627 161.625 158.8125 z M 161.8125 159.1875 C 161.83186 159.26337 161.85507 159.27134 161.875 159.375 C 161.92208 159.61984 161.94086 159.91024 161.96875 160.1875 C 161.99348 160.43329 161.99027 160.68206 162 160.9375 C 161.99137 160.6486 161.98676 160.34435 161.96875 160.1875 C 161.92178 159.77874 161.86875 159.42781 161.8125 159.1875 z M 161.46875 159.75 C 161.44589 160.0733 161.4444 160.39078 161.4375 160.875 C 161.42679 161.62709 161.43417 162.28449 161.46875 162.78125 C 161.43512 162.34571 161.40271 161.82706 161.40625 161.125 C 161.40902 160.575 161.44425 160.11327 161.46875 159.75 z M 51.46875 159.8125 C 51.575196 159.77481 51.706249 159.83125 51.84375 159.96875 C 52.001414 160.12642 52.040427 160.3244 52.0625 160.53125 C 52.091759 160.80545 52.052746 161.07225 51.84375 161.28125 C 51.632742 161.49225 51.466133 161.46733 51.34375 161.28125 C 51.253468 161.14398 51.15625 160.93632 51.15625 160.625 C 51.15625 160.16664 51.29134 159.87532 51.46875 159.8125 z M 51.34375 161.28125 C 51.40924 161.35361 51.49995 161.40625 51.53125 161.40625 C 51.80279 161.40625 52.1121 160.90066 52.0625 160.53125 C 52.02514 160.2527 51.80934 159.9335 51.625 159.875 C 51.53514 159.84649 51.4666 159.87715 51.375 159.96875 C 51.26022 160.08355 51.21875 160.17456 51.21875 160.625 C 51.21875 161.05155 51.24665 161.17394 51.34375 161.28125 z M 332.15625 161.15625 C 332.26779 161.1403 332.35613 161.2143 332.4375 161.3125 C 332.49323 161.37976 332.52458 161.48054 332.5625 161.59375 C 332.5297 161.49262 332.487 161.37545 332.4375 161.3125 C 332.32172 161.16535 332.15952 161.13206 332 161.21875 C 332.05703 161.18351 332.1043 161.16368 332.15625 161.15625 z M 331.8125 161.40625 C 331.7187 161.52298 331.62161 161.71683 331.53125 161.9375 C 331.44089 162.15817 331.36375 162.41885 331.3125 162.65625 C 331.25617 162.91723 331.20649 163.19911 331.1875 163.46875 C 331.16851 163.73839 331.1715 163.97588 331.1875 164.21875 C 331.20126 164.42762 331.24322 164.61655 331.28125 164.78125 C 331.24388 164.62124 331.20236 164.43451 331.1875 164.21875 C 331.17901 164.09545 331.15625 163.98289 331.15625 163.84375 C 331.15625 163.71486 331.17867 163.59687 331.1875 163.46875 C 331.20733 163.1811 331.25469 162.91941 331.3125 162.65625 C 331.37118 162.38911 331.44281 162.14978 331.53125 161.9375 C 331.61814 161.72896 331.70593 161.53329 331.8125 161.40625 z M 159.5 161.96875 C 159.46347 161.96875 159.4088 162.10719 159.375 162.21875 C 159.32415 162.38648 159.26382 162.70376 159.25 163.03125 C 159.23618 163.35874 159.2456 163.68189 159.28125 163.875 C 159.2448 163.64883 159.23627 163.36478 159.25 163.03125 C 159.26655 162.62947 159.31787 162.39538 159.375 162.21875 C 159.41519 162.0945 159.44342 161.9779 159.5 161.96875 z M 159.53125 161.96875 C 159.56518 161.97389 159.58657 162.01813 159.625 162.0625 C 159.58812 162.01981 159.55656 161.97734 159.53125 161.96875 z M 162 162.21875 C 161.98096 162.49834 161.94589 162.73432 161.90625 162.96875 C 161.94233 162.74521 161.97802 162.5047 162 162.21875 z M 159.75 162.28125 C 159.77978 162.3399 159.81227 162.35882 159.84375 162.4375 C 159.87562 162.51713 159.88224 162.60534 159.90625 162.6875 C 159.9526 162.8461 159.98253 162.99809 160 163.15625 C 159.98158 163.00406 159.95055 162.83775 159.90625 162.6875 C 159.86476 162.54677 159.81297 162.41013 159.75 162.28125 z M 332.6875 162.4375 C 332.68593 162.51314 332.69342 162.5755 332.6875 162.65625 C 332.67771 162.78916 332.64344 162.92776 332.625 163.0625 C 332.65373 162.84637 332.68357 162.63098 332.6875 162.4375 z M 335.65625 162.4375 C 335.67656 162.4484 335.69723 162.49647 335.71875 162.53125 C 335.69583 162.48954 335.67747 162.45163 335.65625 162.4375 z M 335.5 162.71875 C 335.42988 163.04799 335.37472 163.63221 335.375 164.3125 C 335.3752 164.72228 335.37764 165.08417 335.40625 165.375 C 335.43486 165.66583 335.4799 165.8861 335.53125 166 C 335.48082 165.88265 335.43496 165.65135 335.40625 165.375 C 335.37173 165.04275 335.33738 164.65046 335.34375 164.125 C 335.35227 163.43588 335.43312 162.99411 335.5 162.71875 z M 161.53125 163.4375 C 161.55591 163.56761 161.594 163.6498 161.625 163.6875 C 161.64449 163.71123 161.6687 163.72774 161.6875 163.71875 C 161.66016 163.73397 161.64928 163.72695 161.625 163.6875 C 161.59511 163.63895 161.5555 163.56363 161.53125 163.4375 z M 335.96875 163.625 C 335.99539 163.84741 336.02674 164.05637 336.03125 164.28125 C 336.02687 164.06181 335.99331 163.83986 335.96875 163.625 z M 160 163.65625 C 159.97684 163.88379 159.93761 164.07298 159.84375 164.21875 C 159.81743 164.25962 159.81301 164.31199 159.78125 164.34375 C 159.76297 164.36203 159.73642 164.36223 159.71875 164.375 C 159.67619 164.40576 159.63215 164.43719 159.59375 164.4375 C 159.54776 164.43787 159.50744 164.41492 159.46875 164.375 C 159.43124 164.33629 159.40429 164.29195 159.375 164.21875 C 159.40278 164.28668 159.43703 164.3409 159.46875 164.375 C 159.5054 164.41441 159.55108 164.43751 159.59375 164.4375 C 159.63642 164.43749 159.67535 164.41015 159.71875 164.375 C 159.76215 164.33985 159.80491 164.28475 159.84375 164.21875 C 159.88259 164.15275 159.90851 164.06132 159.9375 163.96875 C 159.96852 163.86969 159.98857 163.77089 160 163.65625 z M 282.25 163.84375 C 280.87496 163.85193 279.20117 164.23668 276.25 165 C 272.72054 165.91289 269.23304 167.17288 268.5 167.78125 C 267.76697 168.38961 267.15625 170.1373 267.15625 171.6875 C 267.15625 173.23769 267.56163 174.75295 268.0625 175.0625 C 268.56337 175.37206 270.02587 175.67245 271.3125 175.71875 C 272.59913 175.76502 274.62802 175.49865 275.8125 175.125 C 277.45799 174.60593 278.11838 174.93504 278.625 176.53125 C 278.99828 177.7075 280.45795 178.88667 281.96875 179.21875 C 283.44465 179.54313 285.78125 180.15067 287.15625 180.59375 C 289.44715 181.33197 289.30075 181.48296 285.40625 182.15625 C 281.40645 182.84773 281.15625 183.09184 281.15625 186.21875 C 281.15625 188.31458 281.80235 189.92845 282.90625 190.59375 C 283.86875 191.17383 286.20805 191.38359 288.09375 191.0625 C 289.97945 190.7414 293.46695 189.55472 295.84375 188.4375 C 299.67725 186.63555 300.15625 186.04003 300.15625 183.0625 C 300.15625 180.55375 299.2659 178.79714 296.625 176.15625 C 294.6817 174.21292 292.7129 172.625 292.25 172.625 C 291.7871 172.625 291.1474 171.2681 290.8125 169.59375 C 290.3496 167.27928 289.3008 166.15332 286.4375 164.9375 C 284.7055 164.20205 283.62504 163.83557 282.25 163.84375 z M 332.46875 163.84375 C 332.37452 164.2157 332.25457 164.54538 332.125 164.8125 C 332.2463 164.55665 332.37485 164.208 332.46875 163.84375 z M 335.96875 165.09375 C 335.94765 165.27856 335.91412 165.4398 335.875 165.59375 C 335.91511 165.44066 335.94777 165.28378 335.96875 165.09375 z M 331.9375 165.125 C 331.90468 165.16975 331.87683 165.24817 331.84375 165.28125 C 331.82297 165.30203 331.80157 165.29779 331.78125 165.3125 C 331.72074 165.3563 331.68006 165.3821 331.625 165.375 C 331.67109 165.3807 331.72485 165.3505 331.78125 165.3125 C 331.83915 165.27348 331.87617 165.21281 331.9375 165.125 z M 335.84375 165.71875 C 335.82639 165.77539 335.83265 165.85647 335.8125 165.90625 C 335.76799 166.01627 335.72779 166.05887 335.6875 166.09375 C 335.65806 166.11924 335.65156 166.10593 335.625 166.09375 C 335.65054 166.10911 335.66043 166.11876 335.6875 166.09375 C 335.73663 166.04836 335.78585 165.90052 335.84375 165.71875 z M 280.09375 168.625 C 280.22943 168.625 280.3805 168.67434 280.5 168.71875 C 280.26576 168.62065 279.82894 168.67962 279.6875 168.8125 C 279.51256 168.97685 279.47578 169.19618 279.625 169.5 C 279.67474 169.60127 279.75737 169.69183 279.84375 169.8125 C 280.07132 170.13037 280.2456 170.32998 280.5 170.5 C 280.70643 170.63792 280.70131 170.64329 280.84375 170.53125 C 281.03335 170.38213 281.16029 169.90092 281.125 169.53125 C 281.11324 169.40803 281.0763 169.30446 281.03125 169.21875 C 280.92506 169.01672 280.7444 168.81466 280.53125 168.71875 C 280.87853 168.85806 281.08409 169.16385 281.125 169.53125 C 281.12883 169.56564 281.15625 169.5897 281.15625 169.625 C 281.15625 170.175 280.96125 170.625 280.71875 170.625 C 280.47615 170.625 279.99615 170.175 279.65625 169.625 C 279.62959 169.58188 279.64511 169.54172 279.625 169.5 C 279.3886 169.00956 279.55701 168.625 280.09375 168.625 z M 335.53125 169.96875 C 335.56518 169.97389 335.58658 170.01813 335.625 170.0625 C 335.58322 170.01256 335.53148 169.99395 335.5 170 C 335.46155 170.00741 335.43685 170.03209 335.40625 170.09375 C 335.31446 170.27874 335.2503 170.68252 335.25 171.25 C 335.24985 171.55029 335.27839 171.7884 335.3125 171.96875 C 335.27255 171.779 335.24953 171.53559 335.25 171.25 C 335.25012 171.17536 335.24673 171.11146 335.25 171.03125 C 335.27076 170.52743 335.32345 170.24179 335.40625 170.09375 C 335.43354 170.04496 335.46722 170.0089 335.5 170 C 335.5115 169.99688 335.51913 169.96691 335.53125 169.96875 z M 335.75 170.28125 C 335.77978 170.3399 335.81227 170.35882 335.84375 170.4375 C 335.90747 170.59677 335.93631 170.77175 335.96875 170.9375 C 335.9969 171.08132 336.02623 171.20518 336.03125 171.34375 C 336.02833 171.19618 335.9928 171.04957 335.96875 170.9375 C 335.916 170.69002 335.83873 170.46173 335.75 170.28125 z M 159.5625 170.625 C 159.57289 170.625 159.58238 170.65319 159.59375 170.65625 C 159.56582 170.64924 159.52697 170.6708 159.5 170.6875 C 159.5226 170.67193 159.53878 170.625 159.5625 170.625 z M 159.71875 170.75 C 159.76893 170.79614 159.81818 170.86194 159.875 170.9375 C 160.07989 171.20999 160.33821 171.62195 160.53125 172.125 C 160.66853 172.48274 160.69332 172.80397 160.65625 173.0625 C 160.64345 173.15175 160.62553 173.24194 160.59375 173.3125 C 160.62923 173.23945 160.64385 173.16115 160.65625 173.0625 C 160.66865 172.96385 160.66772 172.87264 160.65625 172.75 C 160.62596 172.42608 160.50136 172.07654 160.25 171.5625 C 160.1334 171.32405 159.99543 171.10019 159.875 170.9375 C 159.81479 170.85615 159.77042 170.79957 159.71875 170.75 z M 159.375 170.84375 C 159.31183 170.98047 159.26135 171.16886 159.21875 171.4375 C 159.18279 171.66414 159.1874 172.28525 159.21875 172.5 C 159.1983 172.37914 159.15625 172.25544 159.15625 172.125 C 159.15625 171.87644 159.1904 171.64447 159.21875 171.4375 C 159.25407 171.17959 159.30878 170.987 159.375 170.84375 z M 335.96875 171.9375 C 335.93784 172.05533 335.89897 172.133 335.84375 172.21875 C 335.81743 172.25962 335.81301 172.31199 335.78125 172.34375 C 335.76297 172.36203 335.73641 172.36223 335.71875 172.375 C 335.6762 172.40576 335.63214 172.43719 335.59375 172.4375 C 335.54778 172.43787 335.50741 172.41492 335.46875 172.375 C 335.43126 172.33629 335.40427 172.29195 335.375 172.21875 C 335.40115 172.28177 335.43315 172.33725 335.46875 172.375 C 335.5118 172.42065 335.55825 172.43335 335.59375 172.4375 C 335.62925 172.44165 335.6673 172.40955 335.71875 172.375 C 335.77015 172.34046 335.79787 172.29906 335.84375 172.21875 C 335.88963 172.13844 335.93875 172.04593 335.96875 171.9375 z M 159.34375 172.9375 C 159.39337 173.05319 159.43458 173.16062 159.5 173.25 C 159.43133 173.15869 159.39381 173.05476 159.34375 172.9375 z M 160.5625 173.375 C 160.52716 173.437 160.48919 173.4592 160.4375 173.5 C 160.37714 173.54764 160.3002 173.5796 160.21875 173.59375 C 160.29805 173.57674 160.37972 173.54583 160.4375 173.5 C 160.47918 173.46694 160.53237 173.42234 160.5625 173.375 z M 336.6875 176.625 C 336.74465 176.58354 336.80566 176.81641 336.875 177.375 C 337.0968 179.1625 337.0968 182.0875 336.875 183.875 C 336.6531 185.6625 336.46875 184.2 336.46875 180.625 C 336.46875 178.16719 336.56178 176.71621 336.6875 176.625 z M 15.46875 181.8125 C 15.529002 181.79117 15.584337 181.84191 15.65625 181.875 C 15.62273 181.85767 15.589165 181.84375 15.5625 181.84375 C 15.50452 181.84375 15.45109 181.84014 15.40625 181.875 C 15.371253 181.90221 15.339002 181.95264 15.3125 182 C 15.339849 181.9508 15.371634 181.9038 15.40625 181.875 C 15.430486 181.85483 15.441456 181.82216 15.46875 181.8125 z M 15.6875 181.875 C 15.736056 181.90085 15.791863 181.91686 15.84375 181.96875 C 15.935415 182.06042 15.985418 182.16771 16.03125 182.28125 C 15.96947 182.12375 15.817726 181.95656 15.6875 181.875 z M 15.28125 182.0625 C 15.255587 182.12556 15.232735 182.19423 15.21875 182.28125 C 15.2029 182.37987 15.1875 182.49748 15.1875 182.625 C 15.1875 182.80679 15.190604 182.94803 15.21875 183.0625 C 15.188977 182.94145 15.15625 182.79632 15.15625 182.625 C 15.15625 182.48969 15.199792 182.38558 15.21875 182.28125 C 15.234448 182.19486 15.254391 182.12582 15.28125 182.0625 z M 16.03125 182.3125 C 16.107492 182.52184 16.107492 182.72816 16.03125 182.9375 C 16.097386 182.7422 16.098915 182.51109 16.03125 182.3125 z M 15.875 183.1875 C 15.853947 183.21367 15.868014 183.25699 15.84375 183.28125 C 15.78408 183.34092 15.711384 183.34964 15.65625 183.375 C 15.598453 183.40159 15.550548 183.44635 15.5 183.4375 C 15.548382 183.44515 15.592485 183.4083 15.65625 183.375 C 15.73819 183.33219 15.815242 183.26438 15.875 183.1875 z M 15.375 183.34375 C 15.414946 183.38651 15.429042 183.42539 15.46875 183.4375 C 15.427243 183.4228 15.409185 183.38249 15.375 183.34375 z M 288.46875 185.8125 C 288.529 185.79117 288.58435 185.84191 288.65625 185.875 C 288.71138 185.90037 288.78409 185.90908 288.84375 185.96875 C 289.00143 186.12642 289.04042 186.3244 289.0625 186.53125 C 289.07082 186.60918 289.07343 186.67234 289.0625 186.75 C 289.03497 186.94559 288.99336 187.13165 288.84375 187.28125 C 288.55679 187.56825 288.31216 187.44927 288.21875 187.03125 C 288.19282 186.91523 288.15625 186.78432 288.15625 186.625 C 288.15625 186.27388 288.26308 186.03308 288.375 185.90625 C 288.40918 185.86751 288.42725 185.8272 288.46875 185.8125 z M 288.375 185.90625 C 288.18735 186.09376 288.13291 186.6607 288.21875 187.03125 C 288.24736 187.15477 288.31465 187.24775 288.375 187.3125 C 288.4232 187.3643 288.5045 187.40625 288.5625 187.40625 C 288.6893 187.40625 288.916 187.16907 289 186.96875 C 289.02865 186.90019 289.05496 186.82535 289.0625 186.75 C 289.07004 186.67465 289.0726 186.60745 289.0625 186.53125 C 289.02209 186.22646 288.84066 185.95598 288.65625 185.875 C 288.56405 185.83451 288.4617 185.81957 288.375 185.90625 z M 156.6875 215.03125 C 156.70782 215.02642 156.73045 215.03225 156.75 215.03125 C 156.79399 215.029 156.83579 215.04448 156.875 215.0625 C 156.9055 215.07652 156.94181 215.06681 156.96875 215.09375 C 156.97441 215.09941 156.9635 215.11901 156.96875 215.125 C 157.06025 215.22954 157.08871 215.37842 157.0625 215.5625 C 157.0753 215.49277 157.06856 215.42622 157.0625 215.375 C 157.05008 215.27017 157.02322 215.18591 156.96875 215.125 C 156.94151 215.09455 156.9099 215.07879 156.875 215.0625 C 156.8401 215.04621 156.79067 215.03125 156.75 215.03125 C 156.59756 215.03125 156.43233 215.17036 156.25 215.40625 C 156.15884 215.5242 156.05677 215.68056 155.96875 215.84375 C 156.05947 215.67405 156.15446 215.52614 156.25 215.40625 C 156.40708 215.20914 156.54657 215.06474 156.6875 215.03125 z M 155.71875 216.375 C 155.50777 216.91543 155.3982 217.36645 155.4375 217.46875 C 155.45681 217.51906 155.49574 217.52791 155.59375 217.46875 C 155.69176 217.40959 155.83818 217.30349 156.03125 217.125 C 156.24812 216.92449 156.41723 216.77319 156.5625 216.59375 C 156.47659 216.70101 156.38552 216.80275 156.28125 216.90625 C 156.17227 217.01442 156.11926 217.04379 156.03125 217.125 C 155.8585 217.28439 155.68904 217.41651 155.59375 217.46875 C 155.49172 217.52469 155.45591 217.54085 155.4375 217.46875 C 155.40316 217.33425 155.48888 216.9818 155.71875 216.375 z M 280.40625 220.84375 C 280.15477 220.84856 279.92115 220.89108 279.71875 220.96875 C 278.90907 221.27944 277.11611 223.80494 275.71875 226.5625 C 274.09781 229.76127 273.15625 233.20379 273.15625 236.125 C 273.15625 239.653 273.73371 241.29622 275.625 243.1875 C 276.975 244.5375 278.77502 245.625 279.625 245.625 C 280.7812 245.625 281.15625 246.72692 281.15625 249.96875 C 281.15625 252.35209 281.47715 254.60209 281.84375 254.96875 C 282.21045 255.33542 283.2792 255.625 284.25 255.625 C 285.2209 255.625 286.95625 254.31615 288.09375 252.71875 C 289.23115 251.12135 290.15625 249.34521 290.15625 248.75 C 290.15625 248.15478 291.73125 246.99181 293.65625 246.1875 C 296.31645 245.07599 297.15625 244.12677 297.15625 242.25 C 297.15625 240.89192 296.8963 239.08873 296.5625 238.21875 C 296.2286 237.34876 295.1036 236.625 294.0625 236.625 C 292.8773 236.625 292.15625 235.92552 292.15625 234.75 C 292.15625 233.71735 291.51735 232.31901 290.71875 231.65625 C 289.92015 230.99349 288.45345 230.62286 287.46875 230.8125 C 286.38565 231.02108 285.46805 232.32485 285.15625 234.125 C 284.85085 235.88807 283.93855 237.23869 282.90625 237.4375 C 281.94775 237.62209 281.1685 237.16552 281.1875 236.4375 C 281.207 235.70968 281.87015 234 282.65625 232.625 C 283.44225 231.25 284.106 228.49516 284.125 226.5 C 284.1449 224.47062 283.5195 222.31552 282.6875 221.625 C 282.074 221.11618 281.16068 220.82933 280.40625 220.84375 z M 335.15625 224.6875 C 335.24769 224.6875 335.34922 224.72375 335.4375 224.75 C 335.54025 224.78055 335.62955 224.84014 335.71875 224.90625 C 335.75545 224.93345 335.81053 224.93553 335.84375 224.96875 C 336.07719 225.20217 335.99672 225.38081 335.75 225.5 C 335.60916 225.56804 335.42273 225.625 335.15625 225.625 C 334.97283 225.625 334.81304 225.59635 334.6875 225.5625 C 334.4678 225.50326 334.35561 225.41347 334.34375 225.28125 C 334.33528 225.18681 334.38541 225.08333 334.5 224.96875 C 334.68335 224.78542 334.91459 224.6875 335.15625 224.6875 z M 334.34375 225.28125 L 334.4375 225.40625 C 334.4966 225.46923 334.6135 225.5396 334.6875 225.5625 C 334.7618 225.585 334.99895 225.59975 335.21875 225.59375 C 335.4514 225.58725 335.63139 225.54989 335.75 225.5 C 335.86861 225.45011 335.926 225.37737 335.9375 225.28125 C 335.9522 225.15697 335.86882 225.01656 335.71875 224.90625 C 335.64371 224.8511 335.5294 224.78379 335.4375 224.75 C 335.3456 224.71621 335.2488 224.71925 335.15625 224.71875 C 334.89965 224.71739 334.5573 224.91737 334.4375 225.125 L 334.34375 225.28125 z M 277.15625 231.6875 C 277.18727 231.6875 277.2191 231.71573 277.25 231.71875 C 277.4598 231.73926 277.68395 231.80896 277.84375 231.96875 C 277.93542 232.06042 277.95677 232.13906 277.96875 232.21875 C 277.94964 232.1568 277.89594 232.08945 277.8125 232 C 277.6631 231.83983 277.45603 231.73668 277.25 231.71875 C 277.04397 231.70082 276.81461 231.77559 276.625 231.90625 C 276.52608 231.97441 276.47781 232.02534 276.4375 232.09375 C 276.31657 232.29899 276.44057 232.48504 276.8125 232.5625 C 276.97913 232.5972 277.19169 232.61558 277.375 232.59375 C 277.30154 232.60157 277.24191 232.625 277.15625 232.625 C 277.02094 232.625 276.91683 232.58146 276.8125 232.5625 C 276.41805 232.49082 276.2892 232.33627 276.4375 232.09375 C 276.46258 232.05273 276.45674 232.01201 276.5 231.96875 C 276.53322 231.93553 276.58829 231.93345 276.625 231.90625 C 276.79085 231.78334 276.95837 231.6875 277.15625 231.6875 z M 277.96875 232.25 C 277.97434 232.42176 277.79109 232.54226 277.46875 232.59375 C 277.65462 232.56208 277.79134 232.48196 277.875 232.40625 C 277.93402 232.35286 277.98296 232.31597 277.96875 232.25 z M 72.4375 233.78125 C 72.491393 233.78006 72.564853 233.8369 72.65625 233.875 C 72.753024 233.91534 72.862049 233.94599 73 234.03125 C 73.406542 234.28251 73.731655 234.59435 73.9375 234.84375 C 74.015748 234.93855 74.065652 235.02036 74.09375 235.09375 C 74.107186 235.12884 74.15625 235.15927 74.15625 235.1875 C 74.15625 235.22481 74.133832 235.24659 74.125 235.28125 C 74.076426 235.4719 73.923976 235.625 73.71875 235.625 C 73.63815 235.625 73.533199 235.53742 73.40625 235.4375 C 73.151187 235.23675 72.824525 234.89272 72.5625 234.46875 C 72.2862 234.02169 72.252572 233.78534 72.4375 233.78125 z M 73.40625 235.4375 C 73.65343 235.63008 73.83366 235.6351 74 235.46875 C 74.056485 235.41226 74.110789 235.34403 74.125 235.28125 C 74.139211 235.21847 74.124006 235.16821 74.09375 235.09375 C 74.063494 235.01929 74.014417 234.9353 73.9375 234.84375 C 73.860583 234.7522 73.75077 234.64527 73.625 234.53125 C 73.34531 234.27768 72.929079 233.99672 72.65625 233.875 C 72.565307 233.83443 72.484633 233.8125 72.4375 233.8125 C 72.3523 233.8125 72.352 233.8269 72.375 233.96875 C 72.42443 234.27337 73.02629 235.14148 73.40625 235.4375 z M 276.78125 234.625 C 276.82371 234.625 276.84803 234.66733 276.875 234.6875 C 277.02269 234.79796 276.94368 235.15993 276.65625 235.625 C 276.33882 236.1386 275.87714 236.53956 275.59375 236.59375 C 275.57367 236.59759 275.54945 236.625 275.53125 236.625 C 275.47625 236.625 275.46658 236.5957 275.4375 236.5625 C 275.37187 236.48757 275.3766 236.35383 275.4375 236.15625 C 275.48454 236.00364 275.53775 235.81674 275.65625 235.625 C 275.91119 235.2125 276.2578 234.87109 276.53125 234.71875 C 276.28332 234.87602 275.9738 235.2311 275.75 235.5625 C 275.6243 235.74863 275.49657 235.96638 275.4375 236.15625 C 275.37843 236.34612 275.3858 236.5108 275.4375 236.5625 C 275.47382 236.59883 275.52312 236.61088 275.59375 236.59375 C 275.80564 236.54237 276.14337 236.25509 276.4375 235.875 C 276.83663 235.35925 277.03173 234.81959 276.875 234.6875 C 276.85261 234.66863 276.81802 234.65625 276.78125 234.65625 C 276.7298 234.65625 276.64554 234.66804 276.5625 234.71875 C 276.64201 234.67801 276.72003 234.625 276.78125 234.625 z M 287.5 239 C 287.77029 239.00681 287.78737 239.39506 287.53125 240.0625 C 287.20375 240.91607 286.7786 241.625 286.5625 241.625 C 286.3463 241.625 286.15625 241.20504 286.15625 240.6875 C 286.15625 240.16996 286.61255 239.46102 287.15625 239.125 C 287.29797 239.03742 287.4099 238.99773 287.5 239 z M 164.4375 239.78125 C 164.50196 239.77983 164.60074 239.85136 164.71875 239.90625 C 164.80387 239.94584 164.8876 239.96178 165 240.03125 C 165.63498 240.42369 166.15625 240.94496 166.15625 241.1875 C 166.15625 241.42021 165.97903 241.60981 165.75 241.625 C 165.87522 241.625 166.09375 241.32592 166.09375 241.1875 C 166.09375 240.88857 165.22042 240.13867 164.71875 239.90625 C 164.55153 239.82878 164.40459 239.79788 164.375 239.875 C 164.29732 240.07744 165.00924 241.12727 165.4375 241.4375 C 165.56407 241.52916 165.68186 241.61428 165.71875 241.625 C 165.47621 241.625 164.95494 241.10373 164.5625 240.46875 C 164.2862 240.02169 164.25257 239.78534 164.4375 239.78125 z M 164.71875 245.8125 C 164.89847 245.7754 164.76995 246.29019 164.5 247.34375 C 164.18754 248.56323 163.32806 250.08338 162.5625 250.71875 C 161.79693 251.35411 161.1753 251.47985 161.1875 251 C 161.19973 250.52016 162.09045 249 163.15625 247.625 C 164.07703 246.43709 164.53903 245.8496 164.71875 245.8125 z M 286.34375 271.625 C 284.32055 271.62839 281.3878 272.30339 279.8125 273.125 C 278.23709 273.94661 276.13604 274.625 275.15625 274.625 C 274.12095 274.625 272.08529 276.65739 270.28125 279.46875 C 268.57391 282.1294 267.15625 284.75839 267.15625 285.3125 C 267.15625 285.86661 267.94375 287.02464 268.90625 287.875 C 269.86875 288.72537 272.57163 289.71102 274.90625 290.09375 C 277.24087 290.47649 279.4484 291.28586 279.8125 291.875 C 280.2722 292.61888 278.28255 292.76042 273.3125 292.34375 L 266.15625 291.75 L 266.15625 294.6875 C 266.15625 296.35699 267.07095 298.5397 268.28125 299.75 C 270.21685 301.6856 271.21174 301.8492 278.8125 301.375 C 284.10351 301.04491 288.08145 300.25062 289.65625 299.21875 C 291.24575 298.17727 292.15625 296.64323 292.15625 295 C 292.15625 293.39687 290.9118 291.24087 288.875 289.28125 C 287.0743 287.54875 284.76445 285.64652 283.71875 285.0625 C 282.65075 284.46597 282.13215 283.48946 282.53125 282.84375 C 282.92195 282.21158 284.8943 281.39927 286.9375 281.03125 C 288.9808 280.66323 291.21875 279.92062 291.90625 279.375 C 292.59375 278.82937 293.15625 277.55587 293.15625 276.5625 C 293.15625 275.56913 292.45805 274.05178 291.59375 273.1875 C 290.72955 272.32321 288.36705 271.622 286.34375 271.625 z M 282.71875 275.625 C 282.96125 275.625 283.15625 276.075 283.15625 276.625 C 283.15625 277.175 282.67625 277.625 282.09375 277.625 C 281.51135 277.625 281.31625 277.175 281.65625 276.625 C 281.99615 276.075 282.47615 275.625 282.71875 275.625 z M 282.6875 275.6875 C 282.53021 275.6875 281.99442 276.1816 281.75 276.5625 C 281.42984 277.06141 281.49213 277.45353 281.90625 277.5625 C 282.47442 277.71199 283.125 277.18704 283.125 276.59375 C 283.125 276.11491 282.92518 275.6875 282.6875 275.6875 z M 174.15625 279.625 C 174.20787 279.57338 174.61322 279.87806 175.40625 280.5 C 176.36875 281.25485 177.15625 282.04235 177.15625 282.25 C 177.15625 282.29193 177.13777 282.33724 177.125 282.375 C 177.17779 282.22912 177.01268 282.00901 176.53125 281.53125 C 175.96864 280.97295 174.40357 279.71899 174.28125 279.71875 C 174.20078 279.71859 174.42699 280.02017 175.03125 280.78125 C 175.37058 281.20865 175.65398 281.56896 175.90625 281.84375 C 176.15852 282.11854 176.37193 282.32173 176.53125 282.4375 C 176.81595 282.64435 176.8196 282.62635 177 282.5 C 177.05391 282.46224 177.10442 282.44745 177.125 282.40625 C 177.06748 282.54164 176.93699 282.625 176.78125 282.625 C 176.65519 282.625 176.32267 282.28717 175.90625 281.84375 C 175.63673 281.55675 175.32785 281.25319 175.03125 280.875 C 174.40932 280.08197 174.10463 279.67662 174.15625 279.625 z M 280.4375 286.78125 C 280.45708 286.78082 280.47544 286.80778 280.5 286.8125 C 280.61463 286.83454 280.7791 286.89473 281 287.03125 C 281.60753 287.40677 282.08286 287.90203 282.125 288.15625 C 282.1269 288.1677 282.15625 288.17705 282.15625 288.1875 C 282.15625 288.43004 281.96125 288.625 281.71875 288.625 C 281.47615 288.625 280.9549 288.10373 280.5625 287.46875 C 280.28619 287.02169 280.25256 286.78534 280.4375 286.78125 z M 282.125 288.15625 C 282.125 287.98696 281.41071 287.33861 280.9375 287.0625 C 280.71864 286.93481 280.58548 286.83355 280.5 286.8125 C 280.41452 286.79145 280.375 286.83247 280.375 286.90625 C 280.375 287.16629 281.02435 288.10526 281.40625 288.40625 C 281.51774 288.4941 281.68865 288.56212 281.78125 288.5625 C 281.96407 288.56325 282.125 288.35629 282.125 288.15625 z M 166.15625 292.75 C 166.5477 292.75 166.92907 292.83398 167.25 292.9375 C 167.30056 292.95381 167.35946 292.94987 167.40625 292.96875 C 168.09375 293.24616 167.53125 293.46875 166.15625 293.46875 C 164.78125 293.46875 164.21875 293.24616 164.90625 292.96875 C 165.25 292.83004 165.70312 292.75 166.15625 292.75 z M 167.25 292.9375 C 166.54095 292.72698 165.42744 292.78271 164.90625 293.03125 C 164.59273 293.18075 164.62984 293.24154 165.03125 293.34375 C 165.35536 293.42627 167.33535 293.37775 167.53125 293.28125 C 167.75686 293.17014 167.6638 293.06039 167.25 292.9375 z M 278.46875 295.8125 C 278.5752 295.77481 278.70623 295.83125 278.84375 295.96875 C 279.21036 296.33542 279.21036 296.91458 278.84375 297.28125 C 278.47708 297.64791 278.15625 297.35833 278.15625 296.625 C 278.15625 296.16664 278.29133 295.87532 278.46875 295.8125 z M 278.53125 295.84375 C 278.4956 295.8482 278.46029 295.88346 278.40625 295.9375 C 278.33959 296.00418 278.24265 296.18447 278.21875 296.34375 C 278.16024 296.73391 278.25823 297.16448 278.40625 297.3125 C 278.51433 297.4206 278.53496 297.42325 278.65625 297.34375 C 278.88332 297.19503 279.0625 296.87488 279.0625 296.625 C 279.0625 296.37513 278.88332 296.05498 278.65625 295.90625 C 278.59561 295.86652 278.5669 295.8393 278.53125 295.84375 z M 27.46875 330.8125 C 27.51963 330.79448 27.565557 330.82321 27.625 330.84375 C 27.566809 330.82036 27.531555 330.8175 27.46875 330.84375 C 27.421018 330.8637 27.379468 330.91841 27.34375 330.96875 C 27.272313 331.06942 27.204304 331.20628 27.1875 331.40625 C 27.179098 331.50623 27.1806 331.63076 27.1875 331.75 C 27.19695 331.91367 27.217628 332.02693 27.25 332.125 C 27.282372 332.22307 27.34203 332.31548 27.40625 332.375 C 27.344289 332.32344 27.28715 332.24038 27.25 332.125 C 27.217458 332.02393 27.196015 331.89505 27.1875 331.75 C 27.184824 331.70441 27.15625 331.67464 27.15625 331.625 C 27.15625 331.53933 27.179685 331.47972 27.1875 331.40625 C 27.208087 331.21272 27.278309 331.06825 27.34375 330.96875 C 27.386383 330.90393 27.411845 330.83265 27.46875 330.8125 z M 27.65625 330.875 C 27.711384 330.90037 27.78408 330.90908 27.84375 330.96875 C 27.85049 330.97549 27.837258 330.9931 27.84375 331 C 27.981355 331.14614 28.036214 331.31322 28.0625 331.5 C 28.03386 331.32446 27.976307 331.1407 27.84375 331 C 27.778332 330.93054 27.706312 330.90212 27.65625 330.875 z M 28.0625 331.875 C 28.03676 331.9663 27.991124 332.04355 27.9375 332.125 C 27.903126 332.17721 27.889582 332.23542 27.84375 332.28125 C 27.82386 332.30114 27.800711 332.2965 27.78125 332.3125 C 27.828834 332.26768 27.887775 332.19494 27.9375 332.125 C 27.993108 332.04678 28.03584 331.96271 28.0625 331.875 z M 249.4375 371.78125 C 249.48083 371.78029 249.52614 371.81936 249.59375 371.84375 C 249.69929 371.88182 249.8365 371.9302 250 372.03125 C 250.30959 372.22259 250.57338 372.45132 250.78125 372.65625 C 250.86975 372.74349 250.94204 372.82865 251 372.90625 C 250.94158 372.8335 250.88076 372.75465 250.78125 372.65625 C 250.40123 372.28047 249.88798 371.94578 249.59375 371.84375 C 249.49567 371.80974 249.41479 371.81816 249.375 371.84375 C 249.32222 371.8777 249.34107 371.97563 249.40625 372.125 C 249.47143 372.27437 249.58612 372.46449 249.71875 372.65625 C 249.9679 373.01648 250.26944 373.39245 250.5 373.53125 C 250.27343 373.38191 249.98369 373.04068 249.71875 372.65625 C 249.67167 372.58793 249.60691 372.54061 249.5625 372.46875 C 249.47724 372.3308 249.44659 372.22177 249.40625 372.125 C 249.31586 371.90816 249.30964 371.78408 249.4375 371.78125 z M 251.125 373.125 C 251.13042 373.14559 251.15625 373.16973 251.15625 373.1875 C 251.15625 373.22481 251.13383 373.24659 251.125 373.28125 C 251.11062 373.33771 251.09639 373.39199 251.0625 373.4375 C 250.99291 373.53095 250.90184 373.60897 250.78125 373.625 C 250.87305 373.61122 251.00868 373.51444 251.0625 373.4375 C 251.104 373.37818 251.11291 373.33446 251.125 373.28125 C 251.13507 373.23691 251.13783 373.17184 251.125 373.125 z M 242.40625 389.125 C 242.45424 389.12154 242.52639 389.16449 242.59375 389.1875 C 242.86669 389.28075 243.25716 389.57664 243.6875 390 C 243.77047 390.08162 243.85439 390.12857 243.9375 390.21875 C 244.06502 390.35712 244.15998 390.49853 244.25 390.625 C 244.37362 390.79868 244.4499 390.95524 244.5 391.09375 C 244.5295 391.17531 244.55938 391.2472 244.5625 391.3125 C 244.56796 391.42695 244.54715 391.5107 244.46875 391.5625 C 244.49719 391.5424 244.5195 391.4994 244.53125 391.46875 C 244.54831 391.42431 244.56825 391.37545 244.5625 391.3125 C 244.55675 391.24955 244.52646 391.16923 244.5 391.09375 C 244.44708 390.94279 244.3732 390.79024 244.25 390.625 C 244.08794 390.40763 243.88313 390.19294 243.6875 390 C 243.29623 389.61411 242.87358 389.29501 242.59375 389.1875 C 242.45384 389.13374 242.36312 389.1265 242.3125 389.1875 C 242.2473 389.26612 242.22345 389.55866 242.28125 389.78125 C 242.21293 389.51487 242.22448 389.29427 242.3125 389.1875 C 242.31771 389.18118 242.30669 389.16177 242.3125 389.15625 C 242.33657 389.13338 242.36626 389.12788 242.40625 389.125 z M 242.4375 390.1875 C 242.55958 390.45452 242.7345 390.69013 242.9375 390.90625 C 242.82868 390.79233 242.70407 390.69044 242.625 390.5625 C 242.54732 390.4368 242.4936 390.31233 242.4375 390.1875 z M 243.28125 391.25 C 243.37679 391.31782 243.52499 391.3743 243.65625 391.4375 C 243.53387 391.37889 243.39871 391.33383 243.28125 391.25 z M 244.125 391.59375 C 244.21625 391.60423 244.31165 391.60716 244.375 391.59375 C 244.33907 391.60244 244.29554 391.625 244.25 391.625 C 244.20835 391.625 244.16876 391.59931 244.125 391.59375 z M 163.1875 391.65625 C 162.63504 391.64515 162.0833 391.81957 161.5 392.1875 C 160.58778 392.76292 159.05595 395.46572 158.09375 398.1875 C 157.13155 400.90927 155.36814 406.23596 154.15625 410.03125 C 152.71316 414.55056 152.12379 418.27181 152.46875 420.84375 C 152.75846 423.00365 153.78562 425.65313 154.75 426.71875 C 155.71438 427.78437 157.89901 429.02052 159.59375 429.46875 C 161.28848 429.91698 163.78125 430.01162 165.15625 429.65625 C 166.94585 429.19371 167.7663 428.21457 168 426.21875 C 168.21609 424.37338 167.55225 422.61702 166.0625 421.03125 C 164.82457 419.71353 163.29935 418.625 162.65625 418.625 C 161.86463 418.625 162.28196 415.79894 163.96875 409.875 C 165.33906 405.0625 166.5063 399.38412 166.5625 397.25 C 166.63315 394.56525 166.11709 393.02125 164.90625 392.25 C 164.2908 391.85798 163.73996 391.66735 163.1875 391.65625 z M 248.15625 393.6875 C 248.39792 393.6875 248.66042 393.78542 248.84375 393.96875 C 248.9125 394.0375 248.91409 394.09373 248.9375 394.15625 C 248.99068 394.29827 248.93603 394.41606 248.78125 394.5 C 248.85575 394.46224 248.91056 394.39409 248.9375 394.34375 C 248.97019 394.28266 248.96401 394.22514 248.9375 394.15625 C 248.85796 393.94957 248.54694 393.7414 248.21875 393.71875 C 248.10373 393.71082 247.98541 393.71695 247.875 393.75 C 247.76459 393.78305 247.66519 393.8425 247.59375 393.90625 C 247.50343 393.98685 247.44091 394.05432 247.40625 394.125 C 247.31012 394.321 247.43083 394.47974 247.75 394.5625 C 247.41448 394.48753 247.3018 394.33892 247.40625 394.125 C 247.43193 394.07239 247.44335 394.0254 247.5 393.96875 C 247.52707 393.94168 247.56432 393.92932 247.59375 393.90625 C 247.68151 393.83744 247.77294 393.78326 247.875 393.75 C 247.97049 393.71888 248.05668 393.6875 248.15625 393.6875 z M 248.75 394.5 C 248.68066 394.5335 248.60117 394.54412 248.5 394.5625 C 248.59313 394.54329 248.67982 394.53238 248.75 394.5 z M 240.4375 394.78125 C 240.48083 394.78029 240.52614 394.81936 240.59375 394.84375 C 240.69929 394.88182 240.8365 394.9302 241 395.03125 C 241.30959 395.22259 241.57338 395.45132 241.78125 395.65625 C 241.86975 395.74349 241.94204 395.82865 242 395.90625 C 241.94158 395.8335 241.88076 395.75465 241.78125 395.65625 C 241.40123 395.28047 240.88798 394.94578 240.59375 394.84375 C 240.49567 394.80974 240.41479 394.81816 240.375 394.84375 C 240.32222 394.8777 240.34107 394.97563 240.40625 395.125 C 240.47143 395.27437 240.58612 395.46449 240.71875 395.65625 C 240.9679 396.01648 241.26944 396.39245 241.5 396.53125 C 241.27343 396.38191 240.98369 396.04068 240.71875 395.65625 C 240.67167 395.58793 240.60691 395.54061 240.5625 395.46875 C 240.47724 395.3308 240.44659 395.22177 240.40625 395.125 C 240.31586 394.90816 240.30964 394.78408 240.4375 394.78125 z M 242.125 396.125 C 242.13042 396.14559 242.15625 396.16973 242.15625 396.1875 C 242.15625 396.22481 242.13383 396.24659 242.125 396.28125 C 242.11062 396.33771 242.09639 396.39199 242.0625 396.4375 C 241.99291 396.53095 241.90184 396.60897 241.78125 396.625 C 241.87305 396.61122 242.00868 396.51444 242.0625 396.4375 C 242.104 396.37818 242.11291 396.33446 242.125 396.28125 C 242.13507 396.23691 242.13783 396.17184 242.125 396.125 z M 61.34375 401.9375 C 61.286877 402.00939 61.24865 402.11554 61.21875 402.25 C 61.18245 402.4132 61.18245 402.86805 61.21875 403.03125 C 61.192824 402.91523 61.15625 402.78432 61.15625 402.625 C 61.15625 402.47769 61.196431 402.36045 61.21875 402.25 C 61.245959 402.11535 61.289609 402.01112 61.34375 401.9375 z M 61.78125 401.9375 C 61.800711 401.9535 61.82386 401.94886 61.84375 401.96875 C 61.907107 402.03211 61.927289 402.11262 61.96875 402.1875 C 61.92035 402.10238 61.855985 402.00264 61.78125 401.9375 z M 62.0625 402.71875 C 62.05175 402.81949 62.042908 402.90641 62 403 C 61.954802 403.09858 61.924631 403.20037 61.84375 403.28125 C 61.835967 403.28903 61.820221 403.27407 61.8125 403.28125 C 61.897455 403.19624 61.956249 403.10157 62 403 C 62.035338 402.91796 62.05239 402.81552 62.0625 402.71875 z M 61.4375 403.40625 C 61.472524 403.428 61.519417 403.44073 61.5625 403.4375 C 61.507331 403.44579 61.48397 403.43319 61.4375 403.40625 z M 158.46875 414.8125 C 158.5752 414.77481 158.70625 414.83125 158.84375 414.96875 C 159.21041 415.33542 159.21041 415.91458 158.84375 416.28125 C 158.78408 416.34092 158.71138 416.34964 158.65625 416.375 C 158.37259 416.5055 158.15625 416.23899 158.15625 415.625 C 158.15625 415.27388 158.26307 415.03308 158.375 414.90625 C 158.40918 414.86751 158.42724 414.8272 158.46875 414.8125 z M 158.375 414.90625 C 158.27267 415.02235 158.21875 415.27826 158.21875 415.625 C 158.21875 415.95054 158.26885 416.13566 158.34375 416.25 C 158.44128 416.39881 158.53392 416.44176 158.65625 416.375 C 158.69703 416.35275 158.7391 416.29627 158.78125 416.25 C 159.14902 415.84622 159.14902 415.37253 158.78125 414.96875 C 158.62593 414.79823 158.47733 414.79015 158.375 414.90625 z M 158.15625 423.6875 C 158.39792 423.6875 158.66042 423.78542 158.84375 423.96875 C 158.92167 424.04667 158.91755 424.11784 158.9375 424.1875 C 159.01142 424.44564 158.73375 424.625 158.15625 424.625 C 157.42288 424.625 157.13334 424.33542 157.5 423.96875 C 157.68333 423.78542 157.91458 423.6875 158.15625 423.6875 z M 158.9375 424.1875 C 158.923 424.12293 158.85847 424.04109 158.78125 423.96875 C 158.4814 423.68787 158.11675 423.65665 157.75 423.84375 C 157.29123 424.07781 157.28662 424.3974 157.71875 424.53125 C 157.82614 424.56451 158.09268 424.5779 158.3125 424.5625 C 158.7546 424.53155 158.98101 424.3812 158.9375 424.1875 z M 163.46875 425.8125 C 163.5752 425.77481 163.70625 425.83125 163.84375 425.96875 C 164.21041 426.33542 164.21041 426.91458 163.84375 427.28125 C 163.47708 427.64791 163.15625 427.35833 163.15625 426.625 C 163.15625 426.16664 163.29134 425.87532 163.46875 425.8125 z M 177.15625 456.6875 C 177.39792 456.6875 177.66042 456.78542 177.84375 456.96875 C 177.92167 457.04667 177.91755 457.11784 177.9375 457.1875 C 178.01142 457.44564 177.73375 457.625 177.15625 457.625 C 176.42288 457.625 176.13334 457.33542 176.5 456.96875 C 176.68333 456.78542 176.91458 456.6875 177.15625 456.6875 z M 177.9375 457.1875 C 177.923 457.12293 177.85847 457.04109 177.78125 456.96875 C 177.4814 456.68787 177.11675 456.65665 176.75 456.84375 C 176.29123 457.07781 176.28662 457.3974 176.71875 457.53125 C 176.82614 457.56451 177.09268 457.5779 177.3125 457.5625 C 177.7546 457.53155 177.98101 457.3812 177.9375 457.1875 z "
     id="path3853" />
</svg>
